{"glyphs":{"0":{"ha":731,"x_min":39,"x_max":692,"o":"m 182 450 q 365 106 182 106 q 549 450 549 106 q 502 711 549 629 q 365 793 456 793 q 182 450 182 793 m 126 90 q 82 149 126 90 q 39 450 39 207 q 125 808 39 693 q 365 924 211 924 q 601 806 510 924 q 692 450 692 689 q 605 90 692 207 q 365 -26 518 -26 q 126 90 213 -26 z "},"1":{"ha":439,"x_min":21,"x_max":378,"o":"m 378 0 l 236 0 l 236 626 l 21 600 l 21 733 l 232 764 l 246 908 l 378 908 l 378 0 z "},"2":{"ha":656,"x_min":31,"x_max":625,"o":"m 178 151 l 260 201 l 410 332 q 563 494 508 406 q 618 667 618 582 q 538 858 618 785 q 328 931 457 931 q 31 653 78 931 l 164 625 q 326 800 196 800 q 434 763 393 800 q 475 664 475 726 q 332 426 475 535 l 31 186 l 31 0 l 625 0 l 625 128 l 179 128 l 178 151 z "},"3":{"ha":665,"x_min":39,"x_max":626,"o":"m 467 464 q 583 532 540 476 q 626 669 626 588 q 547 858 626 786 q 340 931 467 931 q 138 860 214 931 q 39 653 61 790 l 172 625 q 228 758 189 715 q 338 800 268 800 q 443 760 403 800 q 483 657 483 721 q 453 554 483 593 q 374 515 422 515 l 240 515 l 240 394 l 374 394 q 453 356 424 394 q 483 254 483 318 q 443 151 483 190 q 338 111 403 111 q 228 160 268 111 q 172 314 189 210 l 39 288 q 138 58 61 136 q 340 -19 215 -19 q 547 53 467 -19 q 626 242 626 125 q 583 379 626 324 q 467 447 540 435 l 467 464 z "},"4":{"ha":701,"x_min":29,"x_max":672,"o":"m 381 869 l 213 496 l 169 440 l 171 418 l 672 419 l 672 293 l 29 293 l 29 435 l 240 914 l 381 869 m 581 0 l 439 0 l 439 908 l 581 908 l 581 0 z "},"5":{"ha":667,"x_min":39,"x_max":628,"o":"m 39 397 l 179 397 l 179 522 l 146 533 l 179 661 l 179 903 l 39 908 l 39 397 m 39 908 l 54 782 l 589 782 l 589 908 l 39 908 m 179 397 q 221 504 179 464 q 331 544 263 544 q 486 324 486 544 q 450 158 486 217 q 349 99 414 99 q 247 140 290 99 q 188 250 203 181 l 49 217 q 157 34 76 101 q 346 -33 238 -33 q 551 64 475 -33 q 628 325 628 161 q 558 572 628 483 q 361 661 488 661 q 208 593 261 661 q 154 399 154 525 l 179 397 z "},"6":{"ha":685,"x_min":39,"x_max":646,"o":"m 494 679 q 447 767 482 735 q 365 800 413 800 q 253 751 294 800 q 196 581 213 701 l 153 450 l 183 436 q 182 322 182 397 l 39 367 q 119 801 39 671 q 360 931 200 931 q 528 872 453 931 q 631 721 603 814 l 494 679 m 182 322 q 231 161 182 224 q 357 99 281 99 q 464 151 425 99 q 503 294 503 203 q 458 435 503 386 q 340 485 414 485 q 223 438 264 485 q 182 322 182 390 m 39 367 l 164 331 q 226 527 164 453 q 382 601 289 601 q 569 514 493 601 q 646 288 646 426 q 567 53 646 140 q 357 -33 489 -33 q 132 74 225 -33 q 39 367 39 182 z "},"7":{"ha":658,"x_min":39,"x_max":619,"o":"m 194 0 l 342 0 l 619 738 l 619 908 l 39 908 l 39 782 l 506 782 l 506 757 l 440 644 l 194 0 z "},"8":{"ha":665,"x_min":38,"x_max":626,"o":"m 122 49 q 163 15 122 49 q 333 -19 204 -19 q 544 49 463 -19 q 626 225 626 117 q 443 469 626 386 l 443 486 q 611 696 611 561 q 534 865 611 800 q 333 931 457 931 q 132 865 210 931 q 54 696 54 800 q 224 472 54 553 l 224 456 q 39 225 39 376 q 122 49 39 117 m 235 766 q 253 783 235 766 q 333 800 272 800 q 431 766 394 800 q 468 675 468 732 q 438 591 468 621 q 333 536 407 561 q 228 591 260 561 q 197 675 197 621 q 235 766 197 732 m 447 344 q 465 326 447 344 q 483 247 483 308 q 442 149 483 186 q 333 111 401 111 q 224 149 265 111 q 182 247 182 186 q 218 344 182 308 q 333 404 254 379 q 447 344 411 379 z "},"9":{"ha":685,"x_min":39,"x_max":646,"o":"m 190 218 q 238 130 203 163 q 319 97 272 97 q 431 147 390 97 q 489 317 472 196 l 532 447 l 501 461 q 503 575 503 500 l 646 531 q 565 96 646 225 q 325 -33 485 -33 q 157 24 232 -33 q 54 175 82 82 l 190 218 m 503 575 q 453 737 503 674 q 328 800 404 800 q 221 747 260 800 q 182 603 182 694 q 226 462 182 511 q 344 413 271 413 q 462 460 421 413 q 503 575 503 507 m 646 531 l 521 567 q 458 369 521 444 q 303 294 396 294 q 115 382 192 294 q 39 608 39 469 q 117 843 39 756 q 328 931 196 931 q 553 823 460 931 q 646 531 646 715 z "},"̓":{"ha":506,"x_min":46,"x_max":414,"o":"m 46 0 l 46 925 l 414 925 l 414 0 l 46 0 m 92 46 l 368 46 l 368 879 l 92 879 l 92 46 z "},"̔":{"ha":506,"x_min":46,"x_max":414,"o":"m 46 0 l 46 925 l 414 925 l 414 0 l 46 0 m 92 46 l 368 46 l 368 879 l 92 879 l 92 46 z "},"̤":{"ha":506,"x_min":46,"x_max":414,"o":"m 46 0 l 46 925 l 414 925 l 414 0 l 46 0 m 92 46 l 368 46 l 368 879 l 92 879 l 92 46 z "},"̥":{"ha":506,"x_min":46,"x_max":414,"o":"m 46 0 l 46 925 l 414 925 l 414 0 l 46 0 m 92 46 l 368 46 l 368 879 l 92 879 l 92 46 z "},"‑":{"ha":506,"x_min":46,"x_max":414,"o":"m 46 0 l 46 925 l 414 925 l 414 0 l 46 0 m 92 46 l 368 46 l 368 879 l 92 879 l 92 46 z "},"‒":{"ha":506,"x_min":46,"x_max":414,"o":"m 46 0 l 46 925 l 414 925 l 414 0 l 46 0 m 92 46 l 368 46 l 368 879 l 92 879 l 92 46 z "},"₩":{"ha":506,"x_min":46,"x_max":414,"o":"m 46 0 l 46 925 l 414 925 l 414 0 l 46 0 m 92 46 l 368 46 l 368 879 l 92 879 l 92 46 z "},"₪":{"ha":506,"x_min":46,"x_max":414,"o":"m 46 0 l 46 925 l 414 925 l 414 0 l 46 0 m 92 46 l 368 46 l 368 879 l 92 879 l 92 46 z "}," ":{"ha":297,"x_min":0,"x_max":0,"o":""},"!":{"ha":264,"x_min":50,"x_max":215,"o":"m 72 583 l 72 908 l 194 908 l 194 583 l 172 225 l 94 225 l 72 583 m 74 1 q 62 12 74 1 q 50 58 50 24 q 74 117 50 93 q 133 140 99 140 q 190 117 167 140 q 214 58 214 93 q 191 1 214 24 q 133 -22 168 -22 q 74 1 97 -22 z "},"\"":{"ha":361,"x_min":33,"x_max":332,"o":"m 206 954 l 331 954 l 256 678 l 194 678 l 206 954 m 44 954 l 172 954 l 94 678 l 33 678 l 44 954 z "},"#":{"ha":885,"x_min":40,"x_max":846,"o":"m 42 367 l 794 367 l 794 247 l 42 247 l 42 367 m 106 667 l 844 667 l 844 547 l 106 547 l 106 667 m 650 908 l 797 908 l 544 0 l 394 0 l 650 908 m 347 908 l 494 908 l 239 0 l 92 0 l 347 908 z "},"$":{"ha":593,"x_min":32,"x_max":561,"o":"m 264 954 l 264 0 l 331 0 l 331 954 l 264 954 m 561 325 q 545 402 561 368 q 507 458 529 436 q 449 497 485 479 q 383 523 413 514 q 314 540 354 532 q 254 556 276 549 q 208 573 232 563 q 172 599 183 583 q 161 633 161 614 q 194 700 161 675 q 285 725 228 725 q 439 589 404 725 l 553 617 q 275 828 497 828 q 105 776 168 828 q 42 636 42 724 q 60 552 42 589 q 115 492 79 515 q 185 454 150 468 q 269 428 221 440 q 286 424 275 426 q 333 411 317 415 q 373 397 349 407 q 408 378 397 388 q 429 355 419 369 q 439 322 439 340 q 404 256 439 282 q 313 231 369 231 q 147 381 183 231 l 33 361 q 133 188 56 249 q 322 128 211 128 q 494 183 428 128 q 561 325 561 238 z "},"%":{"ha":1007,"x_min":31,"x_max":978,"o":"m 653 207 q 758 92 653 92 q 861 207 861 92 q 834 290 861 261 q 758 319 807 319 q 680 290 707 319 q 653 207 653 261 m 536 207 q 596 369 536 311 q 758 426 656 426 q 915 368 853 426 q 978 207 978 310 q 919 43 978 101 q 758 -15 860 -15 q 596 43 656 -15 q 536 207 536 101 m 147 706 q 174 619 147 649 q 253 589 201 589 q 356 706 356 589 q 253 815 356 815 q 174 788 201 815 q 147 706 147 760 m 31 706 q 90 867 31 810 q 253 924 150 924 q 410 866 347 924 q 472 706 472 808 q 413 541 472 600 q 252 482 354 482 q 90 541 150 482 q 31 706 31 600 m 756 908 l 914 908 l 256 0 l 94 0 l 756 908 z "},"&":{"ha":778,"x_min":39,"x_max":740,"o":"m 489 108 q 405 17 465 56 q 283 -22 344 -22 q 106 41 174 -22 q 39 210 39 104 q 200 469 39 372 l 200 488 q 86 719 86 593 q 151 867 86 810 q 325 924 217 924 q 497 865 431 924 q 581 699 563 807 l 444 672 q 332 800 426 800 q 260 772 286 800 q 233 697 233 744 q 249 638 233 667 q 308 553 264 610 l 433 383 l 494 272 l 514 272 q 572 485 556 363 l 703 457 q 600 185 681 300 l 739 0 l 583 0 l 511 108 l 489 108 m 419 181 l 264 378 l 231 340 q 183 211 183 282 q 214 131 183 161 q 294 101 244 101 q 419 181 371 101 z "},"'":{"ha":204,"x_min":33,"x_max":172,"o":"m 44 954 l 172 954 l 94 678 l 33 678 l 44 954 z "},"(":{"ha":433,"x_min":39,"x_max":396,"o":"m 331 -172 q 119 43 199 -99 q 39 390 39 185 q 119 736 39 596 q 331 950 199 876 l 394 844 q 229 670 297 792 q 161 390 161 549 q 229 109 161 232 q 394 -67 297 -14 l 331 -172 z "},")":{"ha":433,"x_min":39,"x_max":396,"o":"m 103 950 q 315 735 236 876 q 394 388 394 593 q 315 42 394 182 q 103 -172 236 -99 l 39 -67 q 205 108 138 -14 q 272 388 272 229 q 205 669 272 546 q 39 844 138 792 l 103 950 z "},"*":{"ha":415,"x_min":22,"x_max":396,"o":"m 158 1014 l 258 1014 l 222 874 l 242 864 l 346 964 l 396 879 l 258 836 l 258 817 l 396 775 l 347 692 l 242 789 l 222 779 l 258 639 l 161 639 l 194 779 l 175 789 l 72 690 l 22 775 l 160 817 l 160 836 l 22 878 l 71 961 l 175 864 l 194 874 l 158 1014 z "},"+":{"ha":531,"x_min":21,"x_max":511,"o":"m 325 442 l 511 442 l 511 322 l 325 322 l 325 138 l 206 138 l 206 322 l 22 322 l 22 442 l 206 442 l 206 625 l 325 625 l 325 442 z "},",":{"ha":264,"x_min":21,"x_max":215,"o":"m 74 15 q 62 26 74 15 q 50 72 50 38 q 74 131 50 107 q 133 154 99 154 q 190 131 167 154 q 214 72 214 107 q 165 -129 214 -68 q 36 -190 117 -190 l 22 -111 q 132 -79 90 -111 q 183 13 174 -47 q 133 -8 165 -8 q 74 15 97 -8 z "},"-":{"ha":531,"x_min":21,"x_max":511,"o":"m 22 442 l 511 442 l 511 322 l 22 322 l 22 442 z "},".":{"ha":264,"x_min":50,"x_max":215,"o":"m 74 15 q 62 26 74 15 q 50 72 50 38 q 74 131 50 107 q 133 154 99 154 q 190 131 167 154 q 214 72 214 107 q 191 15 214 38 q 133 -8 168 -8 q 74 15 97 -8 z "},"/":{"ha":524,"x_min":61,"x_max":464,"o":"m 315 908 l 464 908 l 210 0 l 61 0 l 315 908 z "},":":{"ha":264,"x_min":50,"x_max":215,"o":"m 74 467 q 62 478 74 467 q 50 525 50 490 q 74 583 50 560 q 133 607 99 607 q 190 583 167 607 q 214 525 214 560 q 190 467 214 490 q 133 443 167 443 q 74 467 99 443 m 74 137 q 62 148 74 137 q 50 194 50 160 q 74 253 50 229 q 133 276 99 276 q 190 253 167 276 q 214 194 214 229 q 191 137 214 160 q 133 114 168 114 q 74 137 97 114 z "},";":{"ha":264,"x_min":21,"x_max":215,"o":"m 74 138 q 62 150 74 138 q 50 196 50 161 q 74 254 50 231 q 133 278 99 278 q 190 254 167 278 q 214 196 214 231 q 165 -6 214 56 q 36 -67 117 -67 l 22 13 q 132 44 90 13 q 183 136 174 76 q 133 115 165 115 q 74 138 97 115 m 75 467 q 63 478 75 467 q 51 525 51 490 q 75 583 51 560 q 133 607 99 607 q 192 583 168 607 q 215 525 215 560 q 192 467 215 490 q 133 443 168 443 q 75 467 99 443 z "},"<":{"ha":571,"x_min":47,"x_max":525,"o":"m 214 347 l 525 240 l 525 117 l 47 290 l 47 447 l 525 622 l 525 497 l 214 392 l 139 378 l 139 360 l 214 347 z "},"=":{"ha":531,"x_min":21,"x_max":511,"o":"m 22 326 l 511 326 l 511 207 l 22 207 l 22 326 m 22 557 l 511 557 l 511 438 l 22 438 l 22 557 z "},">":{"ha":571,"x_min":47,"x_max":525,"o":"m 358 392 l 47 497 l 47 622 l 525 447 l 525 292 l 47 117 l 47 242 l 358 347 l 435 361 l 435 378 l 358 392 z "},"?":{"ha":601,"x_min":38,"x_max":565,"o":"m 364 224 q 381 344 364 300 q 433 418 397 389 q 461 442 436 421 q 493 470 486 463 q 519 501 500 478 q 544 543 538 524 q 558 595 551 563 q 564 667 564 628 q 494 851 564 779 q 306 924 425 924 q 124 858 193 924 q 38 669 54 793 l 171 642 q 303 797 192 797 q 391 762 360 797 q 422 672 422 726 q 417 612 422 639 q 398 561 413 585 q 376 528 383 538 q 348 497 369 518 q 325 474 326 475 q 253 224 253 403 l 364 224 m 254 1 q 242 12 254 1 q 231 58 231 24 q 255 117 231 93 q 313 140 279 140 q 371 117 347 140 q 394 58 394 93 q 372 1 394 24 q 313 -22 349 -22 q 254 1 278 -22 z "},"@":{"ha":1001,"x_min":39,"x_max":964,"o":"m 839 444 q 817 315 839 367 q 764 263 796 263 q 735 276 747 263 q 722 307 722 289 l 722 561 q 659 688 722 638 q 500 739 596 739 q 353 690 411 739 q 283 557 294 642 l 392 531 q 425 613 396 583 q 501 642 454 642 q 576 615 547 642 q 606 546 606 589 l 606 526 l 431 474 q 283 322 283 428 q 329 214 283 256 q 450 172 375 172 q 565 219 517 172 q 628 344 613 265 l 644 339 l 625 281 q 669 199 625 233 q 764 165 714 165 q 910 239 857 165 q 964 444 964 313 q 837 814 964 683 q 489 944 710 944 q 160 813 281 944 q 39 450 39 681 q 163 85 39 217 q 503 -47 286 -47 q 608 -36 558 -47 l 594 78 q 508 71 565 71 q 252 169 343 71 q 161 450 161 268 q 251 728 161 629 q 501 828 340 828 q 750 728 661 828 q 839 444 839 628 m 397 332 q 458 399 397 381 l 606 443 l 606 381 q 569 306 606 335 q 475 276 532 276 q 397 332 397 276 z "},"A":{"ha":883,"x_min":21,"x_max":863,"o":"m 228 375 l 660 375 l 660 242 l 228 242 l 228 375 m 417 715 l 175 0 l 21 0 l 331 908 l 550 908 l 863 0 l 711 0 l 465 715 l 450 792 l 432 792 l 417 715 z "},"B":{"ha":768,"x_min":61,"x_max":729,"o":"m 203 135 l 404 135 q 588 260 588 135 q 404 386 588 386 l 203 386 l 203 135 m 203 521 l 404 521 q 532 553 492 521 q 572 650 572 586 q 533 745 572 715 q 404 775 493 775 l 203 775 l 203 521 m 529 463 l 529 444 q 674 369 619 426 q 729 232 729 311 q 646 63 729 126 q 419 0 563 0 l 61 0 l 61 908 l 419 908 q 638 844 561 908 q 715 672 715 781 q 667 534 715 590 q 529 463 618 478 z "},"C":{"ha":833,"x_min":39,"x_max":794,"o":"m 790 617 l 653 589 q 429 793 599 793 q 247 703 313 793 q 182 450 182 614 q 247 201 182 289 q 429 113 313 113 q 578 172 517 113 q 656 338 639 231 l 794 308 q 667 61 765 149 q 429 -26 568 -26 q 144 99 250 -26 q 39 450 39 225 q 144 804 39 678 q 429 931 250 931 q 651 849 554 931 q 790 617 747 767 z "},"D":{"ha":783,"x_min":61,"x_max":744,"o":"m 61 0 l 61 908 l 375 908 q 642 781 539 908 q 744 450 744 653 q 642 124 744 249 q 375 0 540 0 l 61 0 m 203 136 l 360 136 q 540 219 476 136 q 603 457 603 303 q 540 692 603 610 q 360 775 476 775 l 203 775 l 203 136 z "},"E":{"ha":742,"x_min":61,"x_max":707,"o":"m 61 908 l 707 908 l 707 775 l 203 775 l 203 521 l 686 521 l 686 386 l 203 386 l 203 135 l 707 135 l 707 0 l 61 0 l 61 908 z "},"F":{"ha":742,"x_min":61,"x_max":707,"o":"m 61 908 l 707 908 l 707 775 l 203 775 l 203 521 l 686 521 l 686 386 l 203 386 l 203 0 l 61 0 l 61 908 z "},"G":{"ha":833,"x_min":39,"x_max":794,"o":"m 790 617 q 649 849 747 768 q 417 931 550 931 q 142 801 246 931 q 39 438 39 671 q 138 98 39 222 q 388 -26 238 -26 q 601 77 521 -26 q 682 335 682 181 l 653 335 q 589 173 653 233 q 426 113 525 113 q 250 202 318 113 q 182 450 182 292 q 246 703 182 614 q 424 793 310 793 q 653 589 599 793 l 790 617 m 335 468 l 335 335 l 653 335 l 653 242 l 704 224 l 653 1 l 794 1 l 794 468 l 335 468 z "},"H":{"ha":814,"x_min":61,"x_max":753,"o":"m 131 528 l 668 528 l 668 393 l 131 393 l 131 528 m 610 908 l 753 908 l 753 0 l 610 0 l 610 908 m 61 908 l 203 908 l 203 0 l 61 0 l 61 908 z "},"I":{"ha":264,"x_min":61,"x_max":203,"o":"m 61 908 l 203 908 l 203 0 l 61 0 l 61 908 z "},"J":{"ha":704,"x_min":35,"x_max":643,"o":"m 643 908 l 500 908 l 500 256 q 457 149 500 190 q 342 108 414 108 q 224 156 269 108 q 171 279 179 203 l 35 244 q 134 53 51 128 q 344 -22 217 -22 q 560 52 478 -22 q 643 240 643 126 l 643 908 z "},"K":{"ha":799,"x_min":61,"x_max":779,"o":"m 61 908 l 203 908 l 203 478 l 597 908 l 778 908 l 414 492 l 778 0 l 586 0 l 300 397 l 203 303 l 203 0 l 61 0 l 61 908 z "},"L":{"ha":742,"x_min":61,"x_max":707,"o":"m 61 908 l 203 908 l 203 135 l 707 135 l 707 0 l 61 0 l 61 908 z "},"M":{"ha":1128,"x_min":61,"x_max":1067,"o":"m 582 199 l 879 908 l 1067 908 l 1067 0 l 931 0 l 931 692 l 650 0 l 478 0 l 203 692 l 203 0 l 61 0 l 61 908 l 256 908 l 546 199 l 563 138 l 582 199 z "},"N":{"ha":842,"x_min":61,"x_max":781,"o":"m 638 908 l 781 908 l 781 0 l 593 0 l 203 706 l 203 0 l 61 0 l 61 908 l 247 908 l 638 206 l 638 908 z "},"O":{"ha":849,"x_min":39,"x_max":810,"o":"m 247 708 q 214 663 247 708 q 182 454 182 617 q 247 202 182 292 q 425 113 311 113 q 603 202 539 113 q 667 454 667 292 q 603 708 667 617 q 425 800 539 800 q 247 708 311 800 m 143 101 q 91 164 143 101 q 39 454 39 228 q 144 809 39 681 q 425 938 249 938 q 700 807 590 938 q 810 454 810 676 q 706 101 810 228 q 425 -26 603 -26 q 143 101 247 -26 z "},"P":{"ha":746,"x_min":61,"x_max":715,"o":"m 61 0 l 61 908 l 404 908 q 628 827 542 908 q 715 619 715 746 q 629 419 715 496 q 404 343 543 343 l 203 343 l 203 0 l 61 0 m 203 476 l 390 476 q 525 515 478 476 q 572 624 572 553 q 525 736 572 697 q 390 775 478 775 l 203 775 l 203 476 z "},"Q":{"ha":849,"x_min":39,"x_max":829,"o":"m 728 -51 l 361 375 l 463 469 l 828 43 l 728 -51 m 247 703 q 214 659 247 703 q 182 452 182 614 q 247 201 182 290 q 425 113 311 113 q 603 201 539 113 q 667 452 667 290 q 603 703 667 614 q 425 793 539 793 q 247 703 311 793 m 39 453 q 143 804 39 678 q 425 931 247 931 q 700 802 590 931 q 810 453 810 674 q 706 99 810 225 q 425 -26 603 -26 q 143 99 247 -26 q 39 453 39 225 z "},"R":{"ha":746,"x_min":61,"x_max":715,"o":"m 358 383 l 513 383 l 715 0 l 563 0 l 358 383 m 61 0 l 61 908 l 411 908 q 631 824 547 908 q 715 611 715 740 q 633 412 715 488 q 411 336 550 336 l 203 336 l 203 0 l 61 0 m 203 469 l 397 469 q 572 617 572 469 q 528 733 572 692 q 397 775 483 775 l 203 775 l 203 469 z "},"S":{"ha":724,"x_min":39,"x_max":685,"o":"m 685 240 q 603 43 685 117 q 388 -31 521 -31 q 165 42 256 -31 q 39 261 75 115 l 172 290 q 385 107 229 107 q 498 143 454 107 q 542 238 542 179 q 530 285 542 264 q 503 320 518 307 q 456 346 488 333 q 403 365 425 358 q 339 381 382 371 q 326 385 331 383 q 244 408 279 396 q 169 443 208 421 q 105 493 129 465 q 64 563 81 521 q 47 658 47 606 q 127 857 47 783 q 344 931 207 931 q 559 863 472 931 q 678 661 646 796 l 546 632 q 476 752 526 711 q 350 793 426 793 q 232 757 275 793 q 189 661 189 721 q 200 612 189 633 q 227 576 211 590 q 274 549 243 561 q 328 528 304 536 q 396 511 353 521 q 478 487 446 497 q 554 454 511 476 q 623 406 597 432 q 667 336 649 379 q 685 240 685 293 z "},"T":{"ha":767,"x_min":38,"x_max":729,"o":"m 38 908 l 729 908 l 729 775 l 454 775 l 454 0 l 311 0 l 311 775 l 38 775 l 38 908 z "},"U":{"ha":801,"x_min":61,"x_max":740,"o":"m 203 908 l 203 313 q 255 166 203 218 q 403 114 307 114 q 547 165 497 114 q 597 313 597 217 l 597 908 l 740 908 l 740 297 q 645 68 740 158 q 403 -22 550 -22 q 156 66 250 -22 q 61 297 61 154 l 61 908 l 203 908 z "},"V":{"ha":883,"x_min":21,"x_max":863,"o":"m 467 194 l 710 908 l 863 908 l 553 0 l 333 0 l 21 908 l 174 908 l 419 194 l 433 117 l 453 117 l 467 194 z "},"W":{"ha":1363,"x_min":21,"x_max":1342,"o":"m 661 697 l 492 0 l 271 0 l 21 908 l 167 908 l 361 215 l 375 138 l 392 138 l 406 215 l 581 908 l 778 908 l 956 215 l 969 138 l 988 138 l 1000 215 l 1197 908 l 1342 908 l 1092 0 l 869 0 l 699 697 l 689 781 l 672 781 l 661 697 z "},"X":{"ha":847,"x_min":21,"x_max":826,"o":"m 447 553 l 669 908 l 826 908 l 542 453 l 825 0 l 669 0 l 447 356 l 433 410 l 415 410 l 400 356 l 178 0 l 21 0 l 306 453 l 21 908 l 178 908 l 400 553 l 415 499 l 433 499 l 447 553 z "},"Y":{"ha":850,"x_min":21,"x_max":829,"o":"m 514 365 l 829 908 l 669 908 l 449 514 l 435 461 l 417 461 l 401 514 l 182 908 l 21 908 l 336 365 l 356 365 l 356 0 l 497 0 l 497 365 l 514 365 z "},"Z":{"ha":765,"x_min":46,"x_max":719,"o":"m 46 908 l 719 908 l 719 742 l 288 236 l 169 138 l 169 121 l 719 121 l 719 0 l 46 0 l 46 168 l 503 697 l 604 772 l 604 789 l 46 789 l 46 908 z "},"[":{"ha":442,"x_min":61,"x_max":403,"o":"m 61 939 l 61 -150 l 403 -150 l 403 -29 l 182 -29 l 182 819 l 403 819 l 403 939 l 61 939 z "},"\\":{"ha":524,"x_min":61,"x_max":464,"o":"m 210 908 l 464 0 l 315 0 l 61 908 l 210 908 z "},"]":{"ha":442,"x_min":39,"x_max":382,"o":"m 382 -150 l 382 939 l 39 939 l 39 819 l 261 819 l 261 -31 l 39 -31 l 39 -150 l 382 -150 z "},"^":{"ha":542,"x_min":33,"x_max":510,"o":"m 250 897 l 156 747 l 33 747 l 193 972 l 350 972 l 510 747 l 389 747 l 293 897 l 281 928 l 264 928 l 250 897 z "},"_":{"ha":628,"x_min":21,"x_max":608,"o":"m 22 54 l 608 54 l 608 -44 l 22 -44 l 22 54 z "},"`":{"ha":328,"x_min":33,"x_max":296,"o":"m 33 968 l 168 968 l 294 736 l 203 736 l 33 968 z "},"a":{"ha":660,"x_min":38,"x_max":599,"o":"m 182 178 q 213 119 182 139 q 296 100 244 100 q 411 140 367 100 q 456 243 456 181 l 481 243 q 417 47 481 121 q 249 -26 353 -26 q 99 25 158 -26 q 39 157 39 76 q 83 272 39 229 q 218 340 126 314 l 456 403 l 456 306 l 267 257 q 182 178 182 235 m 599 0 l 456 0 l 497 163 l 456 181 l 456 422 q 419 507 456 475 q 324 539 383 539 q 224 502 263 539 q 179 407 186 465 l 39 428 q 131 599 54 532 q 326 665 207 665 q 523 599 447 665 q 599 438 599 533 l 599 0 z "},"b":{"ha":735,"x_min":61,"x_max":696,"o":"m 249 486 q 226 457 249 486 q 203 322 203 428 q 249 157 203 215 q 379 99 296 99 q 507 156 461 99 q 553 321 553 214 q 507 486 553 428 q 379 544 461 544 q 249 486 296 544 m 169 321 q 236 577 169 486 q 424 668 303 668 q 619 573 542 668 q 696 317 696 478 q 622 67 696 160 q 429 -26 549 -26 q 238 65 306 -26 q 169 321 169 156 m 61 954 l 203 954 l 203 639 l 161 474 l 203 458 l 203 181 l 161 165 l 203 0 l 61 0 l 61 954 z "},"c":{"ha":697,"x_min":39,"x_max":663,"o":"m 657 422 l 522 401 q 356 544 483 544 q 228 487 274 544 q 182 322 182 429 q 228 157 182 215 q 356 99 274 99 q 467 140 422 99 q 525 254 513 181 l 663 233 q 556 42 639 110 q 356 -26 472 -26 q 125 65 211 -26 q 39 322 39 157 q 125 577 39 486 q 356 668 211 668 q 542 604 461 668 q 657 422 622 540 z "},"d":{"ha":738,"x_min":39,"x_max":676,"o":"m 482 156 q 504 185 482 156 q 526 321 526 214 q 482 486 526 428 q 357 544 438 544 q 228 487 274 544 q 182 321 182 429 q 228 156 182 214 q 357 99 274 99 q 482 156 438 99 m 494 578 q 526 533 494 578 q 558 321 558 488 q 492 64 558 154 q 307 -26 426 -26 q 113 66 188 -26 q 39 317 39 158 q 118 575 39 482 q 314 668 197 668 q 494 578 429 668 m 676 954 l 676 0 l 526 0 l 567 165 l 526 181 l 526 458 l 569 474 l 526 639 l 526 954 l 676 954 z "},"e":{"ha":701,"x_min":39,"x_max":663,"o":"m 183 282 q 238 146 190 193 q 365 99 285 99 q 472 131 429 99 q 525 219 514 163 l 663 197 q 559 33 639 93 q 365 -26 479 -26 q 126 67 213 -26 q 39 322 39 160 q 122 576 39 483 q 350 668 206 668 q 579 575 496 668 q 663 331 663 482 l 663 282 l 183 282 m 186 382 l 518 382 q 470 499 518 453 q 350 544 422 544 q 238 502 281 544 q 186 382 196 460 z "},"f":{"ha":503,"x_min":21,"x_max":482,"o":"m 281 0 l 139 0 l 139 519 l 21 519 l 21 639 l 139 639 l 139 742 q 193 906 139 858 q 371 954 247 954 l 467 954 l 467 835 l 369 835 q 281 729 281 835 l 281 639 l 482 639 l 482 519 l 281 519 l 281 0 z "},"g":{"ha":626,"x_min":21,"x_max":626,"o":"m 43 442 q 115 606 43 543 q 308 668 186 668 q 512 600 435 668 q 589 419 589 532 q 522 254 589 318 q 349 190 456 190 q 233 207 326 204 l 233 232 q 94 295 144 238 q 43 442 43 353 m 186 428 q 221 337 186 369 q 317 304 256 304 q 413 337 378 304 q 447 428 447 369 q 413 516 447 485 q 317 547 379 547 q 220 516 254 547 q 186 428 186 485 m 517 688 q 471 654 471 688 q 497 608 471 639 l 424 633 l 439 663 q 397 729 397 692 q 427 783 397 764 q 511 803 457 803 l 626 803 l 626 688 l 517 688 m 21 -132 q 79 -24 21 -64 q 238 17 138 17 l 238 33 q 86 133 86 58 q 141 198 86 178 q 317 218 196 218 l 349 190 q 258 185 285 190 q 232 167 232 179 q 338 117 232 142 q 549 30 486 83 q 613 -104 613 -24 q 533 -258 613 -201 q 317 -314 454 -314 q 101 -265 181 -314 q 21 -132 21 -215 m 163 -96 q 204 -162 163 -137 q 319 -186 246 -186 q 430 -162 390 -186 q 469 -97 469 -139 q 444 -47 469 -65 q 332 0 418 -29 q 208 -26 254 0 q 163 -96 163 -51 z "},"h":{"ha":694,"x_min":61,"x_max":633,"o":"m 490 399 q 451 503 490 464 q 350 543 413 543 q 244 502 286 543 q 203 396 203 461 l 181 396 q 245 588 181 510 q 411 665 310 665 q 569 592 506 665 q 633 414 633 519 l 633 0 l 490 0 l 490 399 m 203 639 l 164 472 l 203 458 l 203 0 l 61 0 l 61 954 l 203 954 l 203 639 z "},"i":{"ha":260,"x_min":46,"x_max":214,"o":"m 71 750 q 58 763 71 750 q 46 810 46 775 q 71 869 46 844 q 130 894 96 894 q 189 869 164 894 q 214 810 214 844 q 189 750 214 775 q 130 725 164 725 q 71 750 96 725 m 61 639 l 203 639 l 203 0 l 61 0 l 61 639 z "},"j":{"ha":260,"x_min":-81,"x_max":214,"o":"m 71 750 q 58 763 71 750 q 46 810 46 775 q 71 869 46 844 q 130 894 96 894 q 189 869 164 894 q 214 810 214 844 q 189 750 214 775 q 130 725 164 725 q 71 750 96 725 m 61 639 l 203 639 l 203 -47 q 142 -198 203 -142 q -22 -254 81 -254 l -81 -254 l -81 -118 l -22 -118 q 36 -90 11 -118 q 61 -18 61 -61 l 61 639 z "},"k":{"ha":678,"x_min":61,"x_max":661,"o":"m 61 954 l 203 954 l 203 340 l 488 639 l 661 639 l 397 344 l 661 0 l 489 0 l 294 258 l 203 165 l 203 0 l 61 0 l 61 954 z "},"l":{"ha":264,"x_min":61,"x_max":203,"o":"m 61 954 l 203 954 l 203 0 l 61 0 l 61 954 z "},"m":{"ha":1083,"x_min":61,"x_max":1022,"o":"m 879 392 q 844 503 879 463 q 744 543 810 543 q 648 501 682 543 q 614 389 614 458 l 589 389 q 648 590 589 515 q 811 665 707 665 q 964 592 906 665 q 1022 407 1022 518 l 1022 0 l 879 0 l 879 392 m 469 392 q 437 502 469 461 q 343 543 404 543 q 240 501 278 543 q 203 389 203 458 l 181 389 q 238 590 181 514 q 392 665 296 665 q 517 606 463 665 q 572 468 572 547 l 572 461 l 614 450 l 614 0 l 469 0 l 469 392 m 61 639 l 203 639 l 164 472 l 203 458 l 203 0 l 61 0 l 61 639 z "},"n":{"ha":694,"x_min":61,"x_max":633,"o":"m 490 399 q 451 503 490 464 q 350 543 413 543 q 244 502 286 543 q 203 396 203 461 l 181 396 q 244 588 181 510 q 411 665 308 665 q 569 592 506 665 q 633 414 633 519 l 633 0 l 490 0 l 490 399 m 61 639 l 203 639 l 164 472 l 203 458 l 203 0 l 61 0 l 61 639 z "},"o":{"ha":701,"x_min":39,"x_max":663,"o":"m 182 322 q 226 156 182 214 q 350 99 271 99 q 475 157 431 99 q 519 322 519 215 q 474 487 519 429 q 350 544 429 544 q 226 487 271 544 q 182 322 182 429 m 39 322 q 123 577 39 486 q 350 668 207 668 q 574 576 485 668 q 663 322 663 483 q 578 65 663 157 q 350 -26 493 -26 q 123 65 207 -26 q 39 322 39 157 z "},"p":{"ha":736,"x_min":61,"x_max":697,"o":"m 250 153 q 226 182 250 153 q 203 318 203 211 q 250 483 203 425 q 381 542 297 542 q 508 483 463 542 q 554 318 554 425 q 508 152 554 210 q 381 94 463 94 q 250 153 297 94 m 238 575 q 204 530 238 575 q 171 318 171 485 q 235 61 171 151 q 417 -29 300 -29 q 617 64 536 -29 q 697 322 697 157 q 621 573 697 481 q 422 665 544 665 q 238 575 304 665 m 61 -272 l 203 -272 l 203 0 l 161 165 l 203 181 l 203 458 l 163 474 l 203 639 l 61 639 l 61 -272 z "},"q":{"ha":736,"x_min":38,"x_max":675,"o":"m 487 153 q 510 182 487 153 q 533 318 533 211 q 487 483 533 425 q 357 542 440 542 q 228 483 274 542 q 182 318 182 425 q 228 153 182 211 q 357 94 274 94 q 487 153 440 94 m 565 318 q 499 61 565 151 q 313 -29 432 -29 q 116 66 193 -29 q 39 322 39 161 q 113 572 39 479 q 306 665 186 665 q 497 574 429 665 q 565 318 565 483 m 675 -272 l 533 -272 l 533 0 l 575 165 l 533 181 l 533 458 l 574 474 l 533 639 l 675 639 l 675 -272 z "},"r":{"ha":469,"x_min":61,"x_max":449,"o":"m 61 639 l 203 639 l 161 474 l 203 458 l 203 0 l 61 0 l 61 639 m 383 513 q 256 470 310 513 q 203 361 203 428 l 182 396 q 241 578 182 510 q 397 646 300 646 l 449 646 l 449 513 l 383 513 z "},"s":{"ha":606,"x_min":39,"x_max":567,"o":"m 567 167 q 500 24 567 79 q 328 -31 433 -31 q 140 29 218 -31 q 39 201 61 89 l 174 222 q 319 86 206 86 q 394 110 365 86 q 424 171 424 133 q 416 201 424 188 q 399 222 408 214 q 368 240 389 231 q 333 253 347 249 q 293 265 319 257 q 275 269 281 268 q 208 291 235 282 q 149 318 182 300 q 95 356 115 336 q 61 407 75 375 q 47 478 47 439 q 110 617 47 565 q 281 668 174 668 q 560 458 504 668 l 424 431 q 292 551 394 551 q 217 531 244 551 q 189 475 189 510 q 199 440 189 456 q 229 415 208 425 q 269 397 250 404 q 319 381 288 390 q 335 376 325 379 q 382 363 365 368 q 427 346 399 357 q 472 325 456 335 q 508 299 488 315 q 540 264 529 282 q 559 221 551 246 q 567 167 567 196 z "},"t":{"ha":503,"x_min":21,"x_max":482,"o":"m 281 519 l 281 222 q 297 138 281 154 q 372 121 314 121 l 482 121 l 482 0 l 332 0 q 188 45 238 0 q 139 207 139 90 l 139 519 l 21 519 l 21 639 l 139 639 l 139 826 l 281 842 l 281 639 l 482 639 l 482 519 l 281 519 z "},"u":{"ha":694,"x_min":61,"x_max":633,"o":"m 203 240 q 242 131 203 172 q 344 89 282 89 q 450 132 408 89 q 492 243 492 175 l 514 243 q 449 51 514 129 q 283 -26 385 -26 q 125 47 189 -26 q 61 225 61 119 l 61 639 l 203 639 l 203 240 m 633 0 l 492 0 l 531 167 l 492 181 l 492 639 l 633 639 l 633 0 z "},"v":{"ha":679,"x_min":21,"x_max":658,"o":"m 364 201 l 504 639 l 658 639 l 446 0 l 233 0 l 21 639 l 174 639 l 315 201 l 331 124 l 349 124 l 364 201 z "},"w":{"ha":1072,"x_min":21,"x_max":1051,"o":"m 517 426 l 411 0 l 197 0 l 21 639 l 167 639 l 283 215 l 294 138 l 313 138 l 328 215 l 438 639 l 635 639 l 746 215 l 760 138 l 778 138 l 789 215 l 907 639 l 1051 639 l 876 0 l 663 0 l 556 426 l 544 511 l 528 511 l 517 426 z "},"x":{"ha":679,"x_min":21,"x_max":658,"o":"m 364 421 l 500 639 l 658 639 l 457 322 l 658 0 l 501 0 l 364 225 l 349 279 l 331 279 l 315 225 l 178 0 l 21 0 l 222 322 l 21 639 l 178 639 l 315 421 l 331 367 l 349 367 l 364 421 z "},"y":{"ha":679,"x_min":21,"x_max":658,"o":"m 364 208 l 504 639 l 658 639 l 386 -119 q 315 -223 363 -186 q 211 -260 268 -260 l 56 -260 l 54 -129 l 156 -129 q 209 -115 190 -129 q 239 -61 228 -100 l 256 0 l 21 639 l 174 639 l 315 208 l 331 131 l 349 131 l 364 208 z "},"z":{"ha":568,"x_min":39,"x_max":529,"o":"m 39 639 l 529 639 l 529 464 l 253 203 l 172 139 l 172 121 l 529 121 l 529 0 l 39 0 l 39 182 l 321 457 l 394 501 l 394 519 l 39 519 l 39 639 z "},"{":{"ha":436,"x_min":39,"x_max":399,"o":"m 356 951 l 397 846 q 318 758 347 808 q 289 631 289 708 q 256 473 289 536 q 169 394 224 410 l 169 378 q 256 300 224 363 q 289 143 289 238 q 397 -67 289 11 l 356 -171 q 216 -51 265 -133 q 167 156 167 31 q 144 280 167 233 q 83 326 121 326 l 39 326 l 39 447 l 83 447 q 144 494 121 447 q 167 618 167 540 q 356 951 167 868 z "},"|":{"ha":263,"x_min":61,"x_max":203,"o":"m 61 1089 l 203 1089 l 203 -256 l 61 -256 l 61 1089 z "},"}":{"ha":436,"x_min":39,"x_max":399,"o":"m 83 -171 l 39 -67 q 119 22 90 -28 q 147 150 147 72 q 181 308 147 244 q 269 386 214 371 l 269 403 q 181 481 214 418 q 147 638 147 543 q 39 847 147 768 l 83 951 q 221 832 172 914 q 269 625 269 750 q 293 501 269 547 q 356 454 317 454 l 397 454 l 397 333 l 356 333 q 293 287 317 333 q 269 163 269 240 q 83 -171 269 -87 z "},"~":{"ha":432,"x_min":0,"x_max":432,"o":"m 349 463 q 311 372 349 372 q 279 381 294 372 q 258 397 264 390 q 236 422 253 403 q 211 449 222 439 q 178 467 200 458 q 131 476 157 476 q 35 434 68 476 q 1 311 1 392 l 83 300 q 128 396 83 396 q 153 390 140 396 q 171 378 165 383 q 191 358 176 374 q 208 338 206 342 q 313 290 254 290 q 432 453 432 290 l 349 463 z "},"¡":{"ha":264,"x_min":50,"x_max":215,"o":"m 194 197 l 194 -129 l 72 -129 l 72 197 l 94 554 l 172 554 l 194 197 m 191 779 q 202 767 191 779 q 214 721 214 756 q 190 663 214 686 q 133 639 167 639 q 74 663 99 639 q 50 721 50 686 q 74 779 50 756 q 133 803 97 803 q 191 779 168 803 z "},"¢":{"ha":701,"x_min":39,"x_max":664,"o":"m 319 954 l 319 0 l 385 0 l 385 954 l 319 954 m 658 589 q 542 770 622 707 q 356 833 461 833 q 126 743 213 833 q 39 489 39 653 q 126 231 39 324 q 356 139 213 139 q 556 207 472 139 q 664 399 640 275 l 525 419 q 467 305 513 346 q 356 264 422 264 q 229 322 275 264 q 183 489 183 381 q 229 653 183 594 q 356 711 275 711 q 461 674 418 711 q 522 567 504 636 l 658 589 z "},"£":{"ha":635,"x_min":39,"x_max":611,"o":"m 533 378 l 533 497 l 53 497 l 53 378 l 533 378 m 39 135 l 39 0 l 611 0 l 611 135 l 342 135 l 178 86 l 161 135 l 39 135 m 150 539 q 196 314 196 421 q 156 185 196 235 q 39 135 117 135 l 42 101 q 262 162 190 101 q 333 321 333 222 q 293 540 333 436 q 246 713 246 654 q 269 781 246 756 q 336 807 293 807 q 417 761 382 807 q 464 633 451 715 l 594 668 q 506 861 576 792 q 333 931 435 931 q 165 877 228 931 q 103 735 103 824 q 150 539 103 658 z "},"¤":{"ha":444,"x_min":40,"x_max":406,"o":"m 285 547 l 346 608 l 406 549 l 343 488 l 285 547 m 342 367 l 406 301 l 347 243 l 283 308 l 342 367 m 167 311 l 100 243 l 40 304 l 107 369 l 167 311 m 103 488 l 40 549 l 100 608 l 163 547 l 103 488 m 171 374 q 182 363 171 374 q 224 351 193 351 q 276 374 254 351 q 299 429 299 397 q 276 482 299 460 q 224 504 254 504 q 171 482 193 504 q 149 429 149 460 q 171 374 149 397 m 69 429 q 115 538 69 493 q 224 582 160 582 q 333 538 288 582 q 378 429 378 493 q 333 319 378 364 q 224 275 289 275 q 114 319 158 275 q 69 429 69 364 z "},"¥":{"ha":750,"x_min":32,"x_max":718,"o":"m 467 475 l 718 908 l 558 908 l 401 625 l 388 572 l 369 572 l 354 625 l 194 908 l 33 908 l 289 475 l 307 475 l 307 0 l 450 0 l 450 475 l 467 475 m 142 418 l 142 311 l 614 311 l 614 418 l 142 418 m 142 231 l 142 125 l 614 125 l 614 231 l 142 231 z "},"¦":{"ha":263,"x_min":61,"x_max":203,"o":"m 61 321 l 203 321 l 203 -256 l 61 -256 l 61 321 m 61 1089 l 203 1089 l 203 513 l 61 513 l 61 1089 z "},"§":{"ha":628,"x_min":39,"x_max":590,"o":"m 292 567 q 419 517 390 536 q 447 457 447 497 q 416 391 447 417 q 339 365 385 365 q 211 415 239 396 q 183 474 183 433 q 214 540 183 514 q 292 567 244 567 m 206 586 q 83 535 128 574 q 39 436 39 496 q 93 328 39 367 q 294 254 147 290 q 402 214 374 235 q 431 158 431 193 q 403 106 431 125 q 331 86 376 86 q 183 204 215 86 l 47 181 q 331 -37 104 -37 q 508 15 440 -37 q 575 151 575 67 q 540 256 575 217 q 428 322 506 296 l 428 346 q 547 399 504 358 q 589 501 589 440 q 535 606 589 568 q 333 678 481 643 q 226 717 256 697 q 197 771 197 736 q 225 824 197 804 q 300 844 253 844 q 447 726 414 844 l 581 751 q 300 968 525 968 q 122 917 189 968 q 56 781 56 865 q 90 672 56 714 q 206 604 125 631 l 206 586 z "},"¨":{"ha":529,"x_min":50,"x_max":482,"o":"m 354 925 q 390 958 365 949 q 439 956 414 967 q 472 919 463 944 q 469 871 481 894 q 433 838 458 847 q 383 839 408 828 q 352 876 361 851 q 354 925 343 901 m 61 925 q 98 958 74 949 q 146 956 122 967 q 179 919 169 944 q 178 871 189 894 q 140 838 165 847 q 92 839 115 828 q 59 876 68 851 q 61 925 50 901 z "},"©":{"ha":1001,"x_min":39,"x_max":964,"o":"m 744 538 l 631 517 q 503 628 599 628 q 404 583 439 628 q 369 453 369 538 q 404 320 369 367 q 503 274 439 274 q 588 307 553 274 q 633 401 624 340 l 750 381 q 662 221 729 278 q 503 164 594 164 q 317 240 386 164 q 247 453 247 317 q 317 664 247 589 q 503 739 386 739 q 652 687 588 739 q 744 538 717 635 m 133 450 q 185 237 133 328 q 320 101 238 146 q 501 57 403 57 q 681 101 599 57 q 817 238 764 146 q 869 450 869 329 q 817 662 869 571 q 681 797 764 753 q 501 842 599 842 q 320 797 403 842 q 185 662 238 753 q 133 450 133 571 m 39 450 q 78 655 39 563 q 181 807 117 747 q 328 899 246 867 q 500 931 411 931 q 666 898 585 931 q 814 807 747 865 q 922 655 881 749 q 964 450 964 561 q 925 244 964 338 q 821 92 886 151 q 673 -1 756 32 q 501 -33 590 -33 q 328 -1 411 -33 q 181 92 246 32 q 78 244 117 151 q 39 450 39 338 z "},"ª":{"ha":489,"x_min":31,"x_max":463,"o":"m 31 428 l 463 428 l 463 336 l 31 336 l 31 428 m 161 619 q 226 578 161 578 q 303 599 274 578 q 332 656 332 621 l 349 656 q 306 531 349 579 q 196 482 263 482 q 94 517 133 482 q 56 607 56 551 q 89 691 56 658 q 182 731 122 724 l 332 749 l 332 674 l 217 664 q 161 619 161 657 m 436 503 l 332 503 l 360 599 l 332 608 l 332 760 q 307 808 332 789 q 243 826 282 826 q 179 808 204 826 q 150 758 154 789 l 56 779 q 117 885 67 846 q 243 924 168 924 q 381 879 325 924 q 436 767 436 835 l 436 503 z "},"«":{"ha":743,"x_min":47,"x_max":697,"o":"m 517 347 l 697 239 l 697 111 l 385 290 l 385 447 l 697 617 l 697 489 l 517 392 l 456 378 l 456 360 l 517 347 m 178 347 l 360 239 l 360 111 l 47 290 l 47 447 l 360 617 l 360 489 l 178 392 l 117 378 l 117 360 l 178 347 z "},"¬":{"ha":525,"x_min":47,"x_max":481,"o":"m 390 394 l 47 394 l 47 486 l 481 486 l 481 261 l 390 261 l 390 394 z "},"­":{"ha":400,"x_min":22,"x_max":381,"o":"m 22 435 l 381 435 l 381 343 l 22 343 l 22 435 z "},"®":{"ha":988,"x_min":32,"x_max":957,"o":"m 33 450 q 72 655 33 563 q 174 807 110 747 q 322 899 239 867 q 494 931 404 931 q 659 898 578 931 q 807 807 740 865 q 915 655 874 749 q 956 450 956 561 q 917 244 956 338 q 814 92 879 151 q 666 -1 749 32 q 494 -33 583 -33 q 322 -1 404 -33 q 174 92 239 32 q 72 244 110 151 q 33 450 33 338 m 128 450 q 179 237 128 328 q 313 101 231 146 q 494 57 396 57 q 674 101 592 57 q 809 238 757 146 q 861 450 861 329 q 809 662 861 571 q 674 797 757 753 q 494 842 592 842 q 313 797 396 842 q 179 662 231 753 q 128 450 128 571 m 419 482 l 510 482 q 596 550 596 482 q 510 624 596 624 l 419 624 l 419 482 m 300 194 l 300 728 l 525 728 q 664 677 611 728 q 717 553 717 626 q 684 447 717 489 q 593 399 651 406 l 717 194 l 586 194 l 483 385 l 419 385 l 419 194 l 300 194 z "},"¯":{"ha":475,"x_min":22,"x_max":456,"o":"m 22 908 l 456 908 l 456 803 l 22 803 l 22 908 z "},"°":{"ha":378,"x_min":21,"x_max":358,"o":"m 135 801 q 147 789 135 801 q 191 776 158 776 q 247 801 224 776 q 269 857 269 825 q 247 913 269 889 q 191 938 224 938 q 135 913 158 938 q 111 857 111 889 q 135 801 111 825 m 22 857 q 72 976 22 926 q 191 1025 122 1025 q 309 976 260 1025 q 358 857 358 926 q 310 738 358 785 q 191 690 263 690 q 71 738 119 690 q 22 857 22 786 z "},"±":{"ha":531,"x_min":21,"x_max":511,"o":"m 325 442 l 511 442 l 511 322 l 325 322 l 325 138 l 206 138 l 206 322 l 22 322 l 22 442 l 206 442 l 206 625 l 325 625 l 325 442 m 22 53 l 511 53 l 511 -67 l 22 -67 l 22 53 z "},"²":{"ha":426,"x_min":15,"x_max":414,"o":"m 100 750 l 164 758 l 256 789 q 363 846 322 807 q 404 931 404 885 q 352 1037 404 996 q 217 1078 300 1078 q 15 925 44 1078 l 111 907 q 215 988 132 988 q 274 972 251 988 q 296 929 296 956 q 192 856 296 881 l 15 817 l 15 647 l 414 647 l 414 739 l 101 736 l 100 750 z "},"³":{"ha":426,"x_min":15,"x_max":414,"o":"m 319 857 q 388 889 363 863 q 414 954 414 915 q 361 1041 414 1008 q 222 1074 308 1074 q 15 939 47 1074 l 111 918 q 219 985 132 985 q 282 971 258 985 q 306 932 306 957 q 290 904 306 915 q 249 893 275 893 l 174 893 l 174 815 l 249 815 q 290 803 274 815 q 306 775 306 792 q 225 725 306 725 q 111 801 132 725 l 15 781 q 225 636 47 636 q 362 667 310 636 q 414 753 414 699 q 388 817 414 790 q 319 850 363 844 l 319 857 z "},"´":{"ha":328,"x_min":33,"x_max":296,"o":"m 294 968 l 128 736 l 33 736 l 161 968 l 294 968 z "},"µ":{"ha":692,"x_min":61,"x_max":633,"o":"m 203 -14 l 203 -269 l 61 -269 l 61 639 l 203 639 l 203 243 q 244 132 203 175 q 347 89 285 89 q 451 131 413 89 q 490 240 490 172 l 490 639 l 633 639 l 633 0 l 490 0 l 531 167 l 507 175 q 454 33 496 85 q 351 -19 413 -19 q 243 33 289 -19 q 183 174 197 86 l 161 165 l 203 -14 z "},"¶":{"ha":528,"x_min":38,"x_max":464,"o":"m 397 908 l 464 908 l 464 0 l 397 0 l 397 908 m 336 0 l 269 0 l 269 511 l 260 511 q 99 565 160 511 q 38 707 38 618 q 100 852 38 796 q 260 908 163 908 l 336 908 l 336 0 z "},"·":{"ha":225,"x_min":53,"x_max":217,"o":"m 76 437 q 65 448 76 437 q 53 494 53 460 q 76 553 53 529 q 135 576 100 576 q 193 553 169 576 q 217 494 217 529 q 193 437 217 460 q 135 414 169 414 q 76 437 100 414 z "},"¸":{"ha":301,"x_min":38,"x_max":268,"o":"m 90 10 l 58 -162 l 119 -172 l 133 -103 l 118 -93 l 156 10 l 90 10 m 38 -210 q 153 -300 65 -300 q 237 -264 206 -300 q 268 -168 268 -228 q 245 -86 268 -118 q 188 -54 222 -54 q 135 -82 157 -54 q 107 -157 113 -110 q 119 -172 119 -157 q 163 -112 128 -112 q 206 -171 206 -112 q 149 -242 206 -242 q 92 -196 104 -242 l 38 -210 z "},"¹":{"ha":426,"x_min":22,"x_max":360,"o":"m 81 740 l 360 740 l 360 643 l 81 643 l 81 740 m 22 972 l 161 1001 l 172 1068 l 201 910 l 22 879 l 22 972 m 278 657 l 172 657 l 172 1068 l 278 1068 l 278 657 z "},"º":{"ha":489,"x_min":31,"x_max":463,"o":"m 31 428 l 463 428 l 463 336 l 31 336 l 31 428 m 144 706 q 171 610 144 643 q 246 576 197 576 q 322 610 294 576 q 349 706 349 643 q 322 798 349 765 q 246 831 294 831 q 171 798 197 831 q 144 706 144 765 m 39 706 q 94 867 39 810 q 246 924 150 924 q 394 866 335 924 q 453 706 453 808 q 397 541 453 600 q 246 482 340 482 q 95 541 151 482 q 39 706 39 600 z "},"»":{"ha":743,"x_min":47,"x_max":697,"o":"m 231 381 l 47 489 l 47 617 l 360 436 l 360 281 l 47 111 l 47 239 l 231 336 l 290 350 l 290 367 l 231 381 m 567 381 l 385 489 l 385 617 l 697 436 l 697 281 l 385 111 l 385 239 l 567 336 l 628 350 l 628 367 l 567 381 z "},"¼":{"ha":976,"x_min":39,"x_max":938,"o":"m 749 381 l 665 219 l 636 189 l 636 178 l 774 178 l 774 419 l 881 419 l 881 178 l 938 178 l 938 86 l 881 86 l 881 -7 l 774 -7 l 774 86 l 539 86 l 539 208 l 658 426 l 749 381 m 39 822 l 179 851 l 189 918 l 296 918 l 296 590 l 378 590 l 378 493 l 97 493 l 97 590 l 189 590 l 189 754 l 39 729 l 39 822 m 733 908 l 892 908 l 233 0 l 72 0 l 733 908 z "},"½":{"ha":976,"x_min":39,"x_max":939,"o":"m 624 96 l 625 83 l 939 85 l 939 -7 l 539 -7 l 539 164 l 715 201 q 819 275 819 228 q 797 317 819 301 q 739 333 775 333 q 636 253 656 333 l 539 272 q 740 424 568 424 q 876 383 824 424 q 928 278 928 343 q 888 192 928 232 q 781 135 847 153 l 688 106 l 624 96 m 39 822 l 179 851 l 189 918 l 296 918 l 296 590 l 378 590 l 378 493 l 97 493 l 97 590 l 189 590 l 189 754 l 39 729 l 39 822 m 733 908 l 892 908 l 233 0 l 72 0 l 733 908 z "},"¾":{"ha":981,"x_min":35,"x_max":938,"o":"m 749 381 l 665 219 l 636 189 l 636 178 l 774 178 l 774 419 l 881 419 l 881 178 l 938 178 l 938 86 l 881 86 l 881 -7 l 774 -7 l 774 86 l 539 86 l 539 208 l 658 426 l 749 381 m 340 707 l 340 700 q 408 667 383 694 q 433 603 433 640 q 382 517 433 549 q 246 486 331 486 q 36 631 67 486 l 132 651 q 244 575 153 575 q 304 588 283 575 q 325 625 325 601 q 309 653 325 642 q 269 665 293 665 l 194 665 l 194 743 l 269 743 q 310 754 294 743 q 325 782 325 765 q 302 821 325 807 q 240 835 279 835 q 132 768 153 835 l 36 789 q 242 924 67 924 q 381 891 328 924 q 433 803 433 858 q 408 739 433 765 q 340 707 383 713 m 738 908 l 897 908 l 238 0 l 78 0 l 738 908 z "},"¿":{"ha":601,"x_min":38,"x_max":565,"o":"m 239 556 q 222 435 239 479 q 169 361 206 390 q 142 338 165 357 q 110 310 118 318 q 83 279 101 301 q 58 237 65 257 q 44 184 51 217 q 38 114 38 151 q 108 -72 38 0 q 297 -144 178 -144 q 478 -79 410 -144 q 564 110 547 -14 l 433 138 q 300 -18 413 -18 q 213 18 244 -17 q 181 108 181 53 q 186 169 181 142 q 206 218 192 196 q 227 251 219 240 q 255 282 235 263 q 278 306 275 301 q 350 556 350 376 l 239 556 m 348 779 q 359 767 348 779 q 371 721 371 756 q 347 663 371 686 q 289 639 324 639 q 232 663 256 639 q 208 721 208 686 q 231 779 208 756 q 290 803 254 803 q 348 779 325 803 z "},"À":{"ha":883,"x_min":21,"x_max":863,"o":"m 260 1217 l 393 1217 l 521 985 l 428 985 l 260 1217 m 228 375 l 660 375 l 660 242 l 228 242 l 228 375 m 417 715 l 175 0 l 21 0 l 331 908 l 550 908 l 863 0 l 711 0 l 465 715 l 450 792 l 432 792 l 417 715 z "},"Á":{"ha":883,"x_min":21,"x_max":863,"o":"m 626 1217 l 458 985 l 365 985 l 493 1217 l 626 1217 m 228 375 l 660 375 l 660 242 l 228 242 l 228 375 m 417 715 l 175 0 l 21 0 l 331 908 l 550 908 l 863 0 l 711 0 l 465 715 l 450 792 l 432 792 l 417 715 z "},"Â":{"ha":883,"x_min":21,"x_max":863,"o":"m 422 1097 l 328 983 l 206 983 l 364 1172 l 522 1172 l 681 983 l 558 983 l 464 1097 l 451 1126 l 435 1126 l 422 1097 m 228 375 l 660 375 l 660 242 l 228 242 l 228 375 m 417 715 l 175 0 l 21 0 l 331 908 l 550 908 l 863 0 l 711 0 l 465 715 l 450 792 l 432 792 l 417 715 z "},"Ã":{"ha":883,"x_min":21,"x_max":863,"o":"m 578 1149 q 540 1058 578 1058 q 508 1067 524 1058 q 488 1083 493 1076 q 465 1108 482 1089 q 440 1135 451 1125 q 408 1153 429 1144 q 360 1163 386 1163 q 264 1120 297 1163 q 231 997 231 1078 l 313 986 q 357 1082 313 1082 q 376 1079 367 1082 q 394 1069 385 1076 q 408 1057 403 1063 q 423 1040 413 1051 q 438 1024 433 1028 q 542 976 483 976 q 661 1139 661 976 l 578 1149 m 228 375 l 660 375 l 660 242 l 228 242 l 228 375 m 417 715 l 175 0 l 21 0 l 331 908 l 550 908 l 863 0 l 711 0 l 465 715 l 450 792 l 432 792 l 417 715 z "},"Ä":{"ha":883,"x_min":21,"x_max":863,"o":"m 517 1017 q 505 1030 517 1017 q 493 1075 493 1042 q 517 1132 493 1108 q 574 1156 540 1156 q 631 1132 607 1156 q 654 1075 654 1108 q 631 1017 654 1042 q 574 993 607 993 q 517 1017 540 993 m 246 1017 q 234 1030 246 1017 q 222 1075 222 1042 q 246 1132 222 1108 q 303 1156 269 1156 q 360 1132 336 1156 q 383 1075 383 1108 q 360 1017 383 1042 q 303 993 336 993 q 246 1017 269 993 m 228 375 l 660 375 l 660 242 l 228 242 l 228 375 m 417 715 l 175 0 l 21 0 l 331 908 l 550 908 l 863 0 l 711 0 l 465 715 l 450 792 l 432 792 l 417 715 z "},"Å":{"ha":883,"x_min":21,"x_max":863,"o":"m 403 1089 q 412 1080 403 1089 q 443 1071 421 1071 q 482 1088 465 1071 q 499 1129 499 1106 q 482 1169 499 1151 q 443 1186 465 1186 q 403 1169 421 1186 q 386 1129 386 1151 q 403 1089 386 1107 m 340 1026 q 318 1047 340 1026 q 297 1129 297 1068 q 340 1232 297 1190 q 443 1274 382 1274 q 546 1232 504 1274 q 588 1129 588 1190 q 546 1026 588 1068 q 443 985 504 985 q 340 1026 382 985 m 228 375 l 660 375 l 660 242 l 228 242 l 228 375 m 417 715 l 175 0 l 21 0 l 331 908 l 550 908 l 863 0 l 711 0 l 465 715 l 450 792 l 432 792 l 417 715 z "},"Æ":{"ha":1100,"x_min":21,"x_max":1067,"o":"m 522 908 l 1067 908 l 1067 775 l 664 775 l 664 521 l 1067 521 l 1067 386 l 664 386 l 664 135 l 1067 135 l 1067 0 l 522 0 l 522 908 m 239 396 l 642 396 l 642 263 l 208 263 l 239 396 m 486 746 l 178 0 l 22 0 l 392 908 l 522 908 l 522 807 l 503 807 l 486 746 z "},"Ç":{"ha":833,"x_min":39,"x_max":794,"o":"m 332 -211 l 414 -190 q 464 -229 425 -229 q 506 -172 506 -229 q 472 -128 506 -128 q 433 -174 447 -128 l 353 -157 l 385 8 l 471 8 l 425 -90 l 440 -99 q 504 -56 465 -56 q 565 -87 542 -56 q 589 -169 589 -119 q 556 -271 589 -233 q 468 -308 524 -308 q 332 -211 365 -308 m 790 617 l 653 589 q 429 793 599 793 q 247 703 313 793 q 182 450 182 614 q 247 201 182 289 q 429 113 313 113 q 578 172 517 113 q 656 338 639 231 l 794 308 q 667 61 765 149 q 429 -26 568 -26 q 144 99 250 -26 q 39 450 39 225 q 144 804 39 678 q 429 931 250 931 q 651 849 554 931 q 790 617 747 767 z "},"È":{"ha":742,"x_min":61,"x_max":707,"o":"m 218 1217 l 351 1217 l 479 985 l 386 985 l 218 1217 m 61 908 l 707 908 l 707 775 l 203 775 l 203 521 l 686 521 l 686 386 l 203 386 l 203 135 l 707 135 l 707 0 l 61 0 l 61 908 z "},"É":{"ha":742,"x_min":61,"x_max":707,"o":"m 585 1217 l 417 985 l 324 985 l 451 1217 l 585 1217 m 61 908 l 707 908 l 707 775 l 203 775 l 203 521 l 686 521 l 686 386 l 203 386 l 203 135 l 707 135 l 707 0 l 61 0 l 61 908 z "},"Ê":{"ha":742,"x_min":61,"x_max":707,"o":"m 379 1097 l 285 983 l 163 983 l 321 1172 l 479 1172 l 638 983 l 515 983 l 421 1097 l 408 1126 l 392 1126 l 379 1097 m 61 908 l 707 908 l 707 775 l 203 775 l 203 521 l 686 521 l 686 386 l 203 386 l 203 135 l 707 135 l 707 0 l 61 0 l 61 908 z "},"Ë":{"ha":742,"x_min":61,"x_max":707,"o":"m 474 1017 q 462 1030 474 1017 q 450 1075 450 1042 q 474 1132 450 1108 q 531 1156 497 1156 q 588 1132 564 1156 q 611 1075 611 1108 q 588 1017 611 1042 q 531 993 564 993 q 474 1017 497 993 m 203 1017 q 191 1030 203 1017 q 179 1075 179 1042 q 203 1132 179 1108 q 260 1156 226 1156 q 317 1132 293 1156 q 340 1075 340 1108 q 317 1017 340 1042 q 260 993 293 993 q 203 1017 226 993 m 61 908 l 707 908 l 707 775 l 203 775 l 203 521 l 686 521 l 686 386 l 203 386 l 203 135 l 707 135 l 707 0 l 61 0 l 61 908 z "},"Ì":{"ha":264,"x_min":-50,"x_max":211,"o":"m -50 1217 l 83 1217 l 211 985 l 118 985 l -50 1217 m 61 908 l 203 908 l 203 0 l 61 0 l 61 908 z "},"Í":{"ha":264,"x_min":56,"x_max":317,"o":"m 317 1217 l 149 985 l 56 985 l 183 1217 l 317 1217 m 61 908 l 203 908 l 203 0 l 61 0 l 61 908 z "},"Î":{"ha":264,"x_min":-104,"x_max":371,"o":"m 113 1097 l 18 983 l -104 983 l 54 1172 l 213 1172 l 371 983 l 249 983 l 154 1097 l 142 1126 l 125 1126 l 113 1097 m 61 908 l 203 908 l 203 0 l 61 0 l 61 908 z "},"Ï":{"ha":264,"x_min":-87,"x_max":344,"o":"m 207 1017 q 195 1030 207 1017 q 183 1075 183 1042 q 207 1132 183 1108 q 264 1156 231 1156 q 321 1132 297 1156 q 344 1075 344 1108 q 321 1017 344 1042 q 264 993 297 993 q 207 1017 231 993 m -64 1017 q -76 1030 -64 1017 q -87 1075 -87 1042 q -64 1132 -87 1108 q -7 1156 -40 1156 q 50 1132 26 1156 q 74 1075 74 1108 q 50 1017 74 1042 q -7 993 26 993 q -64 1017 -40 993 m 61 908 l 203 908 l 203 0 l 61 0 l 61 908 z "},"Ð":{"ha":783,"x_min":-15,"x_max":744,"o":"m -15 514 l 432 514 l 432 393 l -15 393 l -15 514 m 61 0 l 61 908 l 375 908 q 642 781 539 908 q 744 450 744 653 q 642 124 744 249 q 375 0 540 0 l 61 0 m 203 136 l 360 136 q 540 219 476 136 q 603 457 603 303 q 540 692 603 610 q 360 775 476 775 l 203 775 l 203 136 z "},"Ñ":{"ha":842,"x_min":61,"x_max":781,"o":"m 565 1149 q 528 1058 565 1058 q 496 1067 511 1058 q 475 1083 481 1076 q 453 1108 469 1089 q 428 1135 439 1125 q 395 1153 417 1144 q 347 1163 374 1163 q 251 1120 285 1163 q 218 997 218 1078 l 300 986 q 344 1082 300 1082 q 363 1079 354 1082 q 381 1069 372 1076 q 395 1057 390 1063 q 410 1040 400 1051 q 425 1024 421 1028 q 529 976 471 976 q 649 1139 649 976 l 565 1149 m 638 908 l 781 908 l 781 0 l 593 0 l 203 706 l 203 0 l 61 0 l 61 908 l 247 908 l 638 206 l 638 908 z "},"Ò":{"ha":849,"x_min":39,"x_max":810,"o":"m 240 1217 l 374 1217 l 501 985 l 408 985 l 240 1217 m 247 708 q 214 663 247 708 q 182 454 182 617 q 247 202 182 292 q 425 113 311 113 q 603 202 539 113 q 667 454 667 292 q 603 708 667 617 q 425 800 539 800 q 247 708 311 800 m 143 101 q 91 164 143 101 q 39 454 39 228 q 144 809 39 681 q 425 938 249 938 q 700 807 590 938 q 810 454 810 676 q 706 101 810 228 q 425 -26 603 -26 q 143 101 247 -26 z "},"Ó":{"ha":849,"x_min":39,"x_max":810,"o":"m 607 1217 l 439 985 l 346 985 l 474 1217 l 607 1217 m 247 708 q 214 663 247 708 q 182 454 182 617 q 247 202 182 292 q 425 113 311 113 q 603 202 539 113 q 667 454 667 292 q 603 708 667 617 q 425 800 539 800 q 247 708 311 800 m 143 101 q 91 164 143 101 q 39 454 39 228 q 144 809 39 681 q 425 938 249 938 q 700 807 590 938 q 810 454 810 676 q 706 101 810 228 q 425 -26 603 -26 q 143 101 247 -26 z "},"Ô":{"ha":849,"x_min":39,"x_max":810,"o":"m 403 1097 l 308 983 l 186 983 l 344 1172 l 503 1172 l 661 983 l 539 983 l 444 1097 l 432 1126 l 415 1126 l 403 1097 m 247 708 q 214 663 247 708 q 182 454 182 617 q 247 202 182 292 q 425 113 311 113 q 603 202 539 113 q 667 454 667 292 q 603 708 667 617 q 425 800 539 800 q 247 708 311 800 m 143 101 q 91 164 143 101 q 39 454 39 228 q 144 809 39 681 q 425 938 249 938 q 700 807 590 938 q 810 454 810 676 q 706 101 810 228 q 425 -26 603 -26 q 143 101 247 -26 z "},"Õ":{"ha":849,"x_min":39,"x_max":810,"o":"m 558 1149 q 521 1058 558 1058 q 489 1067 504 1058 q 468 1083 474 1076 q 446 1108 463 1089 q 421 1135 432 1125 q 388 1153 410 1144 q 340 1163 367 1163 q 244 1120 278 1163 q 211 997 211 1078 l 293 986 q 338 1082 293 1082 q 356 1079 347 1082 q 374 1069 365 1076 q 388 1057 383 1063 q 403 1040 393 1051 q 418 1024 414 1028 q 522 976 464 976 q 642 1139 642 976 l 558 1149 m 247 708 q 214 663 247 708 q 182 454 182 617 q 247 202 182 292 q 425 113 311 113 q 603 202 539 113 q 667 454 667 292 q 603 708 667 617 q 425 800 539 800 q 247 708 311 800 m 143 101 q 91 164 143 101 q 39 454 39 228 q 144 809 39 681 q 425 938 249 938 q 700 807 590 938 q 810 454 810 676 q 706 101 810 228 q 425 -26 603 -26 q 143 101 247 -26 z "},"Ö":{"ha":849,"x_min":39,"x_max":810,"o":"m 497 1017 q 485 1030 497 1017 q 474 1075 474 1042 q 497 1132 474 1108 q 554 1156 521 1156 q 611 1132 588 1156 q 635 1075 635 1108 q 611 1017 635 1042 q 554 993 588 993 q 497 1017 521 993 m 226 1017 q 215 1030 226 1017 q 203 1075 203 1042 q 226 1132 203 1108 q 283 1156 250 1156 q 340 1132 317 1156 q 364 1075 364 1108 q 340 1017 364 1042 q 283 993 317 993 q 226 1017 250 993 m 247 708 q 214 663 247 708 q 182 454 182 617 q 247 202 182 292 q 425 113 311 113 q 603 202 539 113 q 667 454 667 292 q 603 708 667 617 q 425 800 539 800 q 247 708 311 800 m 143 101 q 91 164 143 101 q 39 454 39 228 q 144 809 39 681 q 425 938 249 938 q 700 807 590 938 q 810 454 810 676 q 706 101 810 228 q 425 -26 603 -26 q 143 101 247 -26 z "},"×":{"ha":531,"x_min":50,"x_max":481,"o":"m 265 460 l 396 596 l 481 513 l 343 381 l 481 250 l 397 167 l 267 304 l 135 167 l 50 251 l 189 382 l 50 513 l 135 596 l 265 460 z "},"Ø":{"ha":849,"x_min":39,"x_max":811,"o":"m 663 935 l 775 863 l 161 -28 l 50 44 l 663 935 m 247 703 q 215 659 247 703 q 183 452 183 614 q 247 201 183 290 q 426 113 311 113 q 603 201 540 113 q 667 452 667 290 q 603 703 667 614 q 426 793 540 793 q 247 703 311 793 m 39 453 q 144 804 39 678 q 425 931 249 931 q 701 802 592 931 q 811 453 811 674 q 707 99 811 225 q 426 -26 603 -26 q 144 99 249 -26 q 39 453 39 225 z "},"Ù":{"ha":801,"x_min":61,"x_max":740,"o":"m 222 1217 l 356 1217 l 483 985 l 390 985 l 222 1217 m 203 908 l 203 313 q 255 166 203 218 q 403 114 307 114 q 547 165 497 114 q 597 313 597 217 l 597 908 l 740 908 l 740 297 q 645 68 740 158 q 403 -22 550 -22 q 156 66 250 -22 q 61 297 61 154 l 61 908 l 203 908 z "},"Ú":{"ha":801,"x_min":61,"x_max":740,"o":"m 589 1217 l 421 985 l 328 985 l 456 1217 l 589 1217 m 203 908 l 203 313 q 255 166 203 218 q 403 114 307 114 q 547 165 497 114 q 597 313 597 217 l 597 908 l 740 908 l 740 297 q 645 68 740 158 q 403 -22 550 -22 q 156 66 250 -22 q 61 297 61 154 l 61 908 l 203 908 z "},"Û":{"ha":801,"x_min":61,"x_max":740,"o":"m 385 1097 l 290 983 l 168 983 l 326 1172 l 485 1172 l 643 983 l 521 983 l 426 1097 l 414 1126 l 397 1126 l 385 1097 m 203 908 l 203 313 q 255 166 203 218 q 403 114 307 114 q 547 165 497 114 q 597 313 597 217 l 597 908 l 740 908 l 740 297 q 645 68 740 158 q 403 -22 550 -22 q 156 66 250 -22 q 61 297 61 154 l 61 908 l 203 908 z "},"Ü":{"ha":801,"x_min":61,"x_max":740,"o":"m 479 1017 q 467 1030 479 1017 q 456 1075 456 1042 q 479 1132 456 1108 q 536 1156 503 1156 q 593 1132 569 1156 q 617 1075 617 1108 q 593 1017 617 1042 q 536 993 569 993 q 479 1017 503 993 m 208 1017 q 197 1030 208 1017 q 185 1075 185 1042 q 208 1132 185 1108 q 265 1156 232 1156 q 322 1132 299 1156 q 346 1075 346 1108 q 322 1017 346 1042 q 265 993 299 993 q 208 1017 232 993 m 203 908 l 203 313 q 255 166 203 218 q 403 114 307 114 q 547 165 497 114 q 597 313 597 217 l 597 908 l 740 908 l 740 297 q 645 68 740 158 q 403 -22 550 -22 q 156 66 250 -22 q 61 297 61 154 l 61 908 l 203 908 z "},"Ý":{"ha":850,"x_min":21,"x_max":829,"o":"m 614 1217 l 446 985 l 353 985 l 481 1217 l 614 1217 m 514 365 l 829 908 l 669 908 l 449 514 l 435 461 l 417 461 l 401 514 l 182 908 l 21 908 l 336 365 l 356 365 l 356 0 l 497 0 l 497 365 l 514 365 z "},"Þ":{"ha":754,"x_min":61,"x_max":715,"o":"m 61 908 l 203 908 l 203 738 l 404 738 q 628 660 542 738 q 715 463 715 583 q 629 267 715 342 q 404 192 543 192 l 203 192 l 203 0 l 61 0 l 61 908 m 203 603 l 203 326 l 390 326 q 525 363 478 326 q 572 465 572 399 q 525 567 572 532 q 390 603 478 603 l 203 603 z "},"ß":{"ha":725,"x_min":61,"x_max":686,"o":"m 453 0 q 622 69 557 3 q 686 242 686 135 q 637 403 686 336 q 506 485 588 471 l 506 501 q 603 572 567 514 q 639 710 639 629 q 561 900 639 829 q 353 971 483 971 q 138 889 215 971 q 61 657 61 807 l 61 0 l 203 0 l 203 672 q 243 802 203 754 q 354 850 283 850 q 458 809 419 850 q 497 694 497 768 q 474 598 497 636 q 413 560 450 560 l 315 560 l 315 425 l 413 425 q 507 382 471 425 q 543 271 543 339 q 510 168 543 206 q 422 131 478 131 l 285 131 l 285 0 l 453 0 z "},"à":{"ha":660,"x_min":39,"x_max":599,"o":"m 154 963 l 288 963 l 415 731 l 322 731 l 154 963 m 182 178 q 213 119 182 139 q 296 100 244 100 q 411 140 367 100 q 456 243 456 181 l 481 243 q 417 47 481 121 q 249 -26 353 -26 q 99 25 158 -26 q 39 157 39 76 q 83 272 39 229 q 218 340 126 314 l 456 403 l 456 306 l 267 257 q 182 178 182 235 m 599 0 l 456 0 l 497 163 l 456 181 l 456 422 q 419 507 456 475 q 324 539 383 539 q 224 502 263 539 q 179 407 186 465 l 39 428 q 131 599 54 532 q 326 665 207 665 q 523 599 447 665 q 599 438 599 533 l 599 0 z "},"á":{"ha":660,"x_min":39,"x_max":599,"o":"m 521 963 l 353 731 l 260 731 l 388 963 l 521 963 m 182 178 q 213 119 182 139 q 296 100 244 100 q 411 140 367 100 q 456 243 456 181 l 481 243 q 417 47 481 121 q 249 -26 353 -26 q 99 25 158 -26 q 39 157 39 76 q 83 272 39 229 q 218 340 126 314 l 456 403 l 456 306 l 267 257 q 182 178 182 235 m 599 0 l 456 0 l 497 163 l 456 181 l 456 422 q 419 507 456 475 q 324 539 383 539 q 224 502 263 539 q 179 407 186 465 l 39 428 q 131 599 54 532 q 326 665 207 665 q 523 599 447 665 q 599 438 599 533 l 599 0 z "},"â":{"ha":660,"x_min":39,"x_max":599,"o":"m 317 843 l 222 729 l 100 729 l 258 918 l 417 918 l 575 729 l 453 729 l 358 843 l 346 872 l 329 872 l 317 843 m 182 178 q 213 119 182 139 q 296 100 244 100 q 411 140 367 100 q 456 243 456 181 l 481 243 q 417 47 481 121 q 249 -26 353 -26 q 99 25 158 -26 q 39 157 39 76 q 83 272 39 229 q 218 340 126 314 l 456 403 l 456 306 l 267 257 q 182 178 182 235 m 599 0 l 456 0 l 497 163 l 456 181 l 456 422 q 419 507 456 475 q 324 539 383 539 q 224 502 263 539 q 179 407 186 465 l 39 428 q 131 599 54 532 q 326 665 207 665 q 523 599 447 665 q 599 438 599 533 l 599 0 z "},"ã":{"ha":660,"x_min":39,"x_max":599,"o":"m 472 894 q 435 804 472 804 q 403 813 418 804 q 382 828 388 822 q 360 854 376 835 q 335 881 346 871 q 302 899 324 890 q 254 908 281 908 q 158 866 192 908 q 125 743 125 824 l 207 732 q 251 828 207 828 q 270 825 261 828 q 288 815 279 822 q 302 803 297 808 q 317 785 307 797 q 332 769 328 774 q 436 722 378 722 q 556 885 556 722 l 472 894 m 182 178 q 213 119 182 139 q 296 100 244 100 q 411 140 367 100 q 456 243 456 181 l 481 243 q 417 47 481 121 q 249 -26 353 -26 q 99 25 158 -26 q 39 157 39 76 q 83 272 39 229 q 218 340 126 314 l 456 403 l 456 306 l 267 257 q 182 178 182 235 m 599 0 l 456 0 l 497 163 l 456 181 l 456 422 q 419 507 456 475 q 324 539 383 539 q 224 502 263 539 q 179 407 186 465 l 39 428 q 131 599 54 532 q 326 665 207 665 q 523 599 447 665 q 599 438 599 533 l 599 0 z "},"ä":{"ha":660,"x_min":39,"x_max":599,"o":"m 411 763 q 399 775 411 763 q 388 821 388 788 q 411 878 388 854 q 468 901 435 901 q 525 878 501 901 q 549 821 549 854 q 525 763 549 788 q 468 739 501 739 q 411 763 435 739 m 140 763 q 128 775 140 763 q 117 821 117 788 q 140 878 117 854 q 197 901 164 901 q 254 878 231 901 q 278 821 278 854 q 254 763 278 788 q 197 739 231 739 q 140 763 164 739 m 182 178 q 213 119 182 139 q 296 100 244 100 q 411 140 367 100 q 456 243 456 181 l 481 243 q 417 47 481 121 q 249 -26 353 -26 q 99 25 158 -26 q 39 157 39 76 q 83 272 39 229 q 218 340 126 314 l 456 403 l 456 306 l 267 257 q 182 178 182 235 m 599 0 l 456 0 l 497 163 l 456 181 l 456 422 q 419 507 456 475 q 324 539 383 539 q 224 502 263 539 q 179 407 186 465 l 39 428 q 131 599 54 532 q 326 665 207 665 q 523 599 447 665 q 599 438 599 533 l 599 0 z "},"å":{"ha":660,"x_min":39,"x_max":599,"o":"m 298 835 q 307 826 298 835 q 338 817 315 817 q 376 834 360 817 q 393 875 393 851 q 376 915 393 897 q 338 932 360 932 q 298 915 315 932 q 281 875 281 897 q 298 835 281 853 m 234 772 q 213 793 234 772 q 192 875 192 814 q 234 978 192 936 q 338 1019 276 1019 q 440 978 399 1019 q 482 875 482 936 q 440 772 482 814 q 338 731 399 731 q 234 772 276 731 m 182 178 q 213 119 182 139 q 296 100 244 100 q 411 140 367 100 q 456 243 456 181 l 481 243 q 417 47 481 121 q 249 -26 353 -26 q 99 25 158 -26 q 39 157 39 76 q 83 272 39 229 q 218 340 126 314 l 456 403 l 456 306 l 267 257 q 182 178 182 235 m 599 0 l 456 0 l 497 163 l 456 181 l 456 422 q 419 507 456 475 q 324 539 383 539 q 224 502 263 539 q 179 407 186 465 l 39 428 q 131 599 54 532 q 326 665 207 665 q 523 599 447 665 q 599 438 599 533 l 599 0 z "},"æ":{"ha":1110,"x_min":39,"x_max":1072,"o":"m 564 413 l 564 493 l 610 493 l 594 413 l 564 413 m 597 285 q 651 149 604 197 q 781 100 699 100 q 883 135 842 100 q 936 229 925 169 l 1072 207 q 971 37 1049 97 q 778 -24 893 -24 q 543 73 633 -24 q 453 325 453 169 q 491 390 453 364 q 588 415 529 415 q 649 601 588 529 q 808 672 710 672 q 999 579 926 672 q 1072 335 1072 486 l 1072 285 l 597 285 m 599 386 l 928 386 q 882 502 928 457 q 764 547 836 547 q 651 506 694 547 q 599 386 608 464 m 183 176 q 213 120 183 140 q 292 100 242 100 q 409 139 365 100 q 453 243 453 178 l 478 243 q 413 48 478 122 q 244 -26 349 -26 q 97 26 154 -26 q 39 160 39 78 q 90 276 39 231 q 247 347 140 322 l 453 396 l 453 290 l 267 250 q 183 176 183 232 m 589 165 q 453 167 453 165 l 453 422 q 415 507 453 475 q 317 539 378 539 q 224 503 261 539 q 181 407 188 468 l 39 428 q 131 601 56 536 q 319 665 207 665 q 513 601 436 665 q 589 438 589 536 l 589 165 z "},"ç":{"ha":697,"x_min":39,"x_max":663,"o":"m 256 -211 l 338 -190 q 388 -229 349 -229 q 429 -172 429 -229 q 396 -128 429 -128 q 357 -174 371 -128 l 276 -157 l 308 8 l 394 8 l 349 -90 l 364 -99 q 428 -56 389 -56 q 489 -87 465 -56 q 513 -169 513 -119 q 480 -271 513 -233 q 392 -308 447 -308 q 256 -211 289 -308 m 657 422 l 522 401 q 356 544 483 544 q 228 487 274 544 q 182 322 182 429 q 228 157 182 215 q 356 99 274 99 q 467 140 422 99 q 525 254 513 181 l 663 233 q 556 42 639 110 q 356 -26 472 -26 q 125 65 211 -26 q 39 322 39 157 q 125 577 39 486 q 356 668 211 668 q 542 604 461 668 q 657 422 622 540 z "},"è":{"ha":701,"x_min":39,"x_max":663,"o":"m 167 963 l 300 963 l 428 731 l 335 731 l 167 963 m 183 282 q 238 146 190 193 q 365 99 285 99 q 472 131 429 99 q 525 219 514 163 l 663 197 q 559 33 639 93 q 365 -26 479 -26 q 126 67 213 -26 q 39 322 39 160 q 122 576 39 483 q 350 668 206 668 q 579 575 496 668 q 663 331 663 482 l 663 282 l 183 282 m 186 382 l 518 382 q 470 499 518 453 q 350 544 422 544 q 238 502 281 544 q 186 382 196 460 z "},"é":{"ha":701,"x_min":39,"x_max":663,"o":"m 533 963 l 365 731 l 272 731 l 400 963 l 533 963 m 183 282 q 238 146 190 193 q 365 99 285 99 q 472 131 429 99 q 525 219 514 163 l 663 197 q 559 33 639 93 q 365 -26 479 -26 q 126 67 213 -26 q 39 322 39 160 q 122 576 39 483 q 350 668 206 668 q 579 575 496 668 q 663 331 663 482 l 663 282 l 183 282 m 186 382 l 518 382 q 470 499 518 453 q 350 544 422 544 q 238 502 281 544 q 186 382 196 460 z "},"ê":{"ha":701,"x_min":39,"x_max":663,"o":"m 329 843 l 235 729 l 113 729 l 271 918 l 429 918 l 588 729 l 465 729 l 371 843 l 358 872 l 342 872 l 329 843 m 183 282 q 238 146 190 193 q 365 99 285 99 q 472 131 429 99 q 525 219 514 163 l 663 197 q 559 33 639 93 q 365 -26 479 -26 q 126 67 213 -26 q 39 322 39 160 q 122 576 39 483 q 350 668 206 668 q 579 575 496 668 q 663 331 663 482 l 663 282 l 183 282 m 186 382 l 518 382 q 470 499 518 453 q 350 544 422 544 q 238 502 281 544 q 186 382 196 460 z "},"ë":{"ha":701,"x_min":39,"x_max":663,"o":"m 424 763 q 412 775 424 763 q 400 821 400 788 q 424 878 400 854 q 481 901 447 901 q 538 878 514 901 q 561 821 561 854 q 538 763 561 788 q 481 739 514 739 q 424 763 447 739 m 153 763 q 141 775 153 763 q 129 821 129 788 q 153 878 129 854 q 210 901 176 901 q 267 878 243 901 q 290 821 290 854 q 267 763 290 788 q 210 739 243 739 q 153 763 176 739 m 183 282 q 238 146 190 193 q 365 99 285 99 q 472 131 429 99 q 525 219 514 163 l 663 197 q 559 33 639 93 q 365 -26 479 -26 q 126 67 213 -26 q 39 322 39 160 q 122 576 39 483 q 350 668 206 668 q 579 575 496 668 q 663 331 663 482 l 663 282 l 183 282 m 186 382 l 518 382 q 470 499 518 453 q 350 544 422 544 q 238 502 281 544 q 186 382 196 460 z "},"ì":{"ha":258,"x_min":-51,"x_max":211,"o":"m -51 963 l 82 963 l 210 731 l 117 731 l -51 963 m 61 639 l 203 639 l 203 0 l 61 0 l 61 639 z "},"í":{"ha":258,"x_min":54,"x_max":317,"o":"m 315 963 l 147 731 l 54 731 l 182 963 l 315 963 m 61 639 l 203 639 l 203 0 l 61 0 l 61 639 z "},"î":{"ha":258,"x_min":-106,"x_max":371,"o":"m 113 843 l 18 729 l -104 729 l 54 918 l 213 918 l 371 729 l 249 729 l 154 843 l 142 872 l 125 872 l 113 843 m 61 639 l 203 639 l 203 0 l 61 0 l 61 639 z "},"ï":{"ha":258,"x_min":-89,"x_max":344,"o":"m 207 763 q 195 775 207 763 q 183 821 183 788 q 207 878 183 854 q 264 901 231 901 q 321 878 297 901 q 344 821 344 854 q 321 763 344 788 q 264 739 297 739 q 207 763 231 739 m -64 763 q -76 775 -64 763 q -87 821 -87 788 q -64 878 -87 854 q -7 901 -40 901 q 50 878 26 901 q 74 821 74 854 q 50 763 74 788 q -7 739 26 739 q -64 763 -40 739 m 61 639 l 203 639 l 203 0 l 61 0 l 61 639 z "},"ð":{"ha":699,"x_min":39,"x_max":661,"o":"m 222 735 l 606 951 l 658 861 l 275 644 l 222 735 m 247 969 q 346 938 304 953 q 433 896 388 922 q 510 838 479 869 q 572 757 542 806 q 621 647 603 708 q 650 503 639 586 q 661 318 661 419 l 517 315 q 517 429 517 390 l 550 440 l 511 563 q 481 663 499 621 q 441 732 463 704 q 383 781 419 760 q 309 816 346 803 q 208 847 272 829 l 247 969 m 517 315 q 474 431 517 383 q 353 478 432 478 q 229 429 275 478 q 183 290 183 381 q 224 149 183 200 q 336 99 264 99 q 466 159 415 99 q 517 315 517 219 m 661 318 q 566 72 661 163 q 336 -19 471 -19 q 120 64 201 -19 q 39 288 39 147 q 122 514 39 426 q 325 601 204 601 q 480 525 418 601 q 542 324 542 449 l 661 318 z "},"ñ":{"ha":694,"x_min":61,"x_max":633,"o":"m 479 894 q 442 804 479 804 q 410 813 425 804 q 389 828 394 822 q 367 854 383 835 q 342 881 353 871 q 309 899 331 890 q 261 908 288 908 q 165 866 199 908 q 132 743 132 824 l 214 732 q 258 828 214 828 q 277 825 268 828 q 295 815 286 822 q 309 803 304 808 q 324 785 314 797 q 339 769 335 774 q 443 722 385 722 q 563 885 563 722 l 479 894 m 490 399 q 451 503 490 464 q 350 543 413 543 q 244 502 286 543 q 203 396 203 461 l 181 396 q 244 588 181 510 q 411 665 308 665 q 569 592 506 665 q 633 414 633 519 l 633 0 l 490 0 l 490 399 m 61 639 l 203 639 l 164 472 l 203 458 l 203 0 l 61 0 l 61 639 z "},"ò":{"ha":701,"x_min":39,"x_max":663,"o":"m 167 963 l 300 963 l 428 731 l 335 731 l 167 963 m 182 322 q 226 156 182 214 q 350 99 271 99 q 475 157 431 99 q 519 322 519 215 q 474 487 519 429 q 350 544 429 544 q 226 487 271 544 q 182 322 182 429 m 39 322 q 123 577 39 486 q 350 668 207 668 q 574 576 485 668 q 663 322 663 483 q 578 65 663 157 q 350 -26 493 -26 q 123 65 207 -26 q 39 322 39 157 z "},"ó":{"ha":701,"x_min":39,"x_max":663,"o":"m 533 963 l 365 731 l 272 731 l 400 963 l 533 963 m 182 322 q 226 156 182 214 q 350 99 271 99 q 475 157 431 99 q 519 322 519 215 q 474 487 519 429 q 350 544 429 544 q 226 487 271 544 q 182 322 182 429 m 39 322 q 123 577 39 486 q 350 668 207 668 q 574 576 485 668 q 663 322 663 483 q 578 65 663 157 q 350 -26 493 -26 q 123 65 207 -26 q 39 322 39 157 z "},"ô":{"ha":701,"x_min":39,"x_max":663,"o":"m 329 843 l 235 729 l 113 729 l 271 918 l 429 918 l 588 729 l 465 729 l 371 843 l 358 872 l 342 872 l 329 843 m 182 322 q 226 156 182 214 q 350 99 271 99 q 475 157 431 99 q 519 322 519 215 q 474 487 519 429 q 350 544 429 544 q 226 487 271 544 q 182 322 182 429 m 39 322 q 123 577 39 486 q 350 668 207 668 q 574 576 485 668 q 663 322 663 483 q 578 65 663 157 q 350 -26 493 -26 q 123 65 207 -26 q 39 322 39 157 z "},"õ":{"ha":701,"x_min":39,"x_max":663,"o":"m 485 894 q 447 804 485 804 q 415 813 431 804 q 394 828 400 822 q 372 854 389 835 q 347 881 358 871 q 315 899 336 890 q 267 908 293 908 q 171 866 204 908 q 138 743 138 824 l 219 732 q 264 828 219 828 q 283 825 274 828 q 301 815 292 822 q 315 803 310 808 q 330 785 319 797 q 344 769 340 774 q 449 722 390 722 q 568 885 568 722 l 485 894 m 182 322 q 226 156 182 214 q 350 99 271 99 q 475 157 431 99 q 519 322 519 215 q 474 487 519 429 q 350 544 429 544 q 226 487 271 544 q 182 322 182 429 m 39 322 q 123 577 39 486 q 350 668 207 668 q 574 576 485 668 q 663 322 663 483 q 578 65 663 157 q 350 -26 493 -26 q 123 65 207 -26 q 39 322 39 157 z "},"ö":{"ha":701,"x_min":39,"x_max":663,"o":"m 424 763 q 412 775 424 763 q 400 821 400 788 q 424 878 400 854 q 481 901 447 901 q 538 878 514 901 q 561 821 561 854 q 538 763 561 788 q 481 739 514 739 q 424 763 447 739 m 153 763 q 141 775 153 763 q 129 821 129 788 q 153 878 129 854 q 210 901 176 901 q 267 878 243 901 q 290 821 290 854 q 267 763 290 788 q 210 739 243 739 q 153 763 176 739 m 182 322 q 226 156 182 214 q 350 99 271 99 q 475 157 431 99 q 519 322 519 215 q 474 487 519 429 q 350 544 429 544 q 226 487 271 544 q 182 322 182 429 m 39 322 q 123 577 39 486 q 350 668 207 668 q 574 576 485 668 q 663 322 663 483 q 578 65 663 157 q 350 -26 493 -26 q 123 65 207 -26 q 39 322 39 157 z "},"÷":{"ha":531,"x_min":21,"x_max":511,"o":"m 207 517 q 195 528 207 517 q 183 575 183 540 q 206 633 183 610 q 265 656 229 656 q 324 633 300 656 q 347 575 347 610 q 323 517 347 540 q 265 493 299 493 q 207 517 231 493 m 206 124 q 195 135 206 124 q 183 182 183 147 q 207 240 183 217 q 265 264 231 264 q 323 240 299 264 q 347 182 347 217 q 324 124 347 147 q 265 100 300 100 q 206 124 229 100 m 22 442 l 511 442 l 511 322 l 22 322 l 22 442 z "},"ø":{"ha":688,"x_min":32,"x_max":657,"o":"m 533 690 l 617 625 l 135 -49 l 53 17 l 533 690 m 175 322 q 219 156 175 214 q 344 99 264 99 q 469 157 424 99 q 514 322 514 215 q 469 487 514 429 q 344 544 424 544 q 219 487 264 544 q 175 322 175 429 m 33 322 q 117 577 33 486 q 344 668 201 668 q 567 576 478 668 q 656 322 656 483 q 572 65 656 157 q 344 -26 488 -26 q 117 65 201 -26 q 33 322 33 157 z "},"ù":{"ha":694,"x_min":61,"x_max":633,"o":"m 164 963 l 297 963 l 425 731 l 332 731 l 164 963 m 203 240 q 242 131 203 172 q 344 89 282 89 q 450 132 408 89 q 492 243 492 175 l 514 243 q 449 51 514 129 q 283 -26 385 -26 q 125 47 189 -26 q 61 225 61 119 l 61 639 l 203 639 l 203 240 m 633 0 l 492 0 l 531 167 l 492 181 l 492 639 l 633 639 l 633 0 z "},"ú":{"ha":694,"x_min":61,"x_max":633,"o":"m 531 963 l 363 731 l 269 731 l 397 963 l 531 963 m 203 240 q 242 131 203 172 q 344 89 282 89 q 450 132 408 89 q 492 243 492 175 l 514 243 q 449 51 514 129 q 283 -26 385 -26 q 125 47 189 -26 q 61 225 61 119 l 61 639 l 203 639 l 203 240 m 633 0 l 492 0 l 531 167 l 492 181 l 492 639 l 633 639 l 633 0 z "},"û":{"ha":694,"x_min":61,"x_max":633,"o":"m 326 843 l 232 729 l 110 729 l 268 918 l 426 918 l 585 729 l 463 729 l 368 843 l 356 872 l 339 872 l 326 843 m 203 240 q 242 131 203 172 q 344 89 282 89 q 450 132 408 89 q 492 243 492 175 l 514 243 q 449 51 514 129 q 283 -26 385 -26 q 125 47 189 -26 q 61 225 61 119 l 61 639 l 203 639 l 203 240 m 633 0 l 492 0 l 531 167 l 492 181 l 492 639 l 633 639 l 633 0 z "},"ü":{"ha":694,"x_min":61,"x_max":633,"o":"m 421 763 q 409 775 421 763 q 397 821 397 788 q 421 878 397 854 q 478 901 444 901 q 535 878 511 901 q 558 821 558 854 q 535 763 558 788 q 478 739 511 739 q 421 763 444 739 m 150 763 q 138 775 150 763 q 126 821 126 788 q 150 878 126 854 q 207 901 174 901 q 264 878 240 901 q 288 821 288 854 q 264 763 288 788 q 207 739 240 739 q 150 763 174 739 m 203 240 q 242 131 203 172 q 344 89 282 89 q 450 132 408 89 q 492 243 492 175 l 514 243 q 449 51 514 129 q 283 -26 385 -26 q 125 47 189 -26 q 61 225 61 119 l 61 639 l 203 639 l 203 240 m 633 0 l 492 0 l 531 167 l 492 181 l 492 639 l 633 639 l 633 0 z "},"ý":{"ha":679,"x_min":21,"x_max":658,"o":"m 521 963 l 353 731 l 260 731 l 388 963 l 521 963 m 364 208 l 504 639 l 658 639 l 386 -119 q 315 -223 363 -186 q 211 -260 268 -260 l 56 -260 l 54 -129 l 156 -129 q 209 -115 190 -129 q 239 -61 228 -100 l 256 0 l 21 639 l 174 639 l 315 208 l 331 131 l 349 131 l 364 208 z "},"þ":{"ha":735,"x_min":61,"x_max":696,"o":"m 169 321 q 236 577 169 486 q 424 668 303 668 q 619 573 542 668 q 696 317 696 478 q 622 67 696 160 q 429 -26 549 -26 q 238 65 306 -26 q 169 321 169 156 m 249 486 q 226 457 249 486 q 203 322 203 428 q 249 157 203 215 q 379 99 296 99 q 507 156 461 99 q 553 321 553 214 q 507 486 553 428 q 379 544 461 544 q 249 486 296 544 m 61 954 l 203 954 l 203 639 l 161 474 l 203 458 l 203 181 l 161 165 l 203 0 l 203 -269 l 61 -269 l 61 954 z "},"ÿ":{"ha":679,"x_min":21,"x_max":658,"o":"m 413 763 q 401 775 413 763 q 389 821 389 788 q 413 878 389 854 q 469 901 436 901 q 526 878 503 901 q 550 821 550 854 q 526 763 550 788 q 469 739 503 739 q 413 763 436 739 m 142 763 q 130 775 142 763 q 118 821 118 788 q 142 878 118 854 q 199 901 165 901 q 256 878 232 901 q 279 821 279 854 q 256 763 279 788 q 199 739 232 739 q 142 763 165 739 m 364 208 l 504 639 l 658 639 l 386 -119 q 315 -223 363 -186 q 211 -260 268 -260 l 56 -260 l 54 -129 l 156 -129 q 209 -115 190 -129 q 239 -61 228 -100 l 256 0 l 21 639 l 174 639 l 315 208 l 331 131 l 349 131 l 364 208 z "},"Ā":{"ha":883,"x_min":21,"x_max":863,"o":"m 256 1083 l 628 1083 l 628 983 l 256 983 l 256 1083 m 228 375 l 660 375 l 660 242 l 228 242 l 228 375 m 417 715 l 175 0 l 21 0 l 331 908 l 550 908 l 863 0 l 711 0 l 465 715 l 450 792 l 432 792 l 417 715 z "},"ā":{"ha":660,"x_min":39,"x_max":599,"o":"m 150 829 l 522 829 l 522 729 l 150 729 l 150 829 m 182 178 q 213 119 182 139 q 296 100 244 100 q 411 140 367 100 q 456 243 456 181 l 481 243 q 417 47 481 121 q 249 -26 353 -26 q 99 25 158 -26 q 39 157 39 76 q 83 272 39 229 q 218 340 126 314 l 456 403 l 456 306 l 267 257 q 182 178 182 235 m 599 0 l 456 0 l 497 163 l 456 181 l 456 422 q 419 507 456 475 q 324 539 383 539 q 224 502 263 539 q 179 407 186 465 l 39 428 q 131 599 54 532 q 326 665 207 665 q 523 599 447 665 q 599 438 599 533 l 599 0 z "},"Ă":{"ha":883,"x_min":21,"x_max":863,"o":"m 544 1164 q 515 1094 544 1124 q 443 1064 485 1064 q 372 1094 401 1064 q 342 1164 342 1124 l 233 1164 q 294 1034 233 1086 q 443 982 354 982 q 592 1034 532 982 q 653 1164 653 1086 l 544 1164 m 228 375 l 660 375 l 660 242 l 228 242 l 228 375 m 417 715 l 175 0 l 21 0 l 331 908 l 550 908 l 863 0 l 711 0 l 465 715 l 450 792 l 432 792 l 417 715 z "},"ă":{"ha":660,"x_min":39,"x_max":599,"o":"m 439 910 q 409 840 439 869 q 338 810 379 810 q 266 840 296 810 q 236 910 236 869 l 128 910 q 188 780 128 832 q 338 728 249 728 q 487 780 426 728 q 547 910 547 832 l 439 910 m 182 178 q 213 119 182 139 q 296 100 244 100 q 411 140 367 100 q 456 243 456 181 l 481 243 q 417 47 481 121 q 249 -26 353 -26 q 99 25 158 -26 q 39 157 39 76 q 83 272 39 229 q 218 340 126 314 l 456 403 l 456 306 l 267 257 q 182 178 182 235 m 599 0 l 456 0 l 497 163 l 456 181 l 456 422 q 419 507 456 475 q 324 539 383 539 q 224 502 263 539 q 179 407 186 465 l 39 428 q 131 599 54 532 q 326 665 207 665 q 523 599 447 665 q 599 438 599 533 l 599 0 z "},"Ą":{"ha":883,"x_min":21,"x_max":890,"o":"m 738 -82 q 707 -174 707 -118 q 757 -229 707 -229 q 806 -181 794 -229 l 889 -197 q 761 -308 857 -308 q 667 -276 703 -308 q 632 -190 632 -244 q 645 -126 632 -154 q 696 -49 658 -97 l 743 8 l 810 8 l 738 -82 m 228 375 l 660 375 l 660 242 l 228 242 l 228 375 m 417 715 l 175 0 l 21 0 l 331 908 l 550 908 l 863 0 l 711 0 l 465 715 l 450 792 l 432 792 l 417 715 z "},"ą":{"ha":660,"x_min":39,"x_max":599,"o":"m 296 -82 q 265 -174 265 -118 q 315 -229 265 -229 q 364 -181 353 -229 l 447 -197 q 319 -308 415 -308 q 226 -276 261 -308 q 190 -190 190 -244 q 203 -126 190 -154 q 254 -49 217 -97 l 301 8 l 368 8 l 296 -82 m 182 178 q 213 119 182 139 q 296 100 244 100 q 411 140 367 100 q 456 243 456 181 l 481 243 q 417 47 481 121 q 249 -26 353 -26 q 99 25 158 -26 q 39 157 39 76 q 83 272 39 229 q 218 340 126 314 l 456 403 l 456 306 l 267 257 q 182 178 182 235 m 599 0 l 456 0 l 497 163 l 456 181 l 456 422 q 419 507 456 475 q 324 539 383 539 q 224 502 263 539 q 179 407 186 465 l 39 428 q 131 599 54 532 q 326 665 207 665 q 523 599 447 665 q 599 438 599 533 l 599 0 z "},"Ć":{"ha":833,"x_min":39,"x_max":794,"o":"m 608 1217 l 440 985 l 347 985 l 475 1217 l 608 1217 m 790 617 l 653 589 q 429 793 599 793 q 247 703 313 793 q 182 450 182 614 q 247 201 182 289 q 429 113 313 113 q 578 172 517 113 q 656 338 639 231 l 794 308 q 667 61 765 149 q 429 -26 568 -26 q 144 99 250 -26 q 39 450 39 225 q 144 804 39 678 q 429 931 250 931 q 651 849 554 931 q 790 617 747 767 z "},"ć":{"ha":697,"x_min":39,"x_max":663,"o":"m 533 963 l 365 731 l 272 731 l 400 963 l 533 963 m 657 422 l 522 401 q 356 544 483 544 q 228 487 274 544 q 182 322 182 429 q 228 157 182 215 q 356 99 274 99 q 467 140 422 99 q 525 254 513 181 l 663 233 q 556 42 639 110 q 356 -26 472 -26 q 125 65 211 -26 q 39 322 39 157 q 125 577 39 486 q 356 668 211 668 q 542 604 461 668 q 657 422 622 540 z "},"Ĉ":{"ha":833,"x_min":39,"x_max":794,"o":"m 404 1097 l 310 983 l 188 983 l 346 1172 l 504 1172 l 663 983 l 540 983 l 446 1097 l 433 1126 l 417 1126 l 404 1097 m 790 617 l 653 589 q 429 793 599 793 q 247 703 313 793 q 182 450 182 614 q 247 201 182 289 q 429 113 313 113 q 578 172 517 113 q 656 338 639 231 l 794 308 q 667 61 765 149 q 429 -26 568 -26 q 144 99 250 -26 q 39 450 39 225 q 144 804 39 678 q 429 931 250 931 q 651 849 554 931 q 790 617 747 767 z "},"ĉ":{"ha":697,"x_min":39,"x_max":663,"o":"m 329 843 l 235 729 l 113 729 l 271 918 l 429 918 l 588 729 l 465 729 l 371 843 l 358 872 l 342 872 l 329 843 m 657 422 l 522 401 q 356 544 483 544 q 228 487 274 544 q 182 322 182 429 q 228 157 182 215 q 356 99 274 99 q 467 140 422 99 q 525 254 513 181 l 663 233 q 556 42 639 110 q 356 -26 472 -26 q 125 65 211 -26 q 39 322 39 157 q 125 577 39 486 q 356 668 211 668 q 542 604 461 668 q 657 422 622 540 z "},"Ċ":{"ha":833,"x_min":39,"x_max":794,"o":"m 342 1101 q 366 1158 342 1135 q 424 1182 390 1182 q 481 1158 457 1182 q 504 1101 504 1135 q 481 1044 504 1068 q 424 1019 457 1019 q 367 1044 392 1019 q 342 1101 342 1069 m 790 617 l 653 589 q 429 793 599 793 q 247 703 313 793 q 182 450 182 614 q 247 201 182 289 q 429 113 313 113 q 578 172 517 113 q 656 338 639 231 l 794 308 q 667 61 765 149 q 429 -26 568 -26 q 144 99 250 -26 q 39 450 39 225 q 144 804 39 678 q 429 931 250 931 q 651 849 554 931 q 790 617 747 767 z "},"ċ":{"ha":697,"x_min":39,"x_max":663,"o":"m 267 847 q 291 904 267 881 q 349 928 315 928 q 406 904 382 928 q 429 847 429 881 q 406 790 429 814 q 349 765 382 765 q 292 790 317 765 q 267 847 267 815 m 657 422 l 522 401 q 356 544 483 544 q 228 487 274 544 q 182 322 182 429 q 228 157 182 215 q 356 99 274 99 q 467 140 422 99 q 525 254 513 181 l 663 233 q 556 42 639 110 q 356 -26 472 -26 q 125 65 211 -26 q 39 322 39 157 q 125 577 39 486 q 356 668 211 668 q 542 604 461 668 q 657 422 622 540 z "},"Č":{"ha":833,"x_min":39,"x_max":794,"o":"m 446 1060 l 540 1172 l 663 1172 l 504 983 l 346 983 l 188 1172 l 310 1172 l 404 1060 l 417 1029 l 433 1029 l 446 1060 m 790 617 l 653 589 q 429 793 599 793 q 247 703 313 793 q 182 450 182 614 q 247 201 182 289 q 429 113 313 113 q 578 172 517 113 q 656 338 639 231 l 794 308 q 667 61 765 149 q 429 -26 568 -26 q 144 99 250 -26 q 39 450 39 225 q 144 804 39 678 q 429 931 250 931 q 651 849 554 931 q 790 617 747 767 z "},"č":{"ha":697,"x_min":39,"x_max":663,"o":"m 371 806 l 465 918 l 588 918 l 429 729 l 271 729 l 113 918 l 235 918 l 329 806 l 342 775 l 358 775 l 371 806 m 657 422 l 522 401 q 356 544 483 544 q 228 487 274 544 q 182 322 182 429 q 228 157 182 215 q 356 99 274 99 q 467 140 422 99 q 525 254 513 181 l 663 233 q 556 42 639 110 q 356 -26 472 -26 q 125 65 211 -26 q 39 322 39 157 q 125 577 39 486 q 356 668 211 668 q 542 604 461 668 q 657 422 622 540 z "},"Ď":{"ha":783,"x_min":61,"x_max":744,"o":"m 385 1060 l 479 1172 l 601 1172 l 443 983 l 285 983 l 126 1172 l 249 1172 l 343 1060 l 356 1029 l 372 1029 l 385 1060 m 61 0 l 61 908 l 375 908 q 642 781 539 908 q 744 450 744 653 q 642 124 744 249 q 375 0 540 0 l 61 0 m 203 136 l 360 136 q 540 219 476 136 q 603 457 603 303 q 540 692 603 610 q 360 775 476 775 l 203 775 l 203 136 z "},"ď":{"ha":738,"x_min":39,"x_max":886,"o":"m 758 967 l 886 967 l 808 719 l 749 719 l 758 967 m 482 156 q 504 185 482 156 q 526 321 526 214 q 482 486 526 428 q 357 544 438 544 q 228 487 274 544 q 182 321 182 429 q 228 156 182 214 q 357 99 274 99 q 482 156 438 99 m 494 578 q 526 533 494 578 q 558 321 558 488 q 492 64 558 154 q 307 -26 426 -26 q 113 66 188 -26 q 39 317 39 158 q 118 575 39 482 q 314 668 197 668 q 494 578 429 668 m 676 954 l 676 0 l 526 0 l 567 165 l 526 181 l 526 458 l 569 474 l 526 639 l 526 954 l 676 954 z "},"Đ":{"ha":783,"x_min":-15,"x_max":744,"o":"m -15 514 l 432 514 l 432 393 l -15 393 l -15 514 m 61 0 l 61 908 l 375 908 q 642 781 539 908 q 744 450 744 653 q 642 124 744 249 q 375 0 540 0 l 61 0 m 203 136 l 360 136 q 540 219 476 136 q 603 457 603 303 q 540 692 603 610 q 360 775 476 775 l 203 775 l 203 136 z "},"đ":{"ha":735,"x_min":39,"x_max":756,"o":"m 322 875 l 322 754 l 756 754 l 756 875 l 322 875 m 483 486 q 505 457 483 486 q 528 321 528 428 q 483 156 528 214 q 358 99 438 99 q 229 156 275 99 q 183 322 183 214 q 229 487 183 429 q 358 544 275 544 q 483 486 438 544 m 558 321 q 494 578 558 488 q 314 668 429 668 q 118 575 197 668 q 39 317 39 482 q 114 66 39 158 q 308 -26 189 -26 q 492 64 426 -26 q 558 321 558 154 m 678 954 l 528 954 l 528 639 l 569 474 l 528 458 l 528 181 l 567 165 l 528 0 l 678 0 l 678 954 z "},"Ē":{"ha":742,"x_min":61,"x_max":707,"o":"m 213 1083 l 585 1083 l 585 983 l 213 983 l 213 1083 m 61 908 l 707 908 l 707 775 l 203 775 l 203 521 l 686 521 l 686 386 l 203 386 l 203 135 l 707 135 l 707 0 l 61 0 l 61 908 z "},"ē":{"ha":701,"x_min":39,"x_max":663,"o":"m 163 829 l 535 829 l 535 729 l 163 729 l 163 829 m 183 282 q 238 146 190 193 q 365 99 285 99 q 472 131 429 99 q 525 219 514 163 l 663 197 q 559 33 639 93 q 365 -26 479 -26 q 126 67 213 -26 q 39 322 39 160 q 122 576 39 483 q 350 668 206 668 q 579 575 496 668 q 663 331 663 482 l 663 282 l 183 282 m 186 382 l 518 382 q 470 499 518 453 q 350 544 422 544 q 238 502 281 544 q 186 382 196 460 z "},"Ĕ":{"ha":742,"x_min":61,"x_max":707,"o":"m 501 1164 q 472 1094 501 1124 q 400 1064 442 1064 q 328 1094 358 1064 q 299 1164 299 1124 l 190 1164 q 251 1034 190 1086 q 400 982 311 982 q 549 1034 489 982 q 610 1164 610 1086 l 501 1164 m 61 908 l 707 908 l 707 775 l 203 775 l 203 521 l 686 521 l 686 386 l 203 386 l 203 135 l 707 135 l 707 0 l 61 0 l 61 908 z "},"ĕ":{"ha":701,"x_min":39,"x_max":663,"o":"m 451 910 q 422 840 451 869 q 350 810 392 810 q 278 840 308 810 q 249 910 249 869 l 140 910 q 201 780 140 832 q 350 728 261 728 q 499 780 439 728 q 560 910 560 832 l 451 910 m 183 282 q 238 146 190 193 q 365 99 285 99 q 472 131 429 99 q 525 219 514 163 l 663 197 q 559 33 639 93 q 365 -26 479 -26 q 126 67 213 -26 q 39 322 39 160 q 122 576 39 483 q 350 668 206 668 q 579 575 496 668 q 663 331 663 482 l 663 282 l 183 282 m 186 382 l 518 382 q 470 499 518 453 q 350 544 422 544 q 238 502 281 544 q 186 382 196 460 z "},"Ė":{"ha":742,"x_min":61,"x_max":707,"o":"m 318 1101 q 342 1158 318 1135 q 400 1182 367 1182 q 457 1158 433 1182 q 481 1101 481 1135 q 457 1044 481 1068 q 400 1019 433 1019 q 343 1044 368 1019 q 318 1101 318 1069 m 61 908 l 707 908 l 707 775 l 203 775 l 203 521 l 686 521 l 686 386 l 203 386 l 203 135 l 707 135 l 707 0 l 61 0 l 61 908 z "},"ė":{"ha":701,"x_min":39,"x_max":663,"o":"m 267 847 q 291 904 267 881 q 349 928 315 928 q 406 904 382 928 q 429 847 429 881 q 406 790 429 814 q 349 765 382 765 q 292 790 317 765 q 267 847 267 815 m 183 282 q 238 146 190 193 q 365 99 285 99 q 472 131 429 99 q 525 219 514 163 l 663 197 q 559 33 639 93 q 365 -26 479 -26 q 126 67 213 -26 q 39 322 39 160 q 122 576 39 483 q 350 668 206 668 q 579 575 496 668 q 663 331 663 482 l 663 282 l 183 282 m 186 382 l 518 382 q 470 499 518 453 q 350 544 422 544 q 238 502 281 544 q 186 382 196 460 z "},"Ę":{"ha":742,"x_min":61,"x_max":707,"o":"m 371 -82 q 340 -174 340 -118 q 390 -229 340 -229 q 439 -181 428 -229 l 522 -197 q 394 -308 490 -308 q 301 -276 336 -308 q 265 -190 265 -244 q 278 -126 265 -154 q 329 -49 292 -97 l 376 8 l 443 8 l 371 -82 m 61 908 l 707 908 l 707 775 l 203 775 l 203 521 l 686 521 l 686 386 l 203 386 l 203 135 l 707 135 l 707 0 l 61 0 l 61 908 z "},"ę":{"ha":701,"x_min":39,"x_max":663,"o":"m 333 -82 q 303 -174 303 -118 q 353 -229 303 -229 q 401 -181 390 -229 l 485 -197 q 357 -308 453 -308 q 263 -276 299 -308 q 228 -190 228 -244 q 241 -126 228 -154 q 292 -49 254 -97 l 339 8 l 406 8 l 333 -82 m 183 282 q 238 146 190 193 q 365 99 285 99 q 472 131 429 99 q 525 219 514 163 l 663 197 q 559 33 639 93 q 365 -26 479 -26 q 126 67 213 -26 q 39 322 39 160 q 122 576 39 483 q 350 668 206 668 q 579 575 496 668 q 663 331 663 482 l 663 282 l 183 282 m 186 382 l 518 382 q 470 499 518 453 q 350 544 422 544 q 238 502 281 544 q 186 382 196 460 z "},"Ě":{"ha":742,"x_min":61,"x_max":707,"o":"m 421 1060 l 515 1172 l 638 1172 l 479 983 l 321 983 l 163 1172 l 285 1172 l 379 1060 l 392 1029 l 408 1029 l 421 1060 m 61 908 l 707 908 l 707 775 l 203 775 l 203 521 l 686 521 l 686 386 l 203 386 l 203 135 l 707 135 l 707 0 l 61 0 l 61 908 z "},"ě":{"ha":701,"x_min":39,"x_max":663,"o":"m 371 806 l 465 918 l 588 918 l 429 729 l 271 729 l 113 918 l 235 918 l 329 806 l 342 775 l 358 775 l 371 806 m 183 282 q 238 146 190 193 q 365 99 285 99 q 472 131 429 99 q 525 219 514 163 l 663 197 q 559 33 639 93 q 365 -26 479 -26 q 126 67 213 -26 q 39 322 39 160 q 122 576 39 483 q 350 668 206 668 q 579 575 496 668 q 663 331 663 482 l 663 282 l 183 282 m 186 382 l 518 382 q 470 499 518 453 q 350 544 422 544 q 238 502 281 544 q 186 382 196 460 z "},"Ĝ":{"ha":833,"x_min":39,"x_max":794,"o":"m 396 1097 l 301 983 l 179 983 l 338 1172 l 496 1172 l 654 983 l 532 983 l 438 1097 l 425 1126 l 408 1126 l 396 1097 m 790 617 q 649 849 747 768 q 417 931 550 931 q 142 801 246 931 q 39 438 39 671 q 138 98 39 222 q 388 -26 238 -26 q 601 77 521 -26 q 682 335 682 181 l 653 335 q 589 173 653 233 q 426 113 525 113 q 250 202 318 113 q 182 450 182 292 q 246 703 182 614 q 424 793 310 793 q 653 589 599 793 l 790 617 m 335 468 l 335 335 l 653 335 l 653 242 l 704 224 l 653 1 l 794 1 l 794 468 l 335 468 z "},"ĝ":{"ha":626,"x_min":21,"x_max":626,"o":"m 256 938 l 161 824 l 39 824 l 197 1013 l 356 1013 l 514 824 l 392 824 l 297 938 l 285 967 l 268 967 l 256 938 m 43 442 q 115 606 43 543 q 308 668 186 668 q 512 600 435 668 q 589 419 589 532 q 522 254 589 318 q 349 190 456 190 q 233 207 326 204 l 233 232 q 94 295 144 238 q 43 442 43 353 m 186 428 q 221 337 186 369 q 317 304 256 304 q 413 337 378 304 q 447 428 447 369 q 413 516 447 485 q 317 547 379 547 q 220 516 254 547 q 186 428 186 485 m 517 688 q 471 654 471 688 q 497 608 471 639 l 424 633 l 439 663 q 397 729 397 692 q 427 783 397 764 q 511 803 457 803 l 626 803 l 626 688 l 517 688 m 21 -132 q 79 -24 21 -64 q 238 17 138 17 l 238 33 q 86 133 86 58 q 141 198 86 178 q 317 218 196 218 l 349 190 q 258 185 285 190 q 232 167 232 179 q 338 117 232 142 q 549 30 486 83 q 613 -104 613 -24 q 533 -258 613 -201 q 317 -314 454 -314 q 101 -265 181 -314 q 21 -132 21 -215 m 163 -96 q 204 -162 163 -137 q 319 -186 246 -186 q 430 -162 390 -186 q 469 -97 469 -139 q 444 -47 469 -65 q 332 0 418 -29 q 208 -26 254 0 q 163 -96 163 -51 z "},"Ğ":{"ha":833,"x_min":39,"x_max":794,"o":"m 518 1164 q 488 1094 518 1124 q 417 1064 458 1064 q 345 1094 375 1064 q 315 1164 315 1124 l 207 1164 q 267 1034 207 1086 q 417 982 328 982 q 566 1034 506 982 q 626 1164 626 1086 l 518 1164 m 790 617 q 649 849 747 768 q 417 931 550 931 q 142 801 246 931 q 39 438 39 671 q 138 98 39 222 q 388 -26 238 -26 q 601 77 521 -26 q 682 335 682 181 l 653 335 q 589 173 653 233 q 426 113 525 113 q 250 202 318 113 q 182 450 182 292 q 246 703 182 614 q 424 793 310 793 q 653 589 599 793 l 790 617 m 335 468 l 335 335 l 653 335 l 653 242 l 704 224 l 653 1 l 794 1 l 794 468 l 335 468 z "},"ğ":{"ha":626,"x_min":21,"x_max":626,"o":"m 378 1004 q 348 934 378 964 q 276 904 318 904 q 205 934 235 904 q 175 1004 175 964 l 67 1004 q 127 874 67 926 q 276 822 188 822 q 426 874 365 822 q 486 1004 486 926 l 378 1004 m 43 442 q 115 606 43 543 q 308 668 186 668 q 512 600 435 668 q 589 419 589 532 q 522 254 589 318 q 349 190 456 190 q 233 207 326 204 l 233 232 q 94 295 144 238 q 43 442 43 353 m 186 428 q 221 337 186 369 q 317 304 256 304 q 413 337 378 304 q 447 428 447 369 q 413 516 447 485 q 317 547 379 547 q 220 516 254 547 q 186 428 186 485 m 517 688 q 471 654 471 688 q 497 608 471 639 l 424 633 l 439 663 q 397 729 397 692 q 427 783 397 764 q 511 803 457 803 l 626 803 l 626 688 l 517 688 m 21 -132 q 79 -24 21 -64 q 238 17 138 17 l 238 33 q 86 133 86 58 q 141 198 86 178 q 317 218 196 218 l 349 190 q 258 185 285 190 q 232 167 232 179 q 338 117 232 142 q 549 30 486 83 q 613 -104 613 -24 q 533 -258 613 -201 q 317 -314 454 -314 q 101 -265 181 -314 q 21 -132 21 -215 m 163 -96 q 204 -162 163 -137 q 319 -186 246 -186 q 430 -162 390 -186 q 469 -97 469 -139 q 444 -47 469 -65 q 332 0 418 -29 q 208 -26 254 0 q 163 -96 163 -51 z "},"Ġ":{"ha":833,"x_min":39,"x_max":794,"o":"m 333 1101 q 358 1158 333 1135 q 415 1182 382 1182 q 472 1158 449 1182 q 496 1101 496 1135 q 472 1044 496 1068 q 415 1019 449 1019 q 358 1044 383 1019 q 333 1101 333 1069 m 790 617 q 649 849 747 768 q 417 931 550 931 q 142 801 246 931 q 39 438 39 671 q 138 98 39 222 q 388 -26 238 -26 q 601 77 521 -26 q 682 335 682 181 l 653 335 q 589 173 653 233 q 426 113 525 113 q 250 202 318 113 q 182 450 182 292 q 246 703 182 614 q 424 793 310 793 q 653 589 599 793 l 790 617 m 335 468 l 335 335 l 653 335 l 653 242 l 704 224 l 653 1 l 794 1 l 794 468 l 335 468 z "},"ġ":{"ha":626,"x_min":21,"x_max":626,"o":"m 193 942 q 217 999 193 975 q 275 1022 242 1022 q 332 999 308 1022 q 356 942 356 975 q 332 884 356 908 q 275 860 308 860 q 218 885 243 860 q 193 942 193 910 m 43 442 q 115 606 43 543 q 308 668 186 668 q 512 600 435 668 q 589 419 589 532 q 522 254 589 318 q 349 190 456 190 q 233 207 326 204 l 233 232 q 94 295 144 238 q 43 442 43 353 m 186 428 q 221 337 186 369 q 317 304 256 304 q 413 337 378 304 q 447 428 447 369 q 413 516 447 485 q 317 547 379 547 q 220 516 254 547 q 186 428 186 485 m 517 688 q 471 654 471 688 q 497 608 471 639 l 424 633 l 439 663 q 397 729 397 692 q 427 783 397 764 q 511 803 457 803 l 626 803 l 626 688 l 517 688 m 21 -132 q 79 -24 21 -64 q 238 17 138 17 l 238 33 q 86 133 86 58 q 141 198 86 178 q 317 218 196 218 l 349 190 q 258 185 285 190 q 232 167 232 179 q 338 117 232 142 q 549 30 486 83 q 613 -104 613 -24 q 533 -258 613 -201 q 317 -314 454 -314 q 101 -265 181 -314 q 21 -132 21 -215 m 163 -96 q 204 -162 163 -137 q 319 -186 246 -186 q 430 -162 390 -186 q 469 -97 469 -139 q 444 -47 469 -65 q 332 0 418 -29 q 208 -26 254 0 q 163 -96 163 -51 z "},"Ģ":{"ha":833,"x_min":39,"x_max":794,"o":"m 375 -209 q 363 -198 375 -209 q 351 -151 351 -186 q 375 -93 351 -117 q 433 -69 399 -69 q 492 -95 468 -69 q 515 -160 515 -121 q 470 -343 515 -287 q 351 -399 425 -399 l 336 -321 q 438 -292 400 -321 q 485 -211 476 -264 q 433 -232 465 -232 q 375 -209 399 -232 m 790 617 q 649 849 747 768 q 417 931 550 931 q 142 801 246 931 q 39 438 39 671 q 138 98 39 222 q 388 -26 238 -26 q 601 77 521 -26 q 682 335 682 181 l 653 335 q 589 173 653 233 q 426 113 525 113 q 250 202 318 113 q 182 450 182 292 q 246 703 182 614 q 424 793 310 793 q 653 589 599 793 l 790 617 m 335 468 l 335 335 l 653 335 l 653 242 l 704 224 l 653 1 l 794 1 l 794 468 l 335 468 z "},"ģ":{"ha":626,"x_min":21,"x_max":626,"o":"m 335 963 q 347 951 335 963 q 358 904 358 939 q 335 846 358 869 q 276 822 311 822 q 218 848 242 822 q 194 911 194 874 q 240 1097 194 1040 q 358 1153 285 1153 l 374 1072 q 272 1044 310 1072 q 225 964 233 1017 q 276 986 244 986 q 335 963 311 986 m 43 442 q 115 606 43 543 q 308 668 186 668 q 512 600 435 668 q 589 419 589 532 q 522 254 589 318 q 349 190 456 190 q 233 207 326 204 l 233 232 q 94 295 144 238 q 43 442 43 353 m 186 428 q 221 337 186 369 q 317 304 256 304 q 413 337 378 304 q 447 428 447 369 q 413 516 447 485 q 317 547 379 547 q 220 516 254 547 q 186 428 186 485 m 517 688 q 471 654 471 688 q 497 608 471 639 l 424 633 l 439 663 q 397 729 397 692 q 427 783 397 764 q 511 803 457 803 l 626 803 l 626 688 l 517 688 m 21 -132 q 79 -24 21 -64 q 238 17 138 17 l 238 33 q 86 133 86 58 q 141 198 86 178 q 317 218 196 218 l 349 190 q 258 185 285 190 q 232 167 232 179 q 338 117 232 142 q 549 30 486 83 q 613 -104 613 -24 q 533 -258 613 -201 q 317 -314 454 -314 q 101 -265 181 -314 q 21 -132 21 -215 m 163 -96 q 204 -162 163 -137 q 319 -186 246 -186 q 430 -162 390 -186 q 469 -97 469 -139 q 444 -47 469 -65 q 332 0 418 -29 q 208 -26 254 0 q 163 -96 163 -51 z "},"Ĥ":{"ha":814,"x_min":61,"x_max":753,"o":"m 385 1097 l 290 983 l 168 983 l 326 1172 l 485 1172 l 643 983 l 521 983 l 426 1097 l 414 1126 l 397 1126 l 385 1097 m 131 528 l 668 528 l 668 393 l 131 393 l 131 528 m 610 908 l 753 908 l 753 0 l 610 0 l 610 908 m 61 908 l 203 908 l 203 0 l 61 0 l 61 908 z "},"ĥ":{"ha":694,"x_min":-108,"x_max":633,"o":"m 110 1126 l 15 1013 l -107 1013 l 51 1201 l 210 1201 l 368 1013 l 246 1013 l 151 1126 l 139 1156 l 122 1156 l 110 1126 m 490 399 q 451 503 490 464 q 350 543 413 543 q 244 502 286 543 q 203 396 203 461 l 181 396 q 245 588 181 510 q 411 665 310 665 q 569 592 506 665 q 633 414 633 519 l 633 0 l 490 0 l 490 399 m 203 639 l 164 472 l 203 458 l 203 0 l 61 0 l 61 954 l 203 954 l 203 639 z "},"Ħ":{"ha":813,"x_min":0,"x_max":813,"o":"m 61 908 l 203 908 l 203 764 l 610 764 l 610 908 l 753 908 l 753 764 l 813 764 l 813 644 l 753 644 l 753 0 l 610 0 l 610 393 l 203 393 l 203 0 l 61 0 l 61 644 l 0 644 l 0 764 l 61 764 l 61 908 m 610 528 l 610 644 l 203 644 l 203 528 l 610 528 z "},"ħ":{"ha":692,"x_min":-42,"x_max":633,"o":"m -42 875 l 414 875 l 414 754 l -42 754 l -42 875 m 490 399 q 451 503 490 464 q 350 543 413 543 q 244 502 286 543 q 203 396 203 461 l 181 396 q 245 588 181 510 q 411 665 310 665 q 569 592 506 665 q 633 414 633 519 l 633 0 l 490 0 l 490 399 m 203 639 l 164 472 l 203 458 l 203 0 l 61 0 l 61 954 l 203 954 l 203 639 z "},"Ĩ":{"ha":264,"x_min":-79,"x_max":351,"o":"m 268 1149 q 231 1058 268 1058 q 199 1067 214 1058 q 178 1083 183 1076 q 156 1108 172 1089 q 131 1135 142 1125 q 98 1153 119 1144 q 50 1163 76 1163 q -46 1120 -12 1163 q -79 997 -79 1078 l 3 986 q 47 1082 3 1082 q 66 1079 57 1082 q 84 1069 75 1076 q 98 1057 93 1063 q 113 1040 103 1051 q 128 1024 124 1028 q 232 976 174 976 q 351 1139 351 976 l 268 1149 m 61 908 l 203 908 l 203 0 l 61 0 l 61 908 z "},"ĩ":{"ha":258,"x_min":-81,"x_max":351,"o":"m 268 894 q 231 804 268 804 q 199 813 214 804 q 178 828 183 822 q 156 854 172 835 q 131 881 142 871 q 98 899 119 890 q 50 908 76 908 q -46 866 -12 908 q -79 743 -79 824 l 3 732 q 47 828 3 828 q 66 825 57 828 q 84 815 75 822 q 98 803 93 808 q 113 785 103 797 q 128 769 124 774 q 232 722 174 722 q 351 885 351 722 l 268 894 m 61 639 l 203 639 l 203 0 l 61 0 l 61 639 z "},"Ī":{"ha":264,"x_min":-54,"x_max":318,"o":"m -54 1083 l 318 1083 l 318 983 l -54 983 l -54 1083 m 61 908 l 203 908 l 203 0 l 61 0 l 61 908 z "},"ī":{"ha":258,"x_min":-56,"x_max":318,"o":"m -54 829 l 318 829 l 318 729 l -54 729 l -54 829 m 61 639 l 203 639 l 203 0 l 61 0 l 61 639 z "},"Ĭ":{"ha":264,"x_min":-76,"x_max":343,"o":"m 235 1164 q 205 1094 235 1124 q 133 1064 175 1064 q 62 1094 92 1064 q 32 1164 32 1124 l -76 1164 q -16 1034 -76 1086 q 133 982 44 982 q 283 1034 222 982 q 343 1164 343 1086 l 235 1164 m 61 908 l 203 908 l 203 0 l 61 0 l 61 908 z "},"ĭ":{"ha":258,"x_min":-78,"x_max":343,"o":"m 235 910 q 205 840 235 869 q 133 810 175 810 q 62 840 92 810 q 32 910 32 869 l -76 910 q -16 780 -76 832 q 133 728 44 728 q 283 780 222 728 q 343 910 343 832 l 235 910 m 61 639 l 203 639 l 203 0 l 61 0 l 61 639 z "},"Į":{"ha":264,"x_min":-6,"x_max":253,"o":"m 101 -82 q 71 -174 71 -118 q 121 -229 71 -229 q 169 -181 158 -229 l 253 -197 q 125 -308 221 -308 q 31 -276 67 -308 q -4 -190 -4 -244 q 9 -126 -4 -154 q 60 -49 22 -97 l 107 8 l 174 8 l 101 -82 m 61 908 l 203 908 l 203 0 l 61 0 l 61 908 z "},"į":{"ha":260,"x_min":-8,"x_max":250,"o":"m 99 -81 q 68 -172 68 -117 q 118 -228 68 -228 q 167 -179 156 -228 l 250 -196 q 122 -307 218 -307 q 28 -275 64 -307 q -7 -189 -7 -243 q 6 -124 -7 -153 q 57 -47 19 -96 l 104 10 l 171 10 l 99 -81 m 71 750 q 58 763 71 750 q 46 810 46 775 q 71 869 46 844 q 130 894 96 894 q 189 869 164 894 q 214 810 214 844 q 189 750 214 775 q 130 725 164 725 q 71 750 96 725 m 61 639 l 203 639 l 203 0 l 61 0 l 61 639 z "},"İ":{"ha":264,"x_min":50,"x_max":213,"o":"m 50 1101 q 74 1158 50 1135 q 132 1182 99 1182 q 189 1158 165 1182 q 213 1101 213 1135 q 189 1044 213 1068 q 132 1019 165 1019 q 75 1044 100 1019 q 50 1101 50 1069 m 61 908 l 203 908 l 203 0 l 61 0 l 61 908 z "},"ı":{"ha":258,"x_min":61,"x_max":203,"o":"m 61 639 l 203 639 l 203 0 l 61 0 l 61 639 z "},"Ĳ":{"ha":808,"x_min":61,"x_max":749,"o":"m 749 908 l 749 219 q 685 47 749 115 q 517 -22 621 -22 q 349 46 413 -22 q 272 238 285 114 l 410 258 q 442 150 414 192 q 514 108 469 108 q 581 143 556 108 q 606 235 606 178 l 606 908 l 749 908 m 61 908 l 203 908 l 203 0 l 61 0 l 61 908 z "},"ĳ":{"ha":513,"x_min":46,"x_max":468,"o":"m 324 750 q 311 763 324 750 q 299 810 299 775 q 324 869 299 844 q 383 894 349 894 q 442 869 418 894 q 467 810 467 844 q 442 750 467 775 q 383 725 418 725 q 324 750 349 725 m 61 639 l 203 639 l 203 0 l 61 0 l 61 639 m 71 750 q 58 763 71 750 q 46 810 46 775 q 71 869 46 844 q 130 894 96 894 q 189 869 164 894 q 214 810 214 844 q 189 750 214 775 q 130 725 164 725 q 71 750 96 725 m 314 639 l 456 639 l 456 -47 q 394 -198 456 -142 q 231 -254 333 -254 l 172 -254 l 172 -118 l 231 -118 q 290 -90 265 -118 q 314 -18 314 -61 l 314 639 z "},"Ĵ":{"ha":704,"x_min":35,"x_max":808,"o":"m 549 1097 l 454 983 l 332 983 l 490 1172 l 649 1172 l 807 983 l 685 983 l 590 1097 l 578 1126 l 561 1126 l 549 1097 m 643 908 l 500 908 l 500 256 q 457 149 500 190 q 342 108 414 108 q 224 156 269 108 q 171 279 179 203 l 35 244 q 134 53 51 128 q 344 -22 217 -22 q 560 52 478 -22 q 643 240 643 126 l 643 908 z "},"ĵ":{"ha":260,"x_min":-108,"x_max":367,"o":"m 108 843 l 14 729 l -108 729 l 50 918 l 208 918 l 367 729 l 244 729 l 150 843 l 138 872 l 121 872 l 108 843 m 61 639 l 203 639 l 203 -47 q 142 -193 203 -139 q -22 -247 81 -247 l -81 -247 l -81 -111 l -22 -111 q 36 -84 11 -111 q 61 -18 61 -57 l 61 639 z "},"Ķ":{"ha":799,"x_min":61,"x_max":779,"o":"m 338 -209 q 326 -198 338 -209 q 314 -151 314 -186 q 338 -93 314 -117 q 396 -69 361 -69 q 454 -95 431 -69 q 478 -160 478 -121 q 433 -343 478 -287 q 314 -399 388 -399 l 299 -321 q 401 -292 363 -321 q 447 -211 439 -264 q 396 -232 428 -232 q 338 -209 361 -232 m 61 908 l 203 908 l 203 478 l 597 908 l 778 908 l 414 492 l 778 0 l 586 0 l 300 397 l 203 303 l 203 0 l 61 0 l 61 908 z "},"ķ":{"ha":678,"x_min":61,"x_max":661,"o":"m 281 -209 q 269 -198 281 -209 q 257 -151 257 -186 q 281 -93 257 -117 q 339 -69 304 -69 q 397 -95 374 -69 q 421 -160 421 -121 q 376 -343 421 -287 q 257 -399 331 -399 l 242 -321 q 344 -292 306 -321 q 390 -211 382 -264 q 339 -232 371 -232 q 281 -209 304 -232 m 61 954 l 203 954 l 203 340 l 488 639 l 661 639 l 397 344 l 661 0 l 489 0 l 294 258 l 203 165 l 203 0 l 61 0 l 61 954 z "},"ĸ":{"ha":685,"x_min":61,"x_max":661,"o":"m 61 639 l 203 639 l 203 340 l 488 639 l 661 639 l 397 344 l 661 0 l 489 0 l 294 258 l 203 165 l 203 0 l 61 0 l 61 639 z "},"Ĺ":{"ha":742,"x_min":53,"x_max":707,"o":"m 315 1217 l 147 985 l 54 985 l 182 1217 l 315 1217 m 61 908 l 203 908 l 203 135 l 707 135 l 707 0 l 61 0 l 61 908 z "},"ĺ":{"ha":264,"x_min":53,"x_max":315,"o":"m 315 1246 l 147 1014 l 54 1014 l 182 1246 l 315 1246 m 61 954 l 203 954 l 203 0 l 61 0 l 61 954 z "},"Ļ":{"ha":742,"x_min":61,"x_max":707,"o":"m 342 -209 q 330 -198 342 -209 q 318 -151 318 -186 q 342 -93 318 -117 q 400 -69 365 -69 q 458 -95 435 -69 q 482 -160 482 -121 q 437 -343 482 -287 q 318 -399 392 -399 l 303 -321 q 405 -292 367 -321 q 451 -211 443 -264 q 400 -232 432 -232 q 342 -209 365 -232 m 61 908 l 203 908 l 203 135 l 707 135 l 707 0 l 61 0 l 61 908 z "},"ļ":{"ha":264,"x_min":35,"x_max":214,"o":"m 72 -209 q 60 -198 72 -209 q 49 -151 49 -186 q 72 -93 49 -117 q 131 -69 96 -69 q 189 -95 165 -69 q 213 -160 213 -121 q 167 -343 213 -287 q 49 -399 122 -399 l 33 -321 q 135 -292 97 -321 q 182 -211 174 -264 q 131 -232 163 -232 q 72 -209 96 -232 m 61 954 l 203 954 l 203 0 l 61 0 l 61 954 z "},"Ľ":{"ha":742,"x_min":61,"x_max":707,"o":"m 290 938 l 418 938 l 340 690 l 281 690 l 290 938 m 61 908 l 203 908 l 203 135 l 707 135 l 707 0 l 61 0 l 61 908 z "},"ľ":{"ha":264,"x_min":61,"x_max":418,"o":"m 290 967 l 418 967 l 340 719 l 281 719 l 290 967 m 61 954 l 203 954 l 203 0 l 61 0 l 61 954 z "},"Ŀ":{"ha":742,"x_min":61,"x_max":707,"o":"m 346 406 q 334 418 346 406 q 322 464 322 429 q 346 522 322 499 q 404 546 369 546 q 463 522 439 546 q 486 464 486 499 q 463 406 486 429 q 404 383 439 383 q 346 406 369 383 m 61 908 l 203 908 l 203 135 l 707 135 l 707 0 l 61 0 l 61 908 z "},"ŀ":{"ha":489,"x_min":61,"x_max":481,"o":"m 340 437 q 328 448 340 437 q 317 494 317 460 q 340 553 317 529 q 399 576 364 576 q 457 553 433 576 q 481 494 481 529 q 457 437 481 460 q 399 414 433 414 q 340 437 364 414 m 61 954 l 203 954 l 203 0 l 61 0 l 61 954 z "},"Ł":{"ha":742,"x_min":-44,"x_max":707,"o":"m 61 908 l 203 908 l 203 551 l 343 601 l 388 472 l 203 407 l 203 135 l 707 135 l 707 0 l 61 0 l 61 358 l 0 335 l -44 464 l 61 503 l 61 908 z "},"ł":{"ha":283,"x_min":-50,"x_max":333,"o":"m 72 954 l 214 954 l 214 597 l 294 626 l 333 496 l 214 454 l 214 0 l 72 0 l 72 410 l -12 379 l -50 508 l 72 551 l 72 954 z "},"Ń":{"ha":842,"x_min":61,"x_max":781,"o":"m 614 1217 l 446 985 l 353 985 l 481 1217 l 614 1217 m 638 908 l 781 908 l 781 0 l 593 0 l 203 706 l 203 0 l 61 0 l 61 908 l 247 908 l 638 206 l 638 908 z "},"ń":{"ha":694,"x_min":61,"x_max":633,"o":"m 528 963 l 360 731 l 267 731 l 394 963 l 528 963 m 490 399 q 451 503 490 464 q 350 543 413 543 q 244 502 286 543 q 203 396 203 461 l 181 396 q 244 588 181 510 q 411 665 308 665 q 569 592 506 665 q 633 414 633 519 l 633 0 l 490 0 l 490 399 m 61 639 l 203 639 l 164 472 l 203 458 l 203 0 l 61 0 l 61 639 z "},"Ņ":{"ha":842,"x_min":61,"x_max":781,"o":"m 374 -209 q 362 -198 374 -209 q 350 -151 350 -186 q 374 -93 350 -117 q 432 -69 397 -69 q 490 -95 467 -69 q 514 -160 514 -121 q 469 -343 514 -287 q 350 -399 424 -399 l 335 -321 q 437 -292 399 -321 q 483 -211 475 -264 q 432 -232 464 -232 q 374 -209 397 -232 m 638 908 l 781 908 l 781 0 l 593 0 l 203 706 l 203 0 l 61 0 l 61 908 l 247 908 l 638 206 l 638 908 z "},"ņ":{"ha":694,"x_min":61,"x_max":633,"o":"m 299 -209 q 287 -198 299 -209 q 275 -151 275 -186 q 299 -93 275 -117 q 357 -69 322 -69 q 415 -95 392 -69 q 439 -160 439 -121 q 394 -343 439 -287 q 275 -399 349 -399 l 260 -321 q 362 -292 324 -321 q 408 -211 400 -264 q 357 -232 389 -232 q 299 -209 322 -232 m 490 399 q 451 503 490 464 q 350 543 413 543 q 244 502 286 543 q 203 396 203 461 l 181 396 q 244 588 181 510 q 411 665 308 665 q 569 592 506 665 q 633 414 633 519 l 633 0 l 490 0 l 490 399 m 61 639 l 203 639 l 164 472 l 203 458 l 203 0 l 61 0 l 61 639 z "},"Ň":{"ha":842,"x_min":61,"x_max":781,"o":"m 451 1060 l 546 1172 l 668 1172 l 510 983 l 351 983 l 193 1172 l 315 1172 l 410 1060 l 422 1029 l 439 1029 l 451 1060 m 638 908 l 781 908 l 781 0 l 593 0 l 203 706 l 203 0 l 61 0 l 61 908 l 247 908 l 638 206 l 638 908 z "},"ň":{"ha":694,"x_min":61,"x_max":633,"o":"m 365 806 l 460 918 l 582 918 l 424 729 l 265 729 l 107 918 l 229 918 l 324 806 l 336 775 l 353 775 l 365 806 m 490 399 q 451 503 490 464 q 350 543 413 543 q 244 502 286 543 q 203 396 203 461 l 181 396 q 244 588 181 510 q 411 665 308 665 q 569 592 506 665 q 633 414 633 519 l 633 0 l 490 0 l 490 399 m 61 639 l 203 639 l 164 472 l 203 458 l 203 0 l 61 0 l 61 639 z "},"ŉ":{"ha":829,"x_min":0,"x_max":769,"o":"m 626 399 q 588 503 626 464 q 486 543 549 543 q 381 502 422 543 q 339 396 339 461 l 317 396 q 381 588 317 510 q 547 665 444 665 q 706 592 642 665 q 769 414 769 519 l 769 0 l 626 0 l 626 399 m 197 639 l 339 639 l 300 472 l 339 458 l 339 0 l 197 0 l 197 639 m 10 954 l 136 954 l 60 678 l 0 678 l 10 954 z "},"Ŋ":{"ha":797,"x_min":61,"x_max":738,"o":"m 61 908 l 203 908 l 160 668 l 203 654 l 203 0 l 61 0 l 61 908 m 594 594 q 542 754 594 694 q 404 814 490 814 q 260 752 317 814 q 203 592 203 690 l 181 592 q 256 838 181 746 q 456 929 331 929 q 656 836 575 929 q 738 608 738 743 l 738 -24 q 672 -200 738 -137 q 494 -262 606 -262 l 419 -262 l 419 -125 l 481 -125 q 594 -8 594 -125 l 594 594 z "},"ŋ":{"ha":693,"x_min":61,"x_max":633,"o":"m 61 639 l 203 639 l 160 474 l 203 458 l 203 0 l 61 0 l 61 639 m 490 399 q 452 503 490 464 q 353 543 414 543 q 245 502 288 543 q 203 396 203 461 l 181 396 q 242 592 181 518 q 404 665 303 665 q 567 592 501 665 q 633 414 633 519 l 633 -56 q 582 -203 633 -151 q 443 -256 531 -256 l 354 -256 l 354 -125 l 415 -125 q 468 -101 446 -125 q 490 -40 490 -76 l 490 399 z "},"Ō":{"ha":849,"x_min":39,"x_max":810,"o":"m 236 1083 l 608 1083 l 608 983 l 236 983 l 236 1083 m 247 708 q 214 663 247 708 q 182 454 182 617 q 247 202 182 292 q 425 113 311 113 q 603 202 539 113 q 667 454 667 292 q 603 708 667 617 q 425 800 539 800 q 247 708 311 800 m 143 101 q 91 164 143 101 q 39 454 39 228 q 144 809 39 681 q 425 938 249 938 q 700 807 590 938 q 810 454 810 676 q 706 101 810 228 q 425 -26 603 -26 q 143 101 247 -26 z "},"ō":{"ha":701,"x_min":39,"x_max":663,"o":"m 163 829 l 535 829 l 535 729 l 163 729 l 163 829 m 182 322 q 226 156 182 214 q 350 99 271 99 q 475 157 431 99 q 519 322 519 215 q 474 487 519 429 q 350 544 429 544 q 226 487 271 544 q 182 322 182 429 m 39 322 q 123 577 39 486 q 350 668 207 668 q 574 576 485 668 q 663 322 663 483 q 578 65 663 157 q 350 -26 493 -26 q 123 65 207 -26 q 39 322 39 157 z "},"Ŏ":{"ha":849,"x_min":39,"x_max":810,"o":"m 525 1164 q 495 1094 525 1124 q 424 1064 465 1064 q 352 1094 382 1064 q 322 1164 322 1124 l 214 1164 q 274 1034 214 1086 q 424 982 335 982 q 573 1034 513 982 q 633 1164 633 1086 l 525 1164 m 247 708 q 214 663 247 708 q 182 454 182 617 q 247 202 182 292 q 425 113 311 113 q 603 202 539 113 q 667 454 667 292 q 603 708 667 617 q 425 800 539 800 q 247 708 311 800 m 143 101 q 91 164 143 101 q 39 454 39 228 q 144 809 39 681 q 425 938 249 938 q 700 807 590 938 q 810 454 810 676 q 706 101 810 228 q 425 -26 603 -26 q 143 101 247 -26 z "},"ŏ":{"ha":701,"x_min":39,"x_max":663,"o":"m 451 910 q 422 840 451 869 q 350 810 392 810 q 278 840 308 810 q 249 910 249 869 l 140 910 q 201 780 140 832 q 350 728 261 728 q 499 780 439 728 q 560 910 560 832 l 451 910 m 182 322 q 226 156 182 214 q 350 99 271 99 q 475 157 431 99 q 519 322 519 215 q 474 487 519 429 q 350 544 429 544 q 226 487 271 544 q 182 322 182 429 m 39 322 q 123 577 39 486 q 350 668 207 668 q 574 576 485 668 q 663 322 663 483 q 578 65 663 157 q 350 -26 493 -26 q 123 65 207 -26 q 39 322 39 157 z "},"Ő":{"ha":849,"x_min":39,"x_max":810,"o":"m 651 1217 l 485 985 l 390 985 l 518 1217 l 651 1217 m 444 1217 l 276 985 l 183 985 l 311 1217 l 444 1217 m 247 708 q 214 663 247 708 q 182 454 182 617 q 247 202 182 292 q 425 113 311 113 q 603 202 539 113 q 667 454 667 292 q 603 708 667 617 q 425 800 539 800 q 247 708 311 800 m 143 101 q 91 164 143 101 q 39 454 39 228 q 144 809 39 681 q 425 938 249 938 q 700 807 590 938 q 810 454 810 676 q 706 101 810 228 q 425 -26 603 -26 q 143 101 247 -26 z "},"ő":{"ha":701,"x_min":39,"x_max":663,"o":"m 578 963 l 411 731 l 317 731 l 444 963 l 578 963 m 371 963 l 203 731 l 110 731 l 238 963 l 371 963 m 182 322 q 226 156 182 214 q 350 99 271 99 q 475 157 431 99 q 519 322 519 215 q 474 487 519 429 q 350 544 429 544 q 226 487 271 544 q 182 322 182 429 m 39 322 q 123 577 39 486 q 350 668 207 668 q 574 576 485 668 q 663 322 663 483 q 578 65 663 157 q 350 -26 493 -26 q 123 65 207 -26 q 39 322 39 157 z "},"Œ":{"ha":1325,"x_min":39,"x_max":1290,"o":"m 669 908 l 1289 908 l 1289 775 l 811 775 l 811 521 l 1289 521 l 1289 386 l 811 386 l 811 135 l 1289 135 l 1289 0 l 669 0 l 669 163 l 639 167 l 683 451 l 644 722 l 669 725 l 669 908 m 183 450 q 247 190 183 282 q 426 99 311 99 q 603 190 540 99 q 667 450 667 282 q 603 708 667 617 q 426 800 540 800 q 247 708 311 800 q 183 450 182 617 m 39 450 q 134 799 39 675 q 392 924 229 924 q 610 797 522 924 q 697 450 697 671 q 615 99 697 224 q 392 -26 532 -26 q 134 99 229 -26 q 39 450 39 224 z "},"œ":{"ha":1175,"x_min":39,"x_max":1136,"o":"m 593 285 l 593 181 l 515 181 l 538 285 l 593 285 m 183 322 q 226 156 183 214 q 344 99 268 99 q 471 157 425 99 q 517 322 517 215 q 471 487 517 429 q 344 544 425 544 q 226 487 268 544 q 183 322 183 429 m 39 322 q 122 577 39 486 q 344 668 204 668 q 569 576 479 668 q 660 322 660 483 q 599 285 660 300 q 532 256 539 271 q 469 52 528 131 q 317 -26 411 -26 q 114 65 189 -26 q 39 322 39 157 m 608 374 l 608 456 l 660 456 l 653 374 l 608 374 m 661 285 q 715 149 668 197 q 844 100 763 100 q 947 135 906 100 q 1000 229 989 169 l 1136 207 q 1035 37 1113 97 q 842 -24 957 -24 q 608 73 697 -24 q 518 325 518 169 q 556 390 518 364 q 653 415 594 415 q 714 601 653 531 q 872 672 775 672 q 1063 585 990 672 q 1136 356 1136 497 l 1136 285 l 661 285 m 663 386 l 992 386 q 946 502 992 457 q 828 547 900 547 q 715 506 758 547 q 663 386 672 464 z "},"Ŕ":{"ha":746,"x_min":61,"x_max":715,"o":"m 557 1217 l 389 985 l 296 985 l 424 1217 l 557 1217 m 358 383 l 513 383 l 715 0 l 563 0 l 358 383 m 61 0 l 61 908 l 411 908 q 631 824 547 908 q 715 611 715 740 q 633 412 715 488 q 411 336 550 336 l 203 336 l 203 0 l 61 0 m 203 469 l 397 469 q 572 617 572 469 q 528 733 572 692 q 397 775 483 775 l 203 775 l 203 469 z "},"ŕ":{"ha":469,"x_min":61,"x_max":449,"o":"m 444 963 l 276 731 l 183 731 l 311 963 l 444 963 m 61 639 l 203 639 l 161 474 l 203 458 l 203 0 l 61 0 l 61 639 m 383 513 q 256 470 310 513 q 203 361 203 428 l 182 396 q 241 578 182 510 q 397 646 300 646 l 449 646 l 449 513 l 383 513 z "},"Ŗ":{"ha":746,"x_min":61,"x_max":715,"o":"m 317 -209 q 305 -198 317 -209 q 293 -151 293 -186 q 317 -93 293 -117 q 375 -69 340 -69 q 433 -95 410 -69 q 457 -160 457 -121 q 412 -343 457 -287 q 293 -399 367 -399 l 278 -321 q 380 -292 342 -321 q 426 -211 418 -264 q 375 -232 407 -232 q 317 -209 340 -232 m 358 383 l 513 383 l 715 0 l 563 0 l 358 383 m 61 0 l 61 908 l 411 908 q 631 824 547 908 q 715 611 715 740 q 633 412 715 488 q 411 336 550 336 l 203 336 l 203 0 l 61 0 m 203 469 l 397 469 q 572 617 572 469 q 528 733 572 692 q 397 775 483 775 l 203 775 l 203 469 z "},"ŗ":{"ha":469,"x_min":35,"x_max":449,"o":"m 72 -208 q 60 -196 72 -208 q 49 -150 49 -185 q 72 -92 49 -115 q 131 -68 96 -68 q 189 -94 165 -68 q 213 -158 213 -119 q 167 -342 213 -286 q 49 -397 122 -397 l 33 -319 q 135 -291 97 -319 q 182 -210 174 -262 q 131 -231 163 -231 q 72 -208 96 -231 m 61 639 l 203 639 l 161 474 l 203 458 l 203 0 l 61 0 l 61 639 m 383 513 q 256 470 310 513 q 203 361 203 428 l 182 396 q 241 578 182 510 q 397 646 300 646 l 449 646 l 449 513 l 383 513 z "},"Ř":{"ha":746,"x_min":61,"x_max":715,"o":"m 394 1060 l 489 1172 l 611 1172 l 453 983 l 294 983 l 136 1172 l 258 1172 l 353 1060 l 365 1029 l 382 1029 l 394 1060 m 358 383 l 513 383 l 715 0 l 563 0 l 358 383 m 61 0 l 61 908 l 411 908 q 631 824 547 908 q 715 611 715 740 q 633 412 715 488 q 411 336 550 336 l 203 336 l 203 0 l 61 0 m 203 469 l 397 469 q 572 617 572 469 q 528 733 572 692 q 397 775 483 775 l 203 775 l 203 469 z "},"ř":{"ha":469,"x_min":24,"x_max":499,"o":"m 282 806 l 376 918 l 499 918 l 340 729 l 182 729 l 24 918 l 146 918 l 240 806 l 253 775 l 269 775 l 282 806 m 61 639 l 203 639 l 161 474 l 203 458 l 203 0 l 61 0 l 61 639 m 383 513 q 256 470 310 513 q 203 361 203 428 l 182 396 q 241 578 182 510 q 397 646 300 646 l 449 646 l 449 513 l 383 513 z "},"Ś":{"ha":724,"x_min":39,"x_max":685,"o":"m 533 1217 l 365 985 l 272 985 l 400 1217 l 533 1217 m 685 240 q 603 43 685 117 q 388 -31 521 -31 q 165 42 256 -31 q 39 261 75 115 l 172 290 q 385 107 229 107 q 498 143 454 107 q 542 238 542 179 q 530 285 542 264 q 503 320 518 307 q 456 346 488 333 q 403 365 425 358 q 339 381 382 371 q 326 385 331 383 q 244 408 279 396 q 169 443 208 421 q 105 493 129 465 q 64 563 81 521 q 47 658 47 606 q 127 857 47 783 q 344 931 207 931 q 559 863 472 931 q 678 661 646 796 l 546 632 q 476 752 526 711 q 350 793 426 793 q 232 757 275 793 q 189 661 189 721 q 200 612 189 633 q 227 576 211 590 q 274 549 243 561 q 328 528 304 536 q 396 511 353 521 q 478 487 446 497 q 554 454 511 476 q 623 406 597 432 q 667 336 649 379 q 685 240 685 293 z "},"ś":{"ha":606,"x_min":39,"x_max":567,"o":"m 474 963 l 306 731 l 213 731 l 340 963 l 474 963 m 567 167 q 500 24 567 79 q 328 -31 433 -31 q 140 29 218 -31 q 39 201 61 89 l 174 222 q 319 86 206 86 q 394 110 365 86 q 424 171 424 133 q 416 201 424 188 q 399 222 408 214 q 368 240 389 231 q 333 253 347 249 q 293 265 319 257 q 275 269 281 268 q 208 291 235 282 q 149 318 182 300 q 95 356 115 336 q 61 407 75 375 q 47 478 47 439 q 110 617 47 565 q 281 668 174 668 q 560 458 504 668 l 424 431 q 292 551 394 551 q 217 531 244 551 q 189 475 189 510 q 199 440 189 456 q 229 415 208 425 q 269 397 250 404 q 319 381 288 390 q 335 376 325 379 q 382 363 365 368 q 427 346 399 357 q 472 325 456 335 q 508 299 488 315 q 540 264 529 282 q 559 221 551 246 q 567 167 567 196 z "},"Ŝ":{"ha":724,"x_min":39,"x_max":685,"o":"m 329 1097 l 235 983 l 113 983 l 271 1172 l 429 1172 l 588 983 l 465 983 l 371 1097 l 358 1126 l 342 1126 l 329 1097 m 685 240 q 603 43 685 117 q 388 -31 521 -31 q 165 42 256 -31 q 39 261 75 115 l 172 290 q 385 107 229 107 q 498 143 454 107 q 542 238 542 179 q 530 285 542 264 q 503 320 518 307 q 456 346 488 333 q 403 365 425 358 q 339 381 382 371 q 326 385 331 383 q 244 408 279 396 q 169 443 208 421 q 105 493 129 465 q 64 563 81 521 q 47 658 47 606 q 127 857 47 783 q 344 931 207 931 q 559 863 472 931 q 678 661 646 796 l 546 632 q 476 752 526 711 q 350 793 426 793 q 232 757 275 793 q 189 661 189 721 q 200 612 189 633 q 227 576 211 590 q 274 549 243 561 q 328 528 304 536 q 396 511 353 521 q 478 487 446 497 q 554 454 511 476 q 623 406 597 432 q 667 336 649 379 q 685 240 685 293 z "},"ŝ":{"ha":606,"x_min":39,"x_max":567,"o":"m 269 843 l 175 729 l 53 729 l 211 918 l 369 918 l 528 729 l 406 729 l 311 843 l 299 872 l 282 872 l 269 843 m 567 167 q 500 24 567 79 q 328 -31 433 -31 q 140 29 218 -31 q 39 201 61 89 l 174 222 q 319 86 206 86 q 394 110 365 86 q 424 171 424 133 q 416 201 424 188 q 399 222 408 214 q 368 240 389 231 q 333 253 347 249 q 293 265 319 257 q 275 269 281 268 q 208 291 235 282 q 149 318 182 300 q 95 356 115 336 q 61 407 75 375 q 47 478 47 439 q 110 617 47 565 q 281 668 174 668 q 560 458 504 668 l 424 431 q 292 551 394 551 q 217 531 244 551 q 189 475 189 510 q 199 440 189 456 q 229 415 208 425 q 269 397 250 404 q 319 381 288 390 q 335 376 325 379 q 382 363 365 368 q 427 346 399 357 q 472 325 456 335 q 508 299 488 315 q 540 264 529 282 q 559 221 551 246 q 567 167 567 196 z "},"Ş":{"ha":724,"x_min":39,"x_max":685,"o":"m 288 -211 l 369 -190 q 419 -229 381 -229 q 461 -172 461 -229 q 428 -128 461 -128 q 389 -174 403 -128 l 308 -157 l 340 8 l 426 8 l 381 -90 l 396 -99 q 460 -56 421 -56 q 521 -87 497 -56 q 544 -169 544 -119 q 512 -271 544 -233 q 424 -308 479 -308 q 288 -211 321 -308 m 685 240 q 603 43 685 117 q 388 -31 521 -31 q 165 42 256 -31 q 39 261 75 115 l 172 290 q 385 107 229 107 q 498 143 454 107 q 542 238 542 179 q 530 285 542 264 q 503 320 518 307 q 456 346 488 333 q 403 365 425 358 q 339 381 382 371 q 326 385 331 383 q 244 408 279 396 q 169 443 208 421 q 105 493 129 465 q 64 563 81 521 q 47 658 47 606 q 127 857 47 783 q 344 931 207 931 q 559 863 472 931 q 678 661 646 796 l 546 632 q 476 752 526 711 q 350 793 426 793 q 232 757 275 793 q 189 661 189 721 q 200 612 189 633 q 227 576 211 590 q 274 549 243 561 q 328 528 304 536 q 396 511 353 521 q 478 487 446 497 q 554 454 511 476 q 623 406 597 432 q 667 336 649 379 q 685 240 685 293 z "},"ş":{"ha":606,"x_min":39,"x_max":567,"o":"m 218 -211 l 300 -190 q 350 -229 311 -229 q 392 -172 392 -229 q 358 -128 392 -128 q 319 -174 333 -128 l 239 -157 l 271 8 l 357 8 l 311 -90 l 326 -99 q 390 -56 351 -56 q 451 -87 428 -56 q 475 -169 475 -119 q 442 -271 475 -233 q 354 -308 410 -308 q 218 -211 251 -308 m 567 167 q 500 24 567 79 q 328 -31 433 -31 q 140 29 218 -31 q 39 201 61 89 l 174 222 q 319 86 206 86 q 394 110 365 86 q 424 171 424 133 q 416 201 424 188 q 399 222 408 214 q 368 240 389 231 q 333 253 347 249 q 293 265 319 257 q 275 269 281 268 q 208 291 235 282 q 149 318 182 300 q 95 356 115 336 q 61 407 75 375 q 47 478 47 439 q 110 617 47 565 q 281 668 174 668 q 560 458 504 668 l 424 431 q 292 551 394 551 q 217 531 244 551 q 189 475 189 510 q 199 440 189 456 q 229 415 208 425 q 269 397 250 404 q 319 381 288 390 q 335 376 325 379 q 382 363 365 368 q 427 346 399 357 q 472 325 456 335 q 508 299 488 315 q 540 264 529 282 q 559 221 551 246 q 567 167 567 196 z "},"Š":{"ha":724,"x_min":39,"x_max":685,"o":"m 371 1060 l 465 1172 l 588 1172 l 429 983 l 271 983 l 113 1172 l 235 1172 l 329 1060 l 342 1029 l 358 1029 l 371 1060 m 685 240 q 603 43 685 117 q 388 -31 521 -31 q 165 42 256 -31 q 39 261 75 115 l 172 290 q 385 107 229 107 q 498 143 454 107 q 542 238 542 179 q 530 285 542 264 q 503 320 518 307 q 456 346 488 333 q 403 365 425 358 q 339 381 382 371 q 326 385 331 383 q 244 408 279 396 q 169 443 208 421 q 105 493 129 465 q 64 563 81 521 q 47 658 47 606 q 127 857 47 783 q 344 931 207 931 q 559 863 472 931 q 678 661 646 796 l 546 632 q 476 752 526 711 q 350 793 426 793 q 232 757 275 793 q 189 661 189 721 q 200 612 189 633 q 227 576 211 590 q 274 549 243 561 q 328 528 304 536 q 396 511 353 521 q 478 487 446 497 q 554 454 511 476 q 623 406 597 432 q 667 336 649 379 q 685 240 685 293 z "},"š":{"ha":606,"x_min":39,"x_max":567,"o":"m 311 806 l 406 918 l 528 918 l 369 729 l 211 729 l 53 918 l 175 918 l 269 806 l 282 775 l 299 775 l 311 806 m 567 167 q 500 24 567 79 q 328 -31 433 -31 q 140 29 218 -31 q 39 201 61 89 l 174 222 q 319 86 206 86 q 394 110 365 86 q 424 171 424 133 q 416 201 424 188 q 399 222 408 214 q 368 240 389 231 q 333 253 347 249 q 293 265 319 257 q 275 269 281 268 q 208 291 235 282 q 149 318 182 300 q 95 356 115 336 q 61 407 75 375 q 47 478 47 439 q 110 617 47 565 q 281 668 174 668 q 560 458 504 668 l 424 431 q 292 551 394 551 q 217 531 244 551 q 189 475 189 510 q 199 440 189 456 q 229 415 208 425 q 269 397 250 404 q 319 381 288 390 q 335 376 325 379 q 382 363 365 368 q 427 346 399 357 q 472 325 456 335 q 508 299 488 315 q 540 264 529 282 q 559 221 551 246 q 567 167 567 196 z "},"Ţ":{"ha":767,"x_min":38,"x_max":729,"o":"m 281 -210 l 363 -189 q 413 -228 374 -228 q 454 -171 454 -228 q 421 -126 454 -126 q 382 -172 396 -126 l 301 -156 l 333 10 l 419 10 l 374 -89 l 389 -97 q 453 -54 414 -54 q 514 -86 490 -54 q 538 -168 538 -118 q 505 -269 538 -232 q 417 -307 472 -307 q 281 -210 314 -307 m 38 908 l 729 908 l 729 775 l 454 775 l 454 0 l 311 0 l 311 775 l 38 775 l 38 908 z "},"ţ":{"ha":503,"x_min":21,"x_max":497,"o":"m 240 -211 l 322 -190 q 372 -229 333 -229 q 414 -172 414 -229 q 381 -128 414 -128 q 342 -174 356 -128 l 261 -157 l 293 8 l 379 8 l 333 -90 l 349 -99 q 413 -56 374 -56 q 474 -87 450 -56 q 497 -169 497 -119 q 465 -271 497 -233 q 376 -308 432 -308 q 240 -211 274 -308 m 281 519 l 281 222 q 297 138 281 154 q 372 121 314 121 l 482 121 l 482 0 l 332 0 q 188 45 238 0 q 139 207 139 90 l 139 519 l 21 519 l 21 639 l 139 639 l 139 826 l 281 842 l 281 639 l 482 639 l 482 519 l 281 519 z "},"Ť":{"ha":767,"x_min":38,"x_max":729,"o":"m 401 1060 l 496 1172 l 618 1172 l 460 983 l 301 983 l 143 1172 l 265 1172 l 360 1060 l 372 1029 l 389 1029 l 401 1060 m 38 908 l 729 908 l 729 775 l 454 775 l 454 0 l 311 0 l 311 775 l 38 775 l 38 908 z "},"ť":{"ha":503,"x_min":21,"x_max":494,"o":"m 367 946 l 494 946 l 417 699 l 357 699 l 367 946 m 281 519 l 281 222 q 297 138 281 154 q 372 121 314 121 l 482 121 l 482 0 l 332 0 q 188 45 238 0 q 139 207 139 90 l 139 519 l 21 519 l 21 639 l 139 639 l 139 826 l 281 842 l 281 639 l 482 639 l 482 519 l 281 519 z "},"Ŧ":{"ha":764,"x_min":38,"x_max":729,"o":"m 131 571 l 635 571 l 635 439 l 131 439 l 131 571 m 38 908 l 729 908 l 729 775 l 454 775 l 454 0 l 311 0 l 311 775 l 38 775 l 38 908 z "},"ŧ":{"ha":503,"x_min":21,"x_max":483,"o":"m 22 431 l 483 431 l 483 333 l 22 333 l 22 431 m 282 519 l 282 222 q 298 138 282 154 q 372 121 314 121 l 483 121 l 483 0 l 333 0 q 189 45 238 0 q 140 207 140 90 l 140 519 l 22 519 l 22 639 l 140 639 l 140 826 l 282 842 l 282 639 l 483 639 l 483 519 l 282 519 z "},"Ũ":{"ha":801,"x_min":61,"x_max":740,"o":"m 540 1149 q 503 1058 540 1058 q 471 1067 486 1058 q 450 1083 456 1076 q 428 1108 444 1089 q 403 1135 414 1125 q 370 1153 392 1144 q 322 1163 349 1163 q 226 1120 260 1163 q 193 997 193 1078 l 275 986 q 319 1082 275 1082 q 338 1079 329 1082 q 356 1069 347 1076 q 370 1057 365 1063 q 385 1040 375 1051 q 400 1024 396 1028 q 504 976 446 976 q 624 1139 624 976 l 540 1149 m 203 908 l 203 313 q 255 166 203 218 q 403 114 307 114 q 547 165 497 114 q 597 313 597 217 l 597 908 l 740 908 l 740 297 q 645 68 740 158 q 403 -22 550 -22 q 156 66 250 -22 q 61 297 61 154 l 61 908 l 203 908 z "},"ũ":{"ha":694,"x_min":61,"x_max":633,"o":"m 482 894 q 444 804 482 804 q 413 813 428 804 q 392 828 397 822 q 369 854 386 835 q 344 881 356 871 q 312 899 333 890 q 264 908 290 908 q 168 866 201 908 q 135 743 135 824 l 217 732 q 261 828 217 828 q 280 825 271 828 q 298 815 289 822 q 312 803 307 808 q 327 785 317 797 q 342 769 338 774 q 446 722 388 722 q 565 885 565 722 l 482 894 m 203 240 q 242 131 203 172 q 344 89 282 89 q 450 132 408 89 q 492 243 492 175 l 514 243 q 449 51 514 129 q 283 -26 385 -26 q 125 47 189 -26 q 61 225 61 119 l 61 639 l 203 639 l 203 240 m 633 0 l 492 0 l 531 167 l 492 181 l 492 639 l 633 639 l 633 0 z "},"Ū":{"ha":801,"x_min":61,"x_max":740,"o":"m 218 1083 l 590 1083 l 590 983 l 218 983 l 218 1083 m 203 908 l 203 313 q 255 166 203 218 q 403 114 307 114 q 547 165 497 114 q 597 313 597 217 l 597 908 l 740 908 l 740 297 q 645 68 740 158 q 403 -22 550 -22 q 156 66 250 -22 q 61 297 61 154 l 61 908 l 203 908 z "},"ū":{"ha":694,"x_min":61,"x_max":633,"o":"m 160 829 l 532 829 l 532 729 l 160 729 l 160 829 m 203 240 q 242 131 203 172 q 344 89 282 89 q 450 132 408 89 q 492 243 492 175 l 514 243 q 449 51 514 129 q 283 -26 385 -26 q 125 47 189 -26 q 61 225 61 119 l 61 639 l 203 639 l 203 240 m 633 0 l 492 0 l 531 167 l 492 181 l 492 639 l 633 639 l 633 0 z "},"Ŭ":{"ha":801,"x_min":61,"x_max":740,"o":"m 507 1164 q 477 1094 507 1124 q 406 1064 447 1064 q 334 1094 364 1064 q 304 1164 304 1124 l 196 1164 q 256 1034 196 1086 q 406 982 317 982 q 555 1034 494 982 q 615 1164 615 1086 l 507 1164 m 203 908 l 203 313 q 255 166 203 218 q 403 114 307 114 q 547 165 497 114 q 597 313 597 217 l 597 908 l 740 908 l 740 297 q 645 68 740 158 q 403 -22 550 -22 q 156 66 250 -22 q 61 297 61 154 l 61 908 l 203 908 z "},"ŭ":{"ha":694,"x_min":61,"x_max":633,"o":"m 449 910 q 419 840 449 869 q 347 810 389 810 q 276 840 306 810 q 246 910 246 869 l 138 910 q 198 780 138 832 q 347 728 258 728 q 497 780 436 728 q 557 910 557 832 l 449 910 m 203 240 q 242 131 203 172 q 344 89 282 89 q 450 132 408 89 q 492 243 492 175 l 514 243 q 449 51 514 129 q 283 -26 385 -26 q 125 47 189 -26 q 61 225 61 119 l 61 639 l 203 639 l 203 240 m 633 0 l 492 0 l 531 167 l 492 181 l 492 639 l 633 639 l 633 0 z "},"Ů":{"ha":801,"x_min":61,"x_max":740,"o":"m 366 1089 q 375 1080 366 1089 q 406 1071 383 1071 q 444 1088 428 1071 q 461 1129 461 1106 q 444 1169 461 1151 q 406 1186 428 1186 q 366 1169 383 1186 q 349 1129 349 1151 q 366 1089 349 1107 m 302 1026 q 281 1047 302 1026 q 260 1129 260 1068 q 302 1232 260 1190 q 406 1274 344 1274 q 508 1232 467 1274 q 550 1129 550 1190 q 508 1026 550 1068 q 406 985 467 985 q 302 1026 344 985 m 203 908 l 203 313 q 255 166 203 218 q 403 114 307 114 q 547 165 497 114 q 597 313 597 217 l 597 908 l 740 908 l 740 297 q 645 68 740 158 q 403 -22 550 -22 q 156 66 250 -22 q 61 297 61 154 l 61 908 l 203 908 z "},"ů":{"ha":694,"x_min":61,"x_max":633,"o":"m 308 835 q 316 826 308 835 q 347 817 325 817 q 386 834 369 817 q 403 875 403 851 q 386 915 403 897 q 347 932 369 932 q 308 915 325 932 q 290 875 290 897 q 308 835 290 853 m 244 772 q 223 793 244 772 q 201 875 201 814 q 244 978 201 936 q 347 1019 286 1019 q 450 978 408 1019 q 492 875 492 936 q 450 772 492 814 q 347 731 408 731 q 244 772 286 731 m 203 240 q 242 131 203 172 q 344 89 282 89 q 450 132 408 89 q 492 243 492 175 l 514 243 q 449 51 514 129 q 283 -26 385 -26 q 125 47 189 -26 q 61 225 61 119 l 61 639 l 203 639 l 203 240 m 633 0 l 492 0 l 531 167 l 492 181 l 492 639 l 633 639 l 633 0 z "},"Ű":{"ha":801,"x_min":61,"x_max":740,"o":"m 633 1217 l 467 985 l 372 985 l 500 1217 l 633 1217 m 426 1217 l 258 985 l 165 985 l 293 1217 l 426 1217 m 203 908 l 203 313 q 255 166 203 218 q 403 114 307 114 q 547 165 497 114 q 597 313 597 217 l 597 908 l 740 908 l 740 297 q 645 68 740 158 q 403 -22 550 -22 q 156 66 250 -22 q 61 297 61 154 l 61 908 l 203 908 z "},"ű":{"ha":694,"x_min":61,"x_max":633,"o":"m 575 963 l 408 731 l 314 731 l 442 963 l 575 963 m 368 963 l 200 731 l 107 731 l 235 963 l 368 963 m 203 240 q 242 131 203 172 q 344 89 282 89 q 450 132 408 89 q 492 243 492 175 l 514 243 q 449 51 514 129 q 283 -26 385 -26 q 125 47 189 -26 q 61 225 61 119 l 61 639 l 203 639 l 203 240 m 633 0 l 492 0 l 531 167 l 492 181 l 492 639 l 633 639 l 633 0 z "},"Ų":{"ha":801,"x_min":61,"x_max":740,"o":"m 374 -82 q 343 -174 343 -118 q 393 -229 343 -229 q 442 -181 431 -229 l 525 -197 q 397 -308 493 -308 q 303 -276 339 -308 q 268 -190 268 -244 q 281 -126 268 -154 q 332 -49 294 -97 l 379 8 l 446 8 l 374 -82 m 203 908 l 203 313 q 255 166 203 218 q 403 114 307 114 q 547 165 497 114 q 597 313 597 217 l 597 908 l 740 908 l 740 297 q 645 68 740 158 q 403 -22 550 -22 q 156 66 250 -22 q 61 297 61 154 l 61 908 l 203 908 z "},"ų":{"ha":694,"x_min":61,"x_max":633,"o":"m 326 -82 q 296 -174 296 -118 q 346 -229 296 -229 q 394 -181 383 -229 l 478 -197 q 350 -308 446 -308 q 256 -276 292 -308 q 221 -190 221 -244 q 234 -126 221 -154 q 285 -49 247 -97 l 332 8 l 399 8 l 326 -82 m 203 240 q 242 131 203 172 q 344 89 282 89 q 450 132 408 89 q 492 243 492 175 l 514 243 q 449 51 514 129 q 283 -26 385 -26 q 125 47 189 -26 q 61 225 61 119 l 61 639 l 203 639 l 203 240 m 633 0 l 492 0 l 531 167 l 492 181 l 492 639 l 633 639 l 633 0 z "},"Ŵ":{"ha":1363,"x_min":21,"x_max":1342,"o":"m 656 1097 l 561 983 l 439 983 l 597 1172 l 756 1172 l 914 983 l 792 983 l 697 1097 l 685 1126 l 668 1126 l 656 1097 m 661 697 l 492 0 l 271 0 l 21 908 l 167 908 l 361 215 l 375 138 l 392 138 l 406 215 l 581 908 l 778 908 l 956 215 l 969 138 l 988 138 l 1000 215 l 1197 908 l 1342 908 l 1092 0 l 869 0 l 699 697 l 689 781 l 672 781 l 661 697 z "},"ŵ":{"ha":1072,"x_min":21,"x_max":1051,"o":"m 514 843 l 419 729 l 297 729 l 456 918 l 614 918 l 772 729 l 650 729 l 556 843 l 543 872 l 526 872 l 514 843 m 517 426 l 411 0 l 197 0 l 21 639 l 167 639 l 283 215 l 294 138 l 313 138 l 328 215 l 438 639 l 635 639 l 746 215 l 760 138 l 778 138 l 789 215 l 907 639 l 1051 639 l 876 0 l 663 0 l 556 426 l 544 511 l 528 511 l 517 426 z "},"Ŷ":{"ha":850,"x_min":21,"x_max":829,"o":"m 410 1097 l 315 983 l 193 983 l 351 1172 l 510 1172 l 668 983 l 546 983 l 451 1097 l 439 1126 l 422 1126 l 410 1097 m 514 365 l 829 908 l 669 908 l 449 514 l 435 461 l 417 461 l 401 514 l 182 908 l 21 908 l 336 365 l 356 365 l 356 0 l 497 0 l 497 365 l 514 365 z "},"ŷ":{"ha":679,"x_min":21,"x_max":658,"o":"m 318 843 l 224 729 l 101 729 l 260 918 l 418 918 l 576 729 l 454 729 l 360 843 l 347 872 l 331 872 l 318 843 m 364 208 l 504 639 l 658 639 l 386 -119 q 315 -223 363 -186 q 211 -260 268 -260 l 56 -260 l 54 -129 l 156 -129 q 209 -115 190 -129 q 239 -61 228 -100 l 256 0 l 21 639 l 174 639 l 315 208 l 331 131 l 349 131 l 364 208 z "},"Ÿ":{"ha":850,"x_min":21,"x_max":829,"o":"m 504 1017 q 492 1030 504 1017 q 481 1075 481 1042 q 504 1132 481 1108 q 561 1156 528 1156 q 618 1132 594 1156 q 642 1075 642 1108 q 618 1017 642 1042 q 561 993 594 993 q 504 1017 528 993 m 233 1017 q 222 1030 233 1017 q 210 1075 210 1042 q 233 1132 210 1108 q 290 1156 257 1156 q 347 1132 324 1156 q 371 1075 371 1108 q 347 1017 371 1042 q 290 993 324 993 q 233 1017 257 993 m 514 365 l 829 908 l 669 908 l 449 514 l 435 461 l 417 461 l 401 514 l 182 908 l 21 908 l 336 365 l 356 365 l 356 0 l 497 0 l 497 365 l 514 365 z "},"Ź":{"ha":765,"x_min":46,"x_max":719,"o":"m 558 1217 l 390 985 l 297 985 l 425 1217 l 558 1217 m 46 908 l 719 908 l 719 742 l 288 236 l 169 138 l 169 121 l 719 121 l 719 0 l 46 0 l 46 168 l 503 697 l 604 772 l 604 789 l 46 789 l 46 908 z "},"ź":{"ha":568,"x_min":39,"x_max":529,"o":"m 469 963 l 301 731 l 208 731 l 336 963 l 469 963 m 39 639 l 529 639 l 529 464 l 253 203 l 172 139 l 172 121 l 529 121 l 529 0 l 39 0 l 39 182 l 321 457 l 394 501 l 394 519 l 39 519 l 39 639 z "},"Ż":{"ha":765,"x_min":46,"x_max":719,"o":"m 292 1101 q 316 1158 292 1135 q 374 1182 340 1182 q 431 1158 407 1182 q 454 1101 454 1135 q 431 1044 454 1068 q 374 1019 407 1019 q 317 1044 342 1019 q 292 1101 292 1069 m 46 908 l 719 908 l 719 742 l 288 236 l 169 138 l 169 121 l 719 121 l 719 0 l 46 0 l 46 168 l 503 697 l 604 772 l 604 789 l 46 789 l 46 908 z "},"ż":{"ha":568,"x_min":39,"x_max":529,"o":"m 203 847 q 227 904 203 881 q 285 928 251 928 q 342 904 318 928 q 365 847 365 881 q 342 790 365 814 q 285 765 318 765 q 228 790 253 765 q 203 847 203 815 m 39 639 l 529 639 l 529 464 l 253 203 l 172 139 l 172 121 l 529 121 l 529 0 l 39 0 l 39 182 l 321 457 l 394 501 l 394 519 l 39 519 l 39 639 z "},"Ž":{"ha":765,"x_min":46,"x_max":719,"o":"m 396 1060 l 490 1172 l 613 1172 l 454 983 l 296 983 l 138 1172 l 260 1172 l 354 1060 l 367 1029 l 383 1029 l 396 1060 m 46 908 l 719 908 l 719 742 l 288 236 l 169 138 l 169 121 l 719 121 l 719 0 l 46 0 l 46 168 l 503 697 l 604 772 l 604 789 l 46 789 l 46 908 z "},"ž":{"ha":568,"x_min":39,"x_max":529,"o":"m 307 806 l 401 918 l 524 918 l 365 729 l 207 729 l 49 918 l 171 918 l 265 806 l 278 775 l 294 775 l 307 806 m 39 639 l 529 639 l 529 464 l 253 203 l 172 139 l 172 121 l 529 121 l 529 0 l 39 0 l 39 182 l 321 457 l 394 501 l 394 519 l 39 519 l 39 639 z "},"ſ":{"ha":364,"x_min":61,"x_max":329,"o":"m 61 778 q 105 914 61 875 q 247 953 149 953 l 329 953 l 329 833 l 251 833 q 203 761 203 833 l 203 0 l 61 0 l 61 778 z "},"Ǝ":{"ha":742,"x_min":35,"x_max":681,"o":"m 681 0 l 35 0 l 35 133 l 539 133 l 539 388 l 56 388 l 56 522 l 539 522 l 539 774 l 35 774 l 35 908 l 681 908 l 681 0 z "},"Ə":{"ha":701,"x_min":39,"x_max":663,"o":"m 518 346 q 336 543 515 543 q 230 511 272 543 q 176 422 188 479 l 39 444 q 142 608 63 549 q 336 668 222 668 q 576 575 489 668 q 663 319 663 482 q 579 66 663 158 q 351 -26 496 -26 q 122 63 206 -26 q 39 297 39 151 l 39 346 l 518 346 m 515 246 l 183 246 q 231 140 183 182 q 351 97 279 97 q 515 246 494 97 z "},"Ơ":{"ha":849,"x_min":39,"x_max":810,"o":"m 658 1100 l 792 1072 q 715 881 792 967 q 542 796 639 796 l 536 907 q 623 965 588 907 q 658 1100 658 1022 m 247 708 q 214 663 247 708 q 182 454 182 617 q 247 202 182 292 q 425 113 311 113 q 603 202 539 113 q 667 454 667 292 q 603 708 667 617 q 425 800 539 800 q 247 708 311 800 m 143 101 q 91 164 143 101 q 39 454 39 228 q 144 809 39 681 q 425 938 249 938 q 700 807 590 938 q 810 454 810 676 q 706 101 810 228 q 425 -26 603 -26 q 143 101 247 -26 z "},"ơ":{"ha":701,"x_min":39,"x_max":711,"o":"m 578 832 l 711 804 q 635 613 711 699 q 461 528 558 528 l 456 639 q 542 697 507 639 q 578 832 578 754 m 182 322 q 226 156 182 214 q 350 99 271 99 q 475 157 431 99 q 519 322 519 215 q 474 487 519 429 q 350 544 429 544 q 226 487 271 544 q 182 322 182 429 m 39 322 q 123 577 39 486 q 350 668 207 668 q 574 576 485 668 q 663 322 663 483 q 578 65 663 157 q 350 -26 493 -26 q 123 65 207 -26 q 39 322 39 157 z "},"Ư":{"ha":801,"x_min":61,"x_max":922,"o":"m 789 1100 l 922 1072 q 846 881 922 967 q 672 796 769 796 l 667 907 q 753 965 718 907 q 789 1100 789 1022 m 203 908 l 203 313 q 255 166 203 218 q 403 114 307 114 q 547 165 497 114 q 597 313 597 217 l 597 908 l 740 908 l 740 297 q 645 68 740 158 q 403 -22 550 -22 q 156 66 250 -22 q 61 297 61 154 l 61 908 l 203 908 z "},"ư":{"ha":694,"x_min":61,"x_max":772,"o":"m 639 832 l 772 804 q 696 613 772 699 q 522 528 619 528 l 517 639 q 603 697 568 639 q 639 832 639 754 m 203 240 q 242 131 203 172 q 344 89 282 89 q 450 132 408 89 q 492 243 492 175 l 514 243 q 449 51 514 129 q 283 -26 385 -26 q 125 47 189 -26 q 61 225 61 119 l 61 639 l 203 639 l 203 240 m 633 0 l 492 0 l 531 167 l 492 181 l 492 639 l 633 639 l 633 0 z "},"Ǎ":{"ha":883,"x_min":21,"x_max":863,"o":"m 464 1060 l 558 1172 l 681 1172 l 522 983 l 364 983 l 206 1172 l 328 1172 l 422 1060 l 435 1029 l 451 1029 l 464 1060 m 228 375 l 660 375 l 660 242 l 228 242 l 228 375 m 417 715 l 175 0 l 21 0 l 331 908 l 550 908 l 863 0 l 711 0 l 465 715 l 450 792 l 432 792 l 417 715 z "},"ǎ":{"ha":660,"x_min":39,"x_max":599,"o":"m 358 806 l 453 918 l 575 918 l 417 729 l 258 729 l 100 918 l 222 918 l 317 806 l 329 775 l 346 775 l 358 806 m 182 178 q 213 119 182 139 q 296 100 244 100 q 411 140 367 100 q 456 243 456 181 l 481 243 q 417 47 481 121 q 249 -26 353 -26 q 99 25 158 -26 q 39 157 39 76 q 83 272 39 229 q 218 340 126 314 l 456 403 l 456 306 l 267 257 q 182 178 182 235 m 599 0 l 456 0 l 497 163 l 456 181 l 456 422 q 419 507 456 475 q 324 539 383 539 q 224 502 263 539 q 179 407 186 465 l 39 428 q 131 599 54 532 q 326 665 207 665 q 523 599 447 665 q 599 438 599 533 l 599 0 z "},"Ǐ":{"ha":264,"x_min":-104,"x_max":371,"o":"m 154 1060 l 249 1172 l 371 1172 l 213 983 l 54 983 l -104 1172 l 18 1172 l 113 1060 l 125 1029 l 142 1029 l 154 1060 m 61 908 l 203 908 l 203 0 l 61 0 l 61 908 z "},"ǐ":{"ha":258,"x_min":-106,"x_max":371,"o":"m 154 806 l 249 918 l 371 918 l 213 729 l 54 729 l -104 918 l 18 918 l 113 806 l 125 775 l 142 775 l 154 806 m 61 639 l 203 639 l 203 0 l 61 0 l 61 639 z "},"Ǒ":{"ha":849,"x_min":39,"x_max":810,"o":"m 444 1060 l 539 1172 l 661 1172 l 503 983 l 344 983 l 186 1172 l 308 1172 l 403 1060 l 415 1029 l 432 1029 l 444 1060 m 247 708 q 214 663 247 708 q 182 454 182 617 q 247 202 182 292 q 425 113 311 113 q 603 202 539 113 q 667 454 667 292 q 603 708 667 617 q 425 800 539 800 q 247 708 311 800 m 143 101 q 91 164 143 101 q 39 454 39 228 q 144 809 39 681 q 425 938 249 938 q 700 807 590 938 q 810 454 810 676 q 706 101 810 228 q 425 -26 603 -26 q 143 101 247 -26 z "},"ǒ":{"ha":701,"x_min":39,"x_max":663,"o":"m 371 806 l 465 918 l 588 918 l 429 729 l 271 729 l 113 918 l 235 918 l 329 806 l 342 775 l 358 775 l 371 806 m 182 322 q 226 156 182 214 q 350 99 271 99 q 475 157 431 99 q 519 322 519 215 q 474 487 519 429 q 350 544 429 544 q 226 487 271 544 q 182 322 182 429 m 39 322 q 123 577 39 486 q 350 668 207 668 q 574 576 485 668 q 663 322 663 483 q 578 65 663 157 q 350 -26 493 -26 q 123 65 207 -26 q 39 322 39 157 z "},"Ǔ":{"ha":801,"x_min":61,"x_max":740,"o":"m 426 1060 l 521 1172 l 643 1172 l 485 983 l 326 983 l 168 1172 l 290 1172 l 385 1060 l 397 1029 l 414 1029 l 426 1060 m 203 908 l 203 313 q 255 166 203 218 q 403 114 307 114 q 547 165 497 114 q 597 313 597 217 l 597 908 l 740 908 l 740 297 q 645 68 740 158 q 403 -22 550 -22 q 156 66 250 -22 q 61 297 61 154 l 61 908 l 203 908 z "},"ǔ":{"ha":694,"x_min":61,"x_max":633,"o":"m 368 806 l 463 918 l 585 918 l 426 729 l 268 729 l 110 918 l 232 918 l 326 806 l 339 775 l 356 775 l 368 806 m 203 240 q 242 131 203 172 q 344 89 282 89 q 450 132 408 89 q 492 243 492 175 l 514 243 q 449 51 514 129 q 283 -26 385 -26 q 125 47 189 -26 q 61 225 61 119 l 61 639 l 203 639 l 203 240 m 633 0 l 492 0 l 531 167 l 492 181 l 492 639 l 633 639 l 633 0 z "},"ȷ":{"ha":260,"x_min":-81,"x_max":203,"o":"m 61 639 l 203 639 l 203 -47 q 142 -193 203 -139 q -22 -247 81 -247 l -81 -247 l -81 -111 l -22 -111 q 36 -84 11 -111 q 61 -18 61 -57 l 61 639 z "},"ʼ":{"ha":135,"x_min":0,"x_max":136,"o":"m 10 954 l 136 954 l 60 678 l 0 678 l 10 954 z "},"̀":{"ha":275,"x_min":1,"x_max":263,"o":"m 1 968 l 135 968 l 263 736 l 169 736 l 1 968 z "},"́":{"ha":275,"x_min":15,"x_max":276,"o":"m 276 968 l 108 736 l 15 736 l 143 968 l 276 968 z "},"̂":{"ha":447,"x_min":-12,"x_max":463,"o":"m 204 849 l 110 735 l -12 735 l 146 924 l 304 924 l 463 735 l 340 735 l 246 849 l 233 878 l 217 878 l 204 849 z "},"̃":{"ha":432,"x_min":1,"x_max":432,"o":"m 349 900 q 311 810 349 810 q 279 819 294 810 q 258 834 264 828 q 236 860 253 840 q 211 886 222 876 q 178 905 200 896 q 131 914 157 914 q 35 872 68 914 q 1 749 1 829 l 83 738 q 128 833 83 833 q 147 831 138 833 q 165 821 156 828 q 178 808 174 814 q 194 791 183 803 q 208 775 204 779 q 313 728 254 728 q 432 890 432 728 l 349 900 z "},"̄":{"ha":400,"x_min":15,"x_max":388,"o":"m 15 835 l 388 835 l 388 735 l 15 735 l 15 835 z "},"̆":{"ha":421,"x_min":1,"x_max":421,"o":"m 313 915 q 283 845 313 875 q 211 815 253 815 q 140 845 169 815 q 110 915 110 875 l 1 915 q 62 785 1 838 q 211 733 122 733 q 360 785 300 733 q 421 915 421 838 l 313 915 z "},"̇":{"ha":138,"x_min":-12,"x_max":150,"o":"m -12 853 q 12 910 -12 886 q 69 933 36 933 q 126 910 103 933 q 150 853 150 886 q 126 795 150 819 q 69 771 103 771 q 13 796 38 771 q -12 853 -12 821 z "},"̈":{"ha":421,"x_min":-4,"x_max":428,"o":"m 290 769 q 278 781 290 769 q 267 826 267 793 q 290 883 267 860 q 347 907 314 907 q 404 883 381 907 q 428 826 428 860 q 404 769 428 793 q 347 744 381 744 q 290 769 314 744 m 19 769 q 8 781 19 769 q -4 826 -4 793 q 19 883 -4 860 q 76 907 43 907 q 133 883 110 907 q 157 826 157 860 q 133 769 157 793 q 76 744 110 744 q 19 769 43 744 z "},"̉":{"ha":233,"x_min":-6,"x_max":240,"o":"m 142 829 q 147 838 142 829 q 153 862 153 847 q 143 886 153 876 q 118 896 133 896 q 94 886 106 896 q 79 856 83 876 l -6 881 q 41 955 4 929 q 119 981 78 981 q 205 947 169 981 q 240 863 240 913 q 229 815 240 839 q 208 779 218 792 q 175 744 197 767 q 149 717 153 722 l 92 774 q 121 801 111 792 q 142 829 131 811 z "},"̊":{"ha":276,"x_min":-6,"x_max":285,"o":"m 101 808 q 109 799 101 808 q 140 790 118 790 q 179 808 163 790 q 196 849 196 825 q 179 888 196 871 q 140 906 163 906 q 101 888 118 906 q 83 849 83 871 q 101 808 83 826 m 37 746 q 16 767 37 746 q -6 849 -6 788 q 37 951 -6 910 q 140 993 79 993 q 243 951 201 993 q 285 849 285 910 q 243 746 285 788 q 140 704 201 704 q 37 746 79 704 z "},"̋":{"ha":457,"x_min":1,"x_max":471,"o":"m 469 968 l 303 736 l 208 736 l 336 968 l 469 968 m 263 968 l 94 736 l 1 736 l 129 968 l 263 968 z "},"̌":{"ha":447,"x_min":-12,"x_max":463,"o":"m 246 811 l 340 924 l 463 924 l 304 735 l 146 735 l -12 924 l 110 924 l 204 811 l 217 781 l 233 781 l 246 811 z "},"̒":{"ha":225,"x_min":32,"x_max":211,"o":"m 172 874 q 184 862 172 874 q 196 815 196 850 q 172 757 196 781 q 114 733 149 733 q 56 759 79 733 q 32 822 32 785 q 77 1008 32 951 q 196 1064 122 1064 l 211 983 q 109 956 147 983 q 63 875 71 928 q 114 897 82 897 q 172 874 149 897 z "},"̕":{"ha":175,"x_min":208,"x_max":346,"o":"m 218 689 l 346 689 l 268 442 l 208 442 l 218 689 z "},"̛":{"ha":339,"x_min":39,"x_max":294,"o":"m 161 764 l 294 736 q 218 545 294 631 q 44 460 142 460 l 39 571 q 126 628 90 571 q 161 764 161 686 z "},"̣":{"ha":138,"x_min":-15,"x_max":154,"o":"m 10 -241 q -3 -228 10 -241 q -15 -181 -15 -215 q 10 -122 -15 -147 q 69 -97 35 -97 q 128 -122 104 -97 q 153 -181 153 -147 q 128 -241 153 -215 q 69 -267 104 -267 q 10 -241 35 -267 z "},"̦":{"ha":225,"x_min":17,"x_max":196,"o":"m 56 -208 q 44 -196 56 -208 q 32 -150 32 -185 q 56 -92 32 -115 q 114 -68 79 -68 q 172 -94 149 -68 q 196 -158 196 -119 q 151 -342 196 -286 q 32 -397 106 -397 l 17 -319 q 119 -291 81 -319 q 165 -210 157 -262 q 114 -231 146 -231 q 56 -208 79 -231 z "},"̧":{"ha":257,"x_min":-6,"x_max":251,"o":"m -6 -210 l 76 -189 q 126 -228 88 -228 q 168 -171 168 -228 q 135 -126 168 -126 q 96 -172 110 -126 l 15 -156 l 47 10 l 133 10 l 88 -89 l 103 -97 q 167 -54 128 -54 q 228 -86 204 -54 q 251 -168 251 -118 q 219 -269 251 -232 q 131 -307 186 -307 q -6 -210 28 -307 z "},"̨":{"ha":257,"x_min":1,"x_max":258,"o":"m 107 -81 q 76 -172 76 -117 q 126 -228 76 -228 q 175 -179 164 -228 l 258 -196 q 131 -307 226 -307 q 37 -275 72 -307 q 1 -189 1 -243 q 15 -124 1 -153 q 65 -47 28 -96 l 113 10 l 179 10 l 107 -81 z "},"Ѐ":{"ha":742,"x_min":61,"x_max":707,"o":"m 218 1217 l 351 1217 l 479 985 l 386 985 l 218 1217 m 61 908 l 707 908 l 707 775 l 203 775 l 203 521 l 686 521 l 686 386 l 203 386 l 203 135 l 707 135 l 707 0 l 61 0 l 61 908 z "},"Ё":{"ha":742,"x_min":61,"x_max":707,"o":"m 474 1017 q 462 1030 474 1017 q 450 1075 450 1042 q 474 1132 450 1108 q 531 1156 497 1156 q 588 1132 564 1156 q 611 1075 611 1108 q 588 1017 611 1042 q 531 993 564 993 q 474 1017 497 993 m 203 1017 q 191 1030 203 1017 q 179 1075 179 1042 q 203 1132 179 1108 q 260 1156 226 1156 q 317 1132 293 1156 q 340 1075 340 1108 q 317 1017 340 1042 q 260 993 293 993 q 203 1017 226 993 m 61 908 l 707 908 l 707 775 l 203 775 l 203 521 l 686 521 l 686 386 l 203 386 l 203 135 l 707 135 l 707 0 l 61 0 l 61 908 z "},"Ђ":{"ha":747,"x_min":0,"x_max":708,"o":"m 397 135 q 567 263 567 135 q 403 386 567 386 q 251 338 315 386 l 251 0 l 110 0 l 110 775 l 0 775 l 0 908 l 640 908 l 640 775 l 251 775 l 251 472 q 425 521 332 521 q 632 450 556 521 q 708 256 708 379 q 628 69 708 138 q 413 0 549 0 l 335 0 l 335 135 l 397 135 z "},"Ѓ":{"ha":699,"x_min":61,"x_max":671,"o":"m 553 1232 l 385 1000 l 292 1000 l 419 1232 l 553 1232 m 61 908 l 61 0 l 203 0 l 203 775 l 671 775 l 671 908 l 61 908 z "},"Є":{"ha":833,"x_min":39,"x_max":794,"o":"m 90 511 l 90 392 l 565 392 l 565 511 l 90 511 m 790 617 q 651 849 747 767 q 429 931 554 931 q 144 804 250 931 q 39 450 39 678 q 144 99 39 225 q 429 -26 250 -26 q 667 61 568 -26 q 794 308 765 149 l 656 338 q 578 172 639 231 q 429 113 517 113 q 247 201 313 113 q 182 450 182 289 q 247 703 182 614 q 429 793 313 793 q 653 589 599 793 l 790 617 z "},"Ѕ":{"ha":724,"x_min":39,"x_max":686,"o":"m 686 240 q 604 43 686 117 q 390 -31 522 -31 q 167 42 257 -31 q 39 261 76 115 l 172 290 q 385 107 229 107 q 498 143 454 107 q 542 238 542 179 q 530 285 542 264 q 503 320 518 307 q 457 346 489 333 q 404 365 425 358 q 340 381 383 371 q 326 385 331 383 q 244 408 279 396 q 169 443 208 421 q 106 493 131 465 q 64 563 81 521 q 47 658 47 606 q 128 857 47 783 q 344 931 208 931 q 559 863 472 931 q 678 661 646 796 l 547 632 q 477 752 528 711 q 350 793 426 793 q 233 757 276 793 q 189 661 189 721 q 201 612 189 633 q 228 576 213 590 q 275 549 244 561 q 329 528 306 536 q 396 511 353 521 q 478 487 446 497 q 555 454 511 476 q 624 406 599 432 q 667 336 649 379 q 686 240 686 293 z "},"І":{"ha":263,"x_min":61,"x_max":203,"o":"m 61 908 l 203 908 l 203 0 l 61 0 l 61 908 z "},"Ї":{"ha":263,"x_min":-87,"x_max":344,"o":"m 207 1017 q 195 1030 207 1017 q 183 1075 183 1042 q 207 1132 183 1108 q 264 1156 231 1156 q 321 1132 297 1156 q 344 1075 344 1108 q 321 1017 344 1042 q 264 993 297 993 q 207 1017 231 993 m -64 1017 q -76 1030 -64 1017 q -87 1075 -87 1042 q -64 1132 -87 1108 q -7 1156 -40 1156 q 50 1132 26 1156 q 74 1075 74 1108 q 50 1017 74 1042 q -7 993 26 993 q -64 1017 -40 993 m 61 908 l 203 908 l 203 0 l 61 0 l 61 908 z "},"Ј":{"ha":701,"x_min":35,"x_max":643,"o":"m 643 908 l 500 908 l 500 256 q 457 149 500 190 q 342 108 414 108 q 224 156 269 108 q 171 279 179 203 l 35 244 q 134 53 51 128 q 344 -22 217 -22 q 560 52 478 -22 q 643 240 643 126 l 643 908 z "},"Љ":{"ha":1321,"x_min":38,"x_max":1278,"o":"m 751 386 l 751 135 l 953 135 q 1136 258 1136 135 q 1087 352 1136 318 q 943 386 1038 386 l 751 386 m 751 908 l 751 521 l 953 521 q 1188 447 1099 521 q 1278 253 1278 374 q 1194 69 1278 138 q 968 0 1110 0 l 610 0 l 610 775 l 360 775 l 360 353 q 337 171 360 244 q 270 62 314 97 q 179 13 226 26 q 68 0 132 0 l 38 0 l 38 136 l 68 136 q 126 143 103 136 q 172 172 149 150 q 207 242 196 193 q 218 368 218 292 l 218 908 l 751 908 z "},"Њ":{"ha":1106,"x_min":61,"x_max":1063,"o":"m 61 0 l 201 0 l 201 389 l 422 389 l 422 0 l 753 0 q 978 67 894 0 q 1063 249 1063 135 q 973 446 1063 371 q 738 521 883 521 l 564 521 l 564 908 l 422 908 l 422 525 l 201 525 l 201 908 l 61 908 l 61 0 m 564 135 l 564 386 l 728 386 q 872 351 822 386 q 921 254 921 315 q 738 135 921 135 l 564 135 z "},"Ћ":{"ha":758,"x_min":0,"x_max":708,"o":"m 567 240 q 525 343 567 307 q 408 379 483 379 q 279 338 332 379 l 279 0 l 138 0 l 138 775 l 0 775 l 0 908 l 640 908 l 640 775 l 279 775 l 279 472 q 439 514 351 514 q 635 438 561 514 q 708 235 708 361 l 708 0 l 567 0 l 567 240 z "},"Ќ":{"ha":801,"x_min":61,"x_max":779,"o":"m 579 1217 l 411 985 l 318 985 l 446 1217 l 579 1217 m 61 908 l 203 908 l 203 478 l 597 908 l 778 908 l 414 492 l 778 0 l 586 0 l 300 397 l 203 303 l 203 0 l 61 0 l 61 908 z "},"Ѝ":{"ha":839,"x_min":61,"x_max":781,"o":"m 244 1217 l 378 1217 l 506 985 l 413 985 l 244 1217 m 204 908 l 204 206 l 594 908 l 781 908 l 781 0 l 639 0 l 639 706 l 249 0 l 61 0 l 61 908 l 204 908 z "},"Ў":{"ha":679,"x_min":21,"x_max":660,"o":"m 443 1164 q 413 1094 443 1124 q 342 1064 383 1064 q 270 1094 300 1064 q 240 1164 240 1124 l 132 1164 q 192 1034 132 1086 q 342 982 253 982 q 491 1034 431 982 q 551 1164 551 1086 l 443 1164 m 365 478 l 506 908 l 658 908 l 389 142 q 317 37 365 74 q 211 0 269 0 l 56 0 l 56 131 l 158 131 q 212 146 193 131 q 242 200 231 161 l 258 261 l 22 908 l 175 908 l 317 478 l 331 400 l 350 400 l 365 478 z "},"Џ":{"ha":839,"x_min":61,"x_max":778,"o":"m 356 0 l 61 0 l 61 908 l 203 908 l 203 133 l 636 133 l 636 908 l 778 908 l 778 0 l 497 0 l 497 -171 l 356 -171 l 356 0 z "},"А":{"ha":883,"x_min":21,"x_max":864,"o":"m 228 375 l 661 375 l 661 242 l 228 242 l 228 375 m 417 715 l 175 0 l 22 0 l 332 908 l 551 908 l 864 0 l 711 0 l 467 715 l 450 792 l 433 792 l 417 715 z "},"Б":{"ha":768,"x_min":61,"x_max":729,"o":"m 661 775 l 203 775 l 203 521 l 404 521 q 640 447 550 521 q 729 253 729 374 q 645 69 729 138 q 419 0 561 0 l 61 0 l 61 908 l 661 908 l 661 775 m 203 135 l 404 135 q 588 258 588 135 q 538 352 588 318 q 394 386 489 386 l 203 386 l 203 135 z "},"В":{"ha":768,"x_min":61,"x_max":729,"o":"m 203 135 l 404 135 q 588 260 588 135 q 404 386 588 386 l 203 386 l 203 135 m 203 521 l 404 521 q 532 553 492 521 q 572 650 572 586 q 533 745 572 715 q 404 775 493 775 l 203 775 l 203 521 m 529 463 l 529 444 q 674 369 619 426 q 729 232 729 311 q 646 63 729 126 q 419 0 563 0 l 61 0 l 61 908 l 419 908 q 638 844 561 908 q 715 672 715 781 q 667 534 715 590 q 529 463 618 478 z "},"Г":{"ha":699,"x_min":61,"x_max":671,"o":"m 61 908 l 61 0 l 203 0 l 203 775 l 671 775 l 671 908 l 61 908 z "},"Д":{"ha":889,"x_min":39,"x_max":850,"o":"m 850 94 l 850 -222 l 707 -222 l 707 -42 l 179 -42 l 179 -222 l 39 -222 l 39 94 l 107 94 q 149 99 132 94 q 183 121 165 103 q 213 170 201 139 q 231 258 224 201 q 239 396 239 315 l 239 907 l 765 907 l 765 94 l 850 94 m 624 94 l 624 774 l 381 774 l 381 381 q 288 119 381 171 l 292 94 l 624 94 z "},"Е":{"ha":742,"x_min":61,"x_max":707,"o":"m 61 908 l 707 908 l 707 775 l 203 775 l 203 521 l 686 521 l 686 386 l 203 386 l 203 135 l 707 135 l 707 0 l 61 0 l 61 908 z "},"Ж":{"ha":1214,"x_min":21,"x_max":1193,"o":"m 678 536 l 735 536 l 1019 908 l 1193 908 l 858 467 l 1193 0 l 1014 0 l 735 400 l 678 400 l 678 0 l 536 0 l 536 400 l 479 400 l 194 0 l 21 0 l 356 468 l 21 908 l 200 908 l 479 536 l 536 536 l 536 908 l 678 908 l 678 536 z "},"З":{"ha":679,"x_min":39,"x_max":642,"o":"m 481 464 q 598 532 554 476 q 642 669 642 588 q 560 858 642 786 q 347 931 478 931 q 141 864 219 931 q 39 667 63 797 l 172 639 q 231 760 190 721 q 344 800 272 800 q 456 760 414 800 q 497 657 497 721 q 465 554 497 593 q 381 515 433 515 l 242 515 l 242 394 l 381 394 q 465 356 433 394 q 497 254 497 318 q 456 151 497 190 q 344 111 414 111 q 231 157 272 111 q 172 300 190 203 l 39 274 q 141 55 63 129 q 347 -19 219 -19 q 560 53 478 -19 q 642 242 642 125 q 598 379 642 324 q 481 447 554 435 l 481 464 z "},"И":{"ha":839,"x_min":61,"x_max":781,"o":"m 204 908 l 204 206 l 594 908 l 781 908 l 781 0 l 639 0 l 639 706 l 249 0 l 61 0 l 61 908 l 204 908 z "},"Й":{"ha":839,"x_min":61,"x_max":781,"o":"m 529 1164 q 499 1094 529 1124 q 428 1064 469 1064 q 356 1094 386 1064 q 326 1164 326 1124 l 218 1164 q 278 1034 218 1086 q 428 982 339 982 q 577 1034 517 982 q 638 1164 638 1086 l 529 1164 m 204 908 l 204 206 l 594 908 l 781 908 l 781 0 l 639 0 l 639 706 l 249 0 l 61 0 l 61 908 l 204 908 z "},"К":{"ha":801,"x_min":61,"x_max":779,"o":"m 61 908 l 203 908 l 203 478 l 597 908 l 778 908 l 414 492 l 778 0 l 586 0 l 300 397 l 203 303 l 203 0 l 61 0 l 61 908 z "},"Л":{"ha":813,"x_min":38,"x_max":751,"o":"m 751 908 l 751 0 l 610 0 l 610 775 l 360 775 l 360 353 q 337 171 360 244 q 270 62 314 97 q 179 13 226 26 q 68 0 132 0 l 38 0 l 38 136 l 68 136 q 126 143 103 136 q 172 172 149 150 q 207 242 196 193 q 218 368 218 292 l 218 908 l 751 908 z "},"М":{"ha":1125,"x_min":61,"x_max":1067,"o":"m 582 199 l 879 908 l 1067 908 l 1067 0 l 931 0 l 931 692 l 650 0 l 478 0 l 203 692 l 203 0 l 61 0 l 61 908 l 256 908 l 546 199 l 563 138 l 582 199 z "},"Н":{"ha":811,"x_min":61,"x_max":753,"o":"m 61 908 l 203 908 l 203 528 l 610 528 l 610 908 l 753 908 l 753 0 l 610 0 l 610 393 l 203 393 l 203 0 l 61 0 l 61 908 z "},"О":{"ha":849,"x_min":39,"x_max":811,"o":"m 247 703 q 215 659 247 703 q 183 452 183 614 q 247 201 183 290 q 426 113 311 113 q 603 201 540 113 q 667 452 667 290 q 603 703 667 614 q 426 793 540 793 q 247 703 311 793 m 39 453 q 144 804 39 678 q 425 931 249 931 q 701 802 592 931 q 811 453 811 674 q 707 99 811 225 q 426 -26 603 -26 q 144 99 249 -26 q 39 453 39 225 z "},"П":{"ha":786,"x_min":61,"x_max":725,"o":"m 61 908 l 725 908 l 725 0 l 582 0 l 582 774 l 203 774 l 203 0 l 61 0 l 61 908 z "},"Р":{"ha":746,"x_min":61,"x_max":715,"o":"m 61 0 l 61 908 l 404 908 q 628 827 542 908 q 715 619 715 746 q 629 419 715 496 q 404 343 543 343 l 203 343 l 203 0 l 61 0 m 203 476 l 390 476 q 525 515 478 476 q 572 624 572 553 q 525 736 572 697 q 390 775 478 775 l 203 775 l 203 476 z "},"С":{"ha":833,"x_min":39,"x_max":796,"o":"m 792 617 l 653 589 q 569 741 626 689 q 431 793 513 793 q 249 703 314 793 q 183 450 183 614 q 249 201 183 289 q 431 113 314 113 q 578 172 518 113 q 656 338 639 231 l 794 308 q 667 61 765 149 q 431 -26 568 -26 q 145 99 251 -26 q 39 450 39 225 q 145 804 39 678 q 431 931 251 931 q 651 849 556 931 q 792 617 747 767 z "},"Т":{"ha":764,"x_min":38,"x_max":729,"o":"m 38 908 l 729 908 l 729 775 l 454 775 l 454 0 l 311 0 l 311 775 l 38 775 l 38 908 z "},"У":{"ha":679,"x_min":21,"x_max":660,"o":"m 365 478 l 506 908 l 658 908 l 389 142 q 317 37 365 74 q 211 0 269 0 l 56 0 l 56 131 l 158 131 q 212 146 193 131 q 242 200 231 161 l 258 261 l 22 908 l 175 908 l 317 478 l 331 400 l 350 400 l 365 478 z "},"Ф":{"ha":813,"x_min":38,"x_max":774,"o":"m 336 908 l 478 908 l 478 0 l 336 0 l 336 908 m 182 467 q 241 286 182 349 q 406 224 300 224 q 571 287 511 224 q 631 466 631 350 q 571 644 631 582 q 406 707 511 707 q 241 644 300 707 q 182 467 182 582 m 39 467 q 138 737 39 640 q 406 833 238 833 q 669 735 564 833 q 774 467 774 638 q 674 194 774 290 q 406 97 574 97 q 138 194 238 97 q 39 467 39 290 z "},"Х":{"ha":869,"x_min":32,"x_max":839,"o":"m 460 556 l 681 908 l 839 908 l 553 453 l 838 0 l 681 0 l 460 353 l 444 407 l 428 407 l 411 353 l 189 0 l 33 0 l 318 453 l 33 908 l 189 908 l 411 556 l 428 501 l 444 501 l 460 556 z "},"Ц":{"ha":792,"x_min":61,"x_max":753,"o":"m 61 0 l 61 908 l 203 908 l 203 133 l 539 133 l 539 908 l 681 908 l 681 133 l 753 133 l 753 -131 l 611 -131 l 611 0 l 61 0 z "},"Ч":{"ha":711,"x_min":36,"x_max":650,"o":"m 179 644 q 225 517 179 565 q 346 469 271 469 q 466 495 418 469 q 529 550 514 521 l 585 453 q 342 336 513 336 q 124 420 211 336 q 36 629 36 504 l 36 908 l 179 908 l 179 644 m 508 908 l 650 908 l 650 0 l 508 0 l 508 908 z "},"Ш":{"ha":1047,"x_min":61,"x_max":986,"o":"m 986 0 l 61 0 l 61 908 l 203 908 l 203 133 l 453 133 l 453 908 l 594 908 l 594 133 l 844 133 l 844 908 l 986 908 l 986 0 z "},"Щ":{"ha":1097,"x_min":61,"x_max":1058,"o":"m 61 0 l 61 908 l 203 908 l 203 133 l 453 133 l 453 908 l 594 908 l 594 133 l 844 133 l 844 908 l 986 908 l 986 133 l 1058 133 l 1058 -131 l 917 -131 l 917 0 l 61 0 z "},"Ъ":{"ha":747,"x_min":0,"x_max":708,"o":"m 251 528 l 383 528 q 619 453 529 528 q 708 257 708 378 q 624 69 708 139 q 399 0 540 0 l 110 0 l 110 771 l 0 771 l 0 908 l 251 908 l 251 528 m 251 135 l 383 135 q 567 263 567 135 q 517 358 567 322 q 374 393 468 393 l 251 393 l 251 135 z "},"Ы":{"ha":1013,"x_min":61,"x_max":951,"o":"m 810 908 l 951 908 l 951 0 l 810 0 l 810 908 m 203 528 l 404 528 q 640 453 550 528 q 729 257 729 379 q 645 70 729 140 q 419 0 561 0 l 61 0 l 61 908 l 203 908 l 203 528 m 203 135 l 404 135 q 588 263 588 135 q 538 358 588 324 q 394 393 489 393 l 203 393 l 203 135 z "},"Ь":{"ha":768,"x_min":61,"x_max":729,"o":"m 203 528 l 404 528 q 640 453 550 528 q 729 257 729 379 q 645 70 729 140 q 419 0 561 0 l 61 0 l 61 908 l 203 908 l 203 528 m 203 135 l 404 135 q 588 263 588 135 q 538 358 588 324 q 394 393 489 393 l 203 393 l 203 135 z "},"Э":{"ha":833,"x_min":39,"x_max":794,"o":"m 743 393 l 743 513 l 268 513 l 268 393 l 743 393 m 43 288 q 183 56 86 138 q 404 -26 279 -26 q 689 100 583 -26 q 794 454 794 226 q 689 805 794 679 q 404 931 583 931 q 167 843 265 931 q 39 596 68 756 l 178 567 q 256 733 194 674 q 404 792 317 792 q 586 703 521 792 q 651 454 651 615 q 586 201 651 290 q 404 111 521 111 q 181 315 235 111 l 43 288 z "},"Ю":{"ha":1079,"x_min":61,"x_max":1040,"o":"m 468 450 q 525 708 468 617 q 683 800 582 800 q 841 708 785 800 q 897 450 897 617 q 841 190 897 282 q 683 99 785 99 q 525 190 582 99 q 468 450 468 282 m 422 794 q 373 733 422 794 q 325 450 325 672 q 422 104 325 228 q 683 -19 518 -19 q 944 103 849 -19 q 1040 450 1040 226 q 939 792 1040 668 q 683 917 838 917 q 422 794 518 917 m 61 0 l 201 0 l 201 389 l 374 389 l 374 525 l 201 525 l 201 908 l 61 908 l 61 0 z "},"Я":{"ha":763,"x_min":53,"x_max":715,"o":"m 418 383 l 207 0 l 54 0 l 264 383 l 418 383 m 715 0 l 574 0 l 574 336 l 364 336 q 139 412 224 336 q 54 614 54 488 q 140 825 54 742 q 364 908 226 908 l 715 908 l 715 0 m 574 469 l 574 775 l 379 775 q 243 733 289 775 q 197 617 197 692 q 379 469 197 469 l 574 469 z "},"а":{"ha":660,"x_min":39,"x_max":600,"o":"m 183 178 q 215 119 183 139 q 297 100 246 100 q 412 140 368 100 q 456 243 456 181 l 481 243 q 417 47 481 121 q 250 -26 354 -26 q 99 25 158 -26 q 39 157 39 76 q 83 272 39 229 q 219 340 126 314 l 456 403 l 456 306 l 267 257 q 183 178 183 235 m 600 0 l 456 0 l 499 163 l 456 181 l 456 422 q 420 507 456 475 q 325 539 385 539 q 225 502 264 539 q 181 407 186 465 l 39 428 q 132 599 56 532 q 328 665 208 665 q 524 599 447 665 q 600 438 600 533 l 600 0 z "},"б":{"ha":699,"x_min":38,"x_max":660,"o":"m 39 339 q 131 75 39 176 q 369 -26 222 -26 q 580 58 500 -26 q 660 281 660 143 q 585 515 660 422 q 397 608 511 608 q 229 531 294 608 q 164 331 164 453 l 39 339 m 182 300 q 226 435 182 386 q 346 485 269 485 q 472 434 426 485 q 517 292 517 383 q 474 150 517 201 q 360 99 432 99 q 233 156 283 99 q 182 300 182 214 m 339 863 q 155 769 218 826 q 65 613 92 711 q 39 339 39 514 l 182 322 q 183 429 182 393 l 149 447 l 189 556 q 237 676 201 636 q 360 739 272 717 q 538 812 468 768 q 626 899 608 856 l 507 974 q 339 863 483 908 z "},"в":{"ha":699,"x_min":61,"x_max":660,"o":"m 203 121 l 390 121 q 518 194 518 121 q 390 264 518 264 l 203 264 l 203 121 m 203 383 l 390 383 q 503 450 503 383 q 390 519 503 519 l 203 519 l 203 383 m 488 333 l 488 314 q 613 264 565 303 q 660 172 660 225 q 592 47 660 93 q 406 0 524 0 l 61 0 l 61 639 l 406 639 q 583 594 521 639 q 646 474 646 550 q 604 381 646 419 q 488 333 563 343 z "},"г":{"ha":576,"x_min":61,"x_max":553,"o":"m 61 639 l 61 0 l 203 0 l 203 506 l 553 506 l 553 639 l 61 639 z "},"д":{"ha":778,"x_min":39,"x_max":739,"o":"m 739 101 l 739 -222 l 596 -222 l 596 -35 l 179 -35 l 179 -222 l 39 -222 l 39 101 l 86 101 q 139 113 119 101 q 174 177 158 125 q 190 326 190 229 l 190 639 l 661 639 l 661 101 l 739 101 m 519 101 l 519 506 l 332 506 l 332 311 q 267 126 332 163 l 271 101 l 519 101 z "},"е":{"ha":701,"x_min":39,"x_max":664,"o":"m 183 282 q 238 146 192 193 q 367 99 285 99 q 472 131 429 99 q 525 219 514 163 l 664 197 q 560 33 639 93 q 367 -26 481 -26 q 126 67 214 -26 q 39 322 39 160 q 122 576 39 483 q 350 668 206 668 q 580 575 496 668 q 664 331 664 482 l 664 282 l 183 282 m 186 382 l 519 382 q 472 499 519 453 q 350 544 424 544 q 239 502 281 544 q 186 382 197 460 z "},"ж":{"ha":947,"x_min":21,"x_max":926,"o":"m 544 389 l 588 389 l 757 639 l 926 639 l 699 321 l 926 0 l 754 0 l 588 253 l 544 253 l 544 0 l 403 0 l 403 253 l 360 253 l 190 0 l 21 0 l 249 322 l 21 639 l 193 639 l 360 389 l 403 389 l 403 639 l 544 639 l 544 389 z "},"з":{"ha":624,"x_min":39,"x_max":585,"o":"m 453 332 q 549 380 514 340 q 585 478 585 419 q 510 614 585 561 q 317 667 436 667 q 131 614 201 667 q 39 458 60 561 l 179 438 q 314 539 206 539 q 406 514 371 539 q 442 449 442 489 q 417 401 442 419 q 353 383 393 383 l 219 383 l 219 263 l 353 263 q 417 244 393 263 q 442 194 442 226 q 406 119 442 147 q 310 90 369 90 q 179 210 206 90 l 39 190 q 131 27 60 83 q 315 -29 201 -29 q 510 29 435 -29 q 585 181 585 88 q 549 271 585 235 q 453 315 514 307 l 453 332 z "},"и":{"ha":719,"x_min":61,"x_max":660,"o":"m 204 639 l 61 639 l 61 0 l 235 0 l 517 456 l 517 0 l 658 0 l 658 639 l 486 639 l 204 186 l 204 639 z "},"й":{"ha":719,"x_min":61,"x_max":660,"o":"m 460 910 q 430 840 460 869 q 358 810 400 810 q 287 840 317 810 q 257 910 257 869 l 149 910 q 209 780 149 832 q 358 728 269 728 q 508 780 447 728 q 568 910 568 832 l 460 910 m 204 639 l 61 639 l 61 0 l 235 0 l 517 456 l 517 0 l 658 0 l 658 639 l 486 639 l 204 186 l 204 639 z "},"к":{"ha":685,"x_min":61,"x_max":661,"o":"m 61 639 l 203 639 l 203 340 l 488 639 l 661 639 l 397 344 l 661 0 l 489 0 l 294 258 l 203 165 l 203 0 l 61 0 l 61 639 z "},"л":{"ha":699,"x_min":32,"x_max":639,"o":"m 639 639 l 639 0 l 497 0 l 497 506 l 308 506 l 308 311 q 296 176 308 233 q 263 86 283 119 q 210 33 242 53 q 148 6 179 13 q 78 0 117 0 l 33 0 l 33 136 l 78 136 q 113 142 99 136 q 140 165 126 147 q 160 224 154 183 q 167 326 167 264 l 167 639 l 639 639 z "},"м":{"ha":928,"x_min":61,"x_max":868,"o":"m 539 0 l 394 0 l 203 435 l 203 0 l 61 0 l 61 639 l 247 639 l 467 138 l 688 639 l 867 639 l 867 0 l 732 0 l 732 435 l 539 0 z "},"н":{"ha":703,"x_min":61,"x_max":642,"o":"m 61 639 l 203 639 l 203 382 l 499 382 l 499 639 l 642 639 l 642 0 l 499 0 l 499 247 l 203 247 l 203 0 l 61 0 l 61 639 z "},"о":{"ha":701,"x_min":39,"x_max":663,"o":"m 182 322 q 226 156 182 214 q 350 99 271 99 q 475 157 431 99 q 519 322 519 215 q 474 487 519 429 q 350 544 429 544 q 226 487 271 544 q 182 322 182 429 m 39 322 q 123 577 39 486 q 350 668 207 668 q 574 576 485 668 q 663 322 663 483 q 578 65 663 157 q 350 -26 493 -26 q 123 65 207 -26 q 39 322 39 157 z "},"п":{"ha":717,"x_min":61,"x_max":656,"o":"m 61 639 l 656 639 l 656 0 l 513 0 l 513 504 l 203 504 l 203 0 l 61 0 l 61 639 z "},"р":{"ha":736,"x_min":61,"x_max":697,"o":"m 250 153 q 226 182 250 153 q 203 318 203 211 q 250 483 203 425 q 381 542 297 542 q 508 483 463 542 q 554 318 554 425 q 508 152 554 210 q 381 94 463 94 q 250 153 297 94 m 238 575 q 204 530 238 575 q 171 318 171 485 q 235 61 171 151 q 417 -29 300 -29 q 617 64 536 -29 q 697 322 697 157 q 621 573 697 481 q 422 665 544 665 q 238 575 304 665 m 61 -272 l 203 -272 l 203 0 l 161 165 l 203 181 l 203 458 l 163 474 l 203 639 l 61 639 l 61 -272 z "},"с":{"ha":697,"x_min":39,"x_max":664,"o":"m 658 422 l 522 401 q 461 508 504 471 q 356 544 418 544 q 229 487 275 544 q 183 322 183 429 q 229 157 183 215 q 356 99 275 99 q 467 140 422 99 q 525 254 513 181 l 664 233 q 556 42 640 110 q 356 -26 472 -26 q 126 65 213 -26 q 39 322 39 157 q 126 577 39 486 q 356 668 213 668 q 542 604 461 668 q 658 422 622 540 z "},"т":{"ha":640,"x_min":38,"x_max":604,"o":"m 38 639 l 38 506 l 247 506 l 247 0 l 392 0 l 392 506 l 603 506 l 603 639 l 38 639 z "},"у":{"ha":679,"x_min":21,"x_max":660,"o":"m 365 208 l 506 639 l 658 639 l 386 -119 q 317 -223 364 -186 q 211 -260 269 -260 l 56 -260 l 56 -129 l 156 -129 q 210 -115 192 -129 q 239 -61 229 -100 l 256 0 l 22 639 l 175 639 l 317 208 l 331 131 l 350 131 l 365 208 z "},"ф":{"ha":757,"x_min":39,"x_max":718,"o":"m 306 735 l 454 735 l 454 -108 l 306 -108 l 306 735 m 178 319 q 231 208 178 247 q 378 169 283 169 q 525 208 472 169 q 578 319 578 247 q 525 429 578 390 q 378 468 472 468 q 231 429 283 468 q 178 319 178 390 m 131 114 q 85 151 131 114 q 39 319 39 188 q 131 524 39 451 q 378 596 222 596 q 621 522 524 596 q 718 319 718 449 q 626 114 718 188 q 378 40 533 40 q 131 114 222 40 z "},"х":{"ha":679,"x_min":21,"x_max":658,"o":"m 364 421 l 500 639 l 658 639 l 457 322 l 658 0 l 501 0 l 364 225 l 349 279 l 331 279 l 315 225 l 178 0 l 21 0 l 222 322 l 21 639 l 178 639 l 315 421 l 331 367 l 349 367 l 364 421 z "},"ц":{"ha":694,"x_min":61,"x_max":656,"o":"m 61 0 l 61 639 l 203 639 l 203 133 l 442 133 l 442 639 l 583 639 l 583 133 l 656 133 l 656 -131 l 514 -131 l 514 0 l 61 0 z "},"ч":{"ha":640,"x_min":49,"x_max":579,"o":"m 192 431 q 226 344 192 376 q 317 311 261 311 q 414 339 375 311 q 465 399 453 367 l 521 322 q 271 185 447 185 q 113 243 176 185 q 49 388 49 301 l 49 639 l 192 639 l 192 431 m 438 639 l 579 639 l 579 0 l 438 0 l 438 639 z "},"ш":{"ha":881,"x_min":61,"x_max":819,"o":"m 819 0 l 61 0 l 61 639 l 203 639 l 203 133 l 369 133 l 369 639 l 511 639 l 511 133 l 678 133 l 678 639 l 819 639 l 819 0 z "},"щ":{"ha":983,"x_min":61,"x_max":933,"o":"m 61 0 l 61 639 l 203 639 l 203 133 l 369 133 l 369 639 l 511 639 l 511 133 l 678 133 l 678 639 l 819 639 l 819 133 l 933 133 l 933 -131 l 792 -131 l 792 0 l 61 0 z "},"ъ":{"ha":682,"x_min":0,"x_max":639,"o":"m 244 135 l 369 135 q 497 218 497 135 q 365 301 497 301 l 244 301 l 244 135 m 244 639 l 244 438 l 372 438 q 565 378 492 438 q 639 217 639 319 q 571 56 639 113 q 378 0 503 0 l 103 0 l 103 506 l 0 506 l 0 639 l 244 639 z "},"ы":{"ha":894,"x_min":61,"x_max":833,"o":"m 692 639 l 833 639 l 833 0 l 692 0 l 692 639 m 203 135 l 356 135 q 490 215 490 135 q 351 301 490 301 l 203 301 l 203 135 m 203 639 l 203 438 l 365 438 q 558 378 485 438 q 632 214 632 318 q 564 56 632 111 q 371 0 496 0 l 61 0 l 61 639 l 203 639 z "},"ь":{"ha":675,"x_min":61,"x_max":632,"o":"m 203 135 l 356 135 q 490 215 490 135 q 351 301 490 301 l 203 301 l 203 135 m 203 639 l 203 438 l 365 438 q 558 378 485 438 q 632 214 632 318 q 564 56 632 111 q 371 0 496 0 l 61 0 l 61 639 l 203 639 z "},"э":{"ha":688,"x_min":39,"x_max":649,"o":"m 244 379 l 244 260 l 608 260 l 608 379 l 244 379 m 42 192 q 153 30 75 86 q 332 -26 231 -26 q 563 65 476 -26 q 649 319 649 156 q 563 576 649 485 q 332 668 476 668 q 141 608 221 668 q 39 436 61 547 l 178 415 q 231 510 190 476 q 332 543 272 543 q 460 485 414 543 q 506 319 506 426 q 460 155 506 213 q 332 97 414 97 q 235 127 275 97 q 178 213 196 157 l 42 192 z "},"ю":{"ha":932,"x_min":61,"x_max":893,"o":"m 481 157 q 461 186 481 157 q 440 322 440 215 q 481 487 440 429 q 594 544 522 544 q 709 487 668 544 q 750 322 750 429 q 709 157 750 215 q 594 99 668 99 q 481 157 522 99 m 297 322 q 378 70 297 160 q 594 -19 458 -19 q 812 70 731 -19 q 893 322 893 160 q 808 571 893 481 q 594 661 722 661 q 378 572 458 661 q 297 322 297 483 m 61 0 l 201 0 l 201 257 l 374 257 l 374 393 l 201 393 l 201 639 l 61 639 l 61 0 z "},"я":{"ha":665,"x_min":33,"x_max":606,"o":"m 61 0 l 208 283 l 361 283 l 214 0 l 61 0 m 464 504 l 297 504 q 175 431 175 504 q 300 351 175 351 l 464 351 l 464 504 m 464 0 l 464 215 l 300 215 q 107 273 181 215 q 33 432 33 331 q 101 585 33 532 q 294 639 169 639 l 606 639 l 606 0 l 464 0 z "},"ѐ":{"ha":701,"x_min":39,"x_max":664,"o":"m 168 963 l 301 963 l 429 731 l 336 731 l 168 963 m 183 282 q 238 146 192 193 q 367 99 285 99 q 472 131 429 99 q 525 219 514 163 l 664 197 q 560 33 639 93 q 367 -26 481 -26 q 126 67 214 -26 q 39 322 39 160 q 122 576 39 483 q 350 668 206 668 q 580 575 496 668 q 664 331 664 482 l 664 282 l 183 282 m 186 382 l 519 382 q 472 499 519 453 q 350 544 424 544 q 239 502 281 544 q 186 382 197 460 z "},"ё":{"ha":701,"x_min":39,"x_max":664,"o":"m 424 763 q 412 775 424 763 q 400 821 400 788 q 424 878 400 854 q 481 901 447 901 q 538 878 514 901 q 561 821 561 854 q 538 763 561 788 q 481 739 514 739 q 424 763 447 739 m 153 763 q 141 775 153 763 q 129 821 129 788 q 153 878 129 854 q 210 901 176 901 q 267 878 243 901 q 290 821 290 854 q 267 763 290 788 q 210 739 243 739 q 153 763 176 739 m 183 282 q 238 146 192 193 q 367 99 285 99 q 472 131 429 99 q 525 219 514 163 l 664 197 q 560 33 639 93 q 367 -26 481 -26 q 126 67 214 -26 q 39 322 39 160 q 122 576 39 483 q 350 668 206 668 q 580 575 496 668 q 664 331 664 482 l 664 282 l 183 282 m 186 382 l 519 382 q 472 499 519 453 q 350 544 424 544 q 239 502 281 544 q 186 382 197 460 z "},"ђ":{"ha":692,"x_min":0,"x_max":633,"o":"m 203 639 l 164 472 l 188 464 q 265 609 206 553 q 411 665 325 665 q 569 592 506 665 q 633 414 633 519 l 633 -15 q 578 -163 633 -111 q 429 -215 524 -215 l 354 -215 l 354 -92 l 415 -92 q 468 -65 446 -92 q 490 0 490 -39 l 490 399 q 451 503 490 464 q 350 543 413 543 q 244 502 286 543 q 203 396 203 461 l 203 0 l 61 0 l 61 747 l 0 747 l 0 861 l 61 861 l 61 954 l 203 954 l 203 861 l 421 861 l 421 747 l 203 747 l 203 639 z "},"ѓ":{"ha":576,"x_min":61,"x_max":553,"o":"m 478 963 l 310 731 l 217 731 l 344 963 l 478 963 m 61 639 l 61 0 l 203 0 l 203 506 l 553 506 l 553 639 l 61 639 z "},"є":{"ha":688,"x_min":39,"x_max":649,"o":"m 443 263 l 443 382 l 79 382 l 79 263 l 443 263 m 646 450 q 535 612 613 556 q 356 668 457 668 q 125 577 211 668 q 39 322 39 486 q 125 65 39 157 q 356 -26 211 -26 q 547 34 467 -26 q 649 206 626 94 l 508 226 q 456 132 497 165 q 356 99 415 99 q 228 157 274 99 q 182 322 182 215 q 228 487 182 429 q 356 544 274 544 q 452 515 413 544 q 508 429 492 485 l 646 450 z "},"ѕ":{"ha":619,"x_min":39,"x_max":581,"o":"m 581 167 q 572 221 581 196 q 553 264 564 246 q 522 299 543 282 q 483 325 500 315 q 438 346 467 335 q 391 363 408 357 q 342 376 374 368 q 326 381 332 379 q 272 397 292 390 q 231 415 253 404 q 199 440 208 425 q 189 475 189 456 q 218 531 189 510 q 297 551 247 551 q 438 436 406 551 l 574 465 q 288 668 517 668 q 113 617 178 668 q 47 478 47 565 q 62 407 47 439 q 97 356 76 375 q 151 318 117 336 q 213 291 186 300 q 282 271 240 282 q 300 265 288 268 q 343 253 329 257 q 378 240 357 249 q 410 222 400 231 q 429 201 421 214 q 438 171 438 188 q 407 110 438 133 q 325 86 376 86 q 174 217 207 86 l 39 194 q 142 27 61 85 q 335 -31 222 -31 q 513 24 444 -31 q 581 167 581 79 z "},"і":{"ha":260,"x_min":46,"x_max":214,"o":"m 71 750 q 58 763 71 750 q 46 810 46 775 q 71 869 46 844 q 130 894 96 894 q 189 869 164 894 q 214 810 214 844 q 189 750 214 775 q 130 725 164 725 q 71 750 96 725 m 61 639 l 203 639 l 203 0 l 61 0 l 61 639 z "},"ї":{"ha":258,"x_min":-89,"x_max":344,"o":"m 207 763 q 195 775 207 763 q 183 821 183 788 q 207 878 183 854 q 264 901 231 901 q 321 878 297 901 q 344 821 344 854 q 321 763 344 788 q 264 739 297 739 q 207 763 231 739 m -64 763 q -76 775 -64 763 q -87 821 -87 788 q -64 878 -87 854 q -7 901 -40 901 q 50 878 26 901 q 74 821 74 854 q 50 763 74 788 q -7 739 26 739 q -64 763 -40 739 m 61 639 l 203 639 l 203 0 l 61 0 l 61 639 z "},"ј":{"ha":260,"x_min":-81,"x_max":214,"o":"m 71 750 q 58 763 71 750 q 46 810 46 775 q 71 869 46 844 q 130 894 96 894 q 189 869 164 894 q 214 810 214 844 q 189 750 214 775 q 130 725 164 725 q 71 750 96 725 m 61 639 l 203 639 l 203 -47 q 142 -198 203 -142 q -22 -254 81 -254 l -81 -254 l -81 -118 l -22 -118 q 36 -90 11 -118 q 61 -18 61 -61 l 61 639 z "},"љ":{"ha":1081,"x_min":38,"x_max":1038,"o":"m 608 301 l 608 135 l 775 135 q 896 217 896 135 q 771 301 896 301 l 608 301 m 467 506 l 300 506 l 300 311 q 283 151 300 215 q 233 55 265 86 q 165 12 200 24 q 82 0 131 0 l 38 0 l 38 136 l 75 136 q 117 146 101 136 q 146 200 133 156 q 158 326 158 244 l 158 639 l 608 639 l 608 438 l 771 438 q 964 377 890 438 q 1038 210 1038 317 q 969 54 1038 108 q 776 0 901 0 l 467 0 l 467 506 z "},"њ":{"ha":960,"x_min":61,"x_max":917,"o":"m 515 135 l 515 282 l 657 282 q 775 210 775 282 q 661 135 775 135 l 515 135 m 515 639 l 374 639 l 374 0 l 656 0 q 849 52 781 0 q 917 201 917 104 q 843 356 917 300 q 650 411 769 411 l 515 411 l 515 639 m 61 0 l 201 0 l 201 274 l 415 274 l 415 410 l 201 410 l 201 639 l 61 639 l 61 0 z "},"ћ":{"ha":692,"x_min":0,"x_max":633,"o":"m 203 639 l 164 472 l 188 464 q 265 609 206 553 q 411 665 325 665 q 569 592 506 665 q 633 414 633 519 l 633 0 l 490 0 l 490 399 q 451 503 490 464 q 350 543 413 543 q 244 502 286 543 q 203 396 203 461 l 203 0 l 61 0 l 61 747 l 0 747 l 0 861 l 61 861 l 61 954 l 203 954 l 203 861 l 421 861 l 421 747 l 203 747 l 203 639 z "},"ќ":{"ha":685,"x_min":61,"x_max":661,"o":"m 524 963 l 356 731 l 263 731 l 390 963 l 524 963 m 61 639 l 203 639 l 203 340 l 488 639 l 661 639 l 397 344 l 661 0 l 489 0 l 294 258 l 203 165 l 203 0 l 61 0 l 61 639 z "},"ѝ":{"ha":719,"x_min":61,"x_max":660,"o":"m 175 963 l 308 963 l 436 731 l 343 731 l 175 963 m 204 639 l 61 639 l 61 0 l 235 0 l 517 456 l 517 0 l 658 0 l 658 639 l 486 639 l 204 186 l 204 639 z "},"ў":{"ha":679,"x_min":21,"x_max":660,"o":"m 440 910 q 410 840 440 869 q 339 810 381 810 q 267 840 297 810 q 238 910 238 869 l 129 910 q 190 780 129 832 q 339 728 250 728 q 488 780 428 728 q 549 910 549 832 l 440 910 m 365 208 l 506 639 l 658 639 l 386 -119 q 317 -223 364 -186 q 211 -260 269 -260 l 56 -260 l 56 -129 l 156 -129 q 210 -115 192 -129 q 239 -61 229 -100 l 256 0 l 22 639 l 175 639 l 317 208 l 331 131 l 350 131 l 365 208 z "},"џ":{"ha":694,"x_min":61,"x_max":633,"o":"m 288 0 l 61 0 l 61 639 l 203 639 l 203 133 l 492 133 l 492 639 l 633 639 l 633 0 l 422 0 l 422 -171 l 288 -171 l 288 0 z "},"Ґ":{"ha":699,"x_min":61,"x_max":671,"o":"m 61 908 l 61 0 l 203 0 l 203 775 l 671 775 l 671 1051 l 529 1051 l 529 908 l 61 908 z "},"ґ":{"ha":576,"x_min":61,"x_max":553,"o":"m 61 639 l 61 0 l 203 0 l 203 506 l 553 506 l 553 740 l 411 740 l 411 639 l 61 639 z "},"Ғ":{"ha":699,"x_min":0,"x_max":671,"o":"m 0 525 l 0 406 l 419 406 l 419 525 l 0 525 m 61 908 l 61 0 l 203 0 l 203 775 l 671 775 l 671 908 l 61 908 z "},"ғ":{"ha":576,"x_min":0,"x_max":553,"o":"m 0 372 l 0 253 l 378 253 l 378 372 l 0 372 m 61 639 l 61 0 l 203 0 l 203 506 l 553 506 l 553 639 l 61 639 z "},"Ạ":{"ha":883,"x_min":21,"x_max":863,"o":"m 394 -242 q 382 -230 394 -242 q 369 -183 369 -217 q 394 -124 369 -149 q 454 -99 419 -99 q 513 -124 489 -99 q 538 -182 538 -149 q 513 -242 538 -217 q 454 -268 489 -268 q 394 -242 419 -268 m 228 375 l 660 375 l 660 242 l 228 242 l 228 375 m 417 715 l 175 0 l 21 0 l 331 908 l 550 908 l 863 0 l 711 0 l 465 715 l 450 792 l 432 792 l 417 715 z "},"ạ":{"ha":660,"x_min":39,"x_max":599,"o":"m 267 -242 q 254 -230 267 -242 q 242 -183 242 -217 q 267 -124 242 -149 q 326 -99 292 -99 q 385 -124 361 -99 q 410 -182 410 -149 q 385 -242 410 -217 q 326 -268 361 -268 q 267 -242 292 -268 m 182 178 q 213 119 182 139 q 296 100 244 100 q 411 140 367 100 q 456 243 456 181 l 481 243 q 417 47 481 121 q 249 -26 353 -26 q 99 25 158 -26 q 39 157 39 76 q 83 272 39 229 q 218 340 126 314 l 456 403 l 456 306 l 267 257 q 182 178 182 235 m 599 0 l 456 0 l 497 163 l 456 181 l 456 422 q 419 507 456 475 q 324 539 383 539 q 224 502 263 539 q 179 407 186 465 l 39 428 q 131 599 54 532 q 326 665 207 665 q 523 599 447 665 q 599 438 599 533 l 599 0 z "},"Ả":{"ha":883,"x_min":21,"x_max":863,"o":"m 463 1078 q 468 1087 463 1078 q 474 1110 474 1096 q 464 1135 474 1125 q 439 1144 454 1144 q 415 1135 426 1144 q 400 1104 404 1125 l 315 1129 q 362 1203 325 1178 q 440 1229 399 1229 q 526 1195 490 1229 q 561 1111 561 1161 q 550 1064 561 1088 q 528 1028 539 1040 q 496 993 518 1015 q 469 965 474 971 l 413 1022 q 442 1050 432 1040 q 463 1078 451 1060 m 228 375 l 660 375 l 660 242 l 228 242 l 228 375 m 417 715 l 175 0 l 21 0 l 331 908 l 550 908 l 863 0 l 711 0 l 465 715 l 450 792 l 432 792 l 417 715 z "},"ả":{"ha":660,"x_min":39,"x_max":599,"o":"m 357 824 q 363 833 357 824 q 368 856 368 842 q 358 881 368 871 q 333 890 349 890 q 310 881 321 890 q 294 850 299 871 l 210 875 q 256 949 219 924 q 335 975 293 975 q 420 941 385 975 q 456 857 456 907 q 444 810 456 833 q 423 774 433 786 q 390 739 413 761 q 364 711 368 717 l 307 768 q 336 796 326 786 q 357 824 346 806 m 182 178 q 213 119 182 139 q 296 100 244 100 q 411 140 367 100 q 456 243 456 181 l 481 243 q 417 47 481 121 q 249 -26 353 -26 q 99 25 158 -26 q 39 157 39 76 q 83 272 39 229 q 218 340 126 314 l 456 403 l 456 306 l 267 257 q 182 178 182 235 m 599 0 l 456 0 l 497 163 l 456 181 l 456 422 q 419 507 456 475 q 324 539 383 539 q 224 502 263 539 q 179 407 186 465 l 39 428 q 131 599 54 532 q 326 665 207 665 q 523 599 447 665 q 599 438 599 533 l 599 0 z "},"Ấ":{"ha":883,"x_min":21,"x_max":879,"o":"m 879 1361 l 711 1129 l 618 1129 l 746 1361 l 879 1361 m 422 1097 l 328 983 l 206 983 l 364 1172 l 522 1172 l 681 983 l 558 983 l 464 1097 l 451 1126 l 435 1126 l 422 1097 m 228 375 l 660 375 l 660 242 l 228 242 l 228 375 m 417 715 l 175 0 l 21 0 l 331 908 l 550 908 l 863 0 l 711 0 l 465 715 l 450 792 l 432 792 l 417 715 z "},"ấ":{"ha":660,"x_min":39,"x_max":774,"o":"m 774 1107 l 606 875 l 513 875 l 640 1107 l 774 1107 m 317 843 l 222 729 l 100 729 l 258 918 l 417 918 l 575 729 l 453 729 l 358 843 l 346 872 l 329 872 l 317 843 m 182 178 q 213 119 182 139 q 296 100 244 100 q 411 140 367 100 q 456 243 456 181 l 481 243 q 417 47 481 121 q 249 -26 353 -26 q 99 25 158 -26 q 39 157 39 76 q 83 272 39 229 q 218 340 126 314 l 456 403 l 456 306 l 267 257 q 182 178 182 235 m 599 0 l 456 0 l 497 163 l 456 181 l 456 422 q 419 507 456 475 q 324 539 383 539 q 224 502 263 539 q 179 407 186 465 l 39 428 q 131 599 54 532 q 326 665 207 665 q 523 599 447 665 q 599 438 599 533 l 599 0 z "},"Ầ":{"ha":883,"x_min":21,"x_max":863,"o":"m 507 1361 l 640 1361 l 768 1129 l 675 1129 l 507 1361 m 422 1097 l 328 983 l 206 983 l 364 1172 l 522 1172 l 681 983 l 558 983 l 464 1097 l 451 1126 l 435 1126 l 422 1097 m 228 375 l 660 375 l 660 242 l 228 242 l 228 375 m 417 715 l 175 0 l 21 0 l 331 908 l 550 908 l 863 0 l 711 0 l 465 715 l 450 792 l 432 792 l 417 715 z "},"ầ":{"ha":660,"x_min":39,"x_max":664,"o":"m 401 1107 l 535 1107 l 663 875 l 569 875 l 401 1107 m 317 843 l 222 729 l 100 729 l 258 918 l 417 918 l 575 729 l 453 729 l 358 843 l 346 872 l 329 872 l 317 843 m 182 178 q 213 119 182 139 q 296 100 244 100 q 411 140 367 100 q 456 243 456 181 l 481 243 q 417 47 481 121 q 249 -26 353 -26 q 99 25 158 -26 q 39 157 39 76 q 83 272 39 229 q 218 340 126 314 l 456 403 l 456 306 l 267 257 q 182 178 182 235 m 599 0 l 456 0 l 497 163 l 456 181 l 456 422 q 419 507 456 475 q 324 539 383 539 q 224 502 263 539 q 179 407 186 465 l 39 428 q 131 599 54 532 q 326 665 207 665 q 523 599 447 665 q 599 438 599 533 l 599 0 z "},"Ẩ":{"ha":883,"x_min":21,"x_max":863,"o":"m 683 1228 q 689 1237 683 1228 q 694 1260 694 1246 q 685 1285 694 1275 q 660 1294 675 1294 q 636 1285 647 1294 q 621 1254 625 1275 l 536 1279 q 583 1353 546 1328 q 661 1379 619 1379 q 747 1345 711 1379 q 782 1261 782 1311 q 771 1214 782 1238 q 749 1178 760 1190 q 717 1143 739 1165 q 690 1115 694 1121 l 633 1172 q 663 1200 653 1190 q 683 1228 672 1210 m 422 1097 l 328 983 l 206 983 l 364 1172 l 522 1172 l 681 983 l 558 983 l 464 1097 l 451 1126 l 435 1126 l 422 1097 m 228 375 l 660 375 l 660 242 l 228 242 l 228 375 m 417 715 l 175 0 l 21 0 l 331 908 l 550 908 l 863 0 l 711 0 l 465 715 l 450 792 l 432 792 l 417 715 z "},"ẩ":{"ha":660,"x_min":39,"x_max":676,"o":"m 578 974 q 583 983 578 974 q 589 1006 589 992 q 579 1031 589 1021 q 554 1040 569 1040 q 531 1031 542 1040 q 515 1000 519 1021 l 431 1025 q 477 1099 440 1074 q 556 1125 514 1125 q 641 1091 606 1125 q 676 1007 676 1057 q 665 960 676 983 q 644 924 654 936 q 611 889 633 911 q 585 861 589 867 l 528 918 q 557 946 547 936 q 578 974 567 956 m 317 843 l 222 729 l 100 729 l 258 918 l 417 918 l 575 729 l 453 729 l 358 843 l 346 872 l 329 872 l 317 843 m 182 178 q 213 119 182 139 q 296 100 244 100 q 411 140 367 100 q 456 243 456 181 l 481 243 q 417 47 481 121 q 249 -26 353 -26 q 99 25 158 -26 q 39 157 39 76 q 83 272 39 229 q 218 340 126 314 l 456 403 l 456 306 l 267 257 q 182 178 182 235 m 599 0 l 456 0 l 497 163 l 456 181 l 456 422 q 419 507 456 475 q 324 539 383 539 q 224 502 263 539 q 179 407 186 465 l 39 428 q 131 599 54 532 q 326 665 207 665 q 523 599 447 665 q 599 438 599 533 l 599 0 z "},"Ẫ":{"ha":883,"x_min":21,"x_max":863,"o":"m 579 1401 q 542 1311 579 1311 q 510 1320 525 1311 q 489 1335 494 1329 q 467 1361 483 1342 q 442 1388 453 1378 q 409 1406 431 1397 q 361 1415 388 1415 q 265 1373 299 1415 q 232 1250 232 1331 l 314 1239 q 358 1335 314 1335 q 377 1332 368 1335 q 395 1322 386 1329 q 409 1310 404 1315 q 424 1292 414 1304 q 439 1276 435 1281 q 543 1229 485 1229 q 663 1392 663 1229 l 579 1401 m 422 1097 l 328 983 l 206 983 l 364 1172 l 522 1172 l 681 983 l 558 983 l 464 1097 l 451 1126 l 435 1126 l 422 1097 m 228 375 l 660 375 l 660 242 l 228 242 l 228 375 m 417 715 l 175 0 l 21 0 l 331 908 l 550 908 l 863 0 l 711 0 l 465 715 l 450 792 l 432 792 l 417 715 z "},"ẫ":{"ha":660,"x_min":39,"x_max":599,"o":"m 465 1133 q 428 1043 465 1043 q 396 1052 411 1043 q 375 1067 381 1061 q 353 1093 369 1074 q 328 1119 339 1110 q 295 1138 317 1129 q 247 1147 274 1147 q 151 1105 185 1147 q 118 982 118 1063 l 200 971 q 244 1067 200 1067 q 263 1064 254 1067 q 281 1054 272 1061 q 295 1042 290 1047 q 310 1024 300 1036 q 325 1008 321 1013 q 429 961 371 961 q 549 1124 549 961 l 465 1133 m 317 843 l 222 729 l 100 729 l 258 918 l 417 918 l 575 729 l 453 729 l 358 843 l 346 872 l 329 872 l 317 843 m 182 178 q 213 119 182 139 q 296 100 244 100 q 411 140 367 100 q 456 243 456 181 l 481 243 q 417 47 481 121 q 249 -26 353 -26 q 99 25 158 -26 q 39 157 39 76 q 83 272 39 229 q 218 340 126 314 l 456 403 l 456 306 l 267 257 q 182 178 182 235 m 599 0 l 456 0 l 497 163 l 456 181 l 456 422 q 419 507 456 475 q 324 539 383 539 q 224 502 263 539 q 179 407 186 465 l 39 428 q 131 599 54 532 q 326 665 207 665 q 523 599 447 665 q 599 438 599 533 l 599 0 z "},"Ậ":{"ha":883,"x_min":21,"x_max":863,"o":"m 421 1128 l 326 1014 l 204 1014 l 363 1203 l 521 1203 l 679 1014 l 557 1014 l 463 1128 l 450 1157 l 433 1157 l 421 1128 m 394 -242 q 382 -230 394 -242 q 369 -183 369 -217 q 394 -124 369 -149 q 454 -99 419 -99 q 513 -124 489 -99 q 538 -182 538 -149 q 513 -242 538 -217 q 454 -268 489 -268 q 394 -242 419 -268 m 228 375 l 660 375 l 660 242 l 228 242 l 228 375 m 417 715 l 175 0 l 21 0 l 331 908 l 550 908 l 863 0 l 711 0 l 465 715 l 450 792 l 432 792 l 417 715 z "},"ậ":{"ha":660,"x_min":39,"x_max":599,"o":"m 306 865 l 211 751 l 89 751 l 247 940 l 406 940 l 564 751 l 442 751 l 347 865 l 335 894 l 318 894 l 306 865 m 267 -242 q 254 -230 267 -242 q 242 -183 242 -217 q 267 -124 242 -149 q 326 -99 292 -99 q 385 -124 361 -99 q 410 -182 410 -149 q 385 -242 410 -217 q 326 -268 361 -268 q 267 -242 292 -268 m 182 178 q 213 119 182 139 q 296 100 244 100 q 411 140 367 100 q 456 243 456 181 l 481 243 q 417 47 481 121 q 249 -26 353 -26 q 99 25 158 -26 q 39 157 39 76 q 83 272 39 229 q 218 340 126 314 l 456 403 l 456 306 l 267 257 q 182 178 182 235 m 599 0 l 456 0 l 497 163 l 456 181 l 456 422 q 419 507 456 475 q 324 539 383 539 q 224 502 263 539 q 179 407 186 465 l 39 428 q 131 599 54 532 q 326 665 207 665 q 523 599 447 665 q 599 438 599 533 l 599 0 z "},"Ắ":{"ha":883,"x_min":21,"x_max":863,"o":"m 626 1425 l 458 1193 l 365 1193 l 493 1425 l 626 1425 m 544 1164 q 515 1094 544 1124 q 443 1064 485 1064 q 372 1094 401 1064 q 342 1164 342 1124 l 233 1164 q 294 1034 233 1086 q 443 982 354 982 q 592 1034 532 982 q 653 1164 653 1086 l 544 1164 m 228 375 l 660 375 l 660 242 l 228 242 l 228 375 m 417 715 l 175 0 l 21 0 l 331 908 l 550 908 l 863 0 l 711 0 l 465 715 l 450 792 l 432 792 l 417 715 z "},"ắ":{"ha":660,"x_min":39,"x_max":599,"o":"m 501 1186 l 333 954 l 240 954 l 368 1186 l 501 1186 m 439 910 q 409 840 439 869 q 338 810 379 810 q 266 840 296 810 q 236 910 236 869 l 128 910 q 188 780 128 832 q 338 728 249 728 q 487 780 426 728 q 547 910 547 832 l 439 910 m 182 178 q 213 119 182 139 q 296 100 244 100 q 411 140 367 100 q 456 243 456 181 l 481 243 q 417 47 481 121 q 249 -26 353 -26 q 99 25 158 -26 q 39 157 39 76 q 83 272 39 229 q 218 340 126 314 l 456 403 l 456 306 l 267 257 q 182 178 182 235 m 599 0 l 456 0 l 497 163 l 456 181 l 456 422 q 419 507 456 475 q 324 539 383 539 q 224 502 263 539 q 179 407 186 465 l 39 428 q 131 599 54 532 q 326 665 207 665 q 523 599 447 665 q 599 438 599 533 l 599 0 z "},"Ằ":{"ha":883,"x_min":21,"x_max":863,"o":"m 260 1425 l 393 1425 l 521 1193 l 428 1193 l 260 1425 m 544 1164 q 515 1094 544 1124 q 443 1064 485 1064 q 372 1094 401 1064 q 342 1164 342 1124 l 233 1164 q 294 1034 233 1086 q 443 982 354 982 q 592 1034 532 982 q 653 1164 653 1086 l 544 1164 m 228 375 l 660 375 l 660 242 l 228 242 l 228 375 m 417 715 l 175 0 l 21 0 l 331 908 l 550 908 l 863 0 l 711 0 l 465 715 l 450 792 l 432 792 l 417 715 z "},"ằ":{"ha":660,"x_min":39,"x_max":599,"o":"m 135 1186 l 268 1186 l 396 954 l 303 954 l 135 1186 m 439 910 q 409 840 439 869 q 338 810 379 810 q 266 840 296 810 q 236 910 236 869 l 128 910 q 188 780 128 832 q 338 728 249 728 q 487 780 426 728 q 547 910 547 832 l 439 910 m 182 178 q 213 119 182 139 q 296 100 244 100 q 411 140 367 100 q 456 243 456 181 l 481 243 q 417 47 481 121 q 249 -26 353 -26 q 99 25 158 -26 q 39 157 39 76 q 83 272 39 229 q 218 340 126 314 l 456 403 l 456 306 l 267 257 q 182 178 182 235 m 599 0 l 456 0 l 497 163 l 456 181 l 456 422 q 419 507 456 475 q 324 539 383 539 q 224 502 263 539 q 179 407 186 465 l 39 428 q 131 599 54 532 q 326 665 207 665 q 523 599 447 665 q 599 438 599 533 l 599 0 z "},"Ẳ":{"ha":883,"x_min":21,"x_max":863,"o":"m 464 1286 q 469 1295 464 1286 q 475 1319 475 1304 q 465 1343 475 1333 q 440 1353 456 1353 q 417 1343 428 1353 q 401 1313 406 1333 l 317 1338 q 363 1412 326 1386 q 442 1438 400 1438 q 527 1403 492 1438 q 563 1319 563 1369 q 551 1272 563 1296 q 530 1236 540 1249 q 497 1201 519 1224 q 471 1174 475 1179 l 414 1231 q 443 1258 433 1249 q 464 1286 453 1268 m 544 1164 q 515 1094 544 1124 q 443 1064 485 1064 q 372 1094 401 1064 q 342 1164 342 1124 l 233 1164 q 294 1034 233 1086 q 443 982 354 982 q 592 1034 532 982 q 653 1164 653 1086 l 544 1164 m 228 375 l 660 375 l 660 242 l 228 242 l 228 375 m 417 715 l 175 0 l 21 0 l 331 908 l 550 908 l 863 0 l 711 0 l 465 715 l 450 792 l 432 792 l 417 715 z "},"ẳ":{"ha":660,"x_min":39,"x_max":599,"o":"m 338 1047 q 343 1056 338 1047 q 349 1080 349 1065 q 339 1104 349 1094 q 314 1114 329 1114 q 290 1104 301 1114 q 275 1074 279 1094 l 190 1099 q 237 1173 200 1147 q 315 1199 274 1199 q 401 1165 365 1199 q 436 1081 436 1131 q 425 1033 436 1057 q 403 997 414 1010 q 371 963 393 985 q 344 935 349 940 l 288 992 q 317 1019 307 1010 q 338 1047 326 1029 m 439 910 q 409 840 439 869 q 338 810 379 810 q 266 840 296 810 q 236 910 236 869 l 128 910 q 188 780 128 832 q 338 728 249 728 q 487 780 426 728 q 547 910 547 832 l 439 910 m 182 178 q 213 119 182 139 q 296 100 244 100 q 411 140 367 100 q 456 243 456 181 l 481 243 q 417 47 481 121 q 249 -26 353 -26 q 99 25 158 -26 q 39 157 39 76 q 83 272 39 229 q 218 340 126 314 l 456 403 l 456 306 l 267 257 q 182 178 182 235 m 599 0 l 456 0 l 497 163 l 456 181 l 456 422 q 419 507 456 475 q 324 539 383 539 q 224 502 263 539 q 179 407 186 465 l 39 428 q 131 599 54 532 q 326 665 207 665 q 523 599 447 665 q 599 438 599 533 l 599 0 z "},"Ẵ":{"ha":883,"x_min":21,"x_max":863,"o":"m 579 1357 q 542 1267 579 1267 q 510 1276 525 1267 q 489 1291 494 1285 q 467 1317 483 1297 q 442 1343 453 1333 q 409 1362 431 1353 q 361 1371 388 1371 q 265 1328 299 1371 q 232 1206 232 1286 l 314 1194 q 358 1290 314 1290 q 377 1288 368 1290 q 395 1278 386 1285 q 409 1265 404 1271 q 424 1248 414 1260 q 439 1232 435 1236 q 543 1185 485 1185 q 663 1347 663 1185 l 579 1357 m 544 1164 q 515 1094 544 1124 q 443 1064 485 1064 q 372 1094 401 1064 q 342 1164 342 1124 l 233 1164 q 294 1034 233 1086 q 443 982 354 982 q 592 1034 532 982 q 653 1164 653 1086 l 544 1164 m 228 375 l 660 375 l 660 242 l 228 242 l 228 375 m 417 715 l 175 0 l 21 0 l 331 908 l 550 908 l 863 0 l 711 0 l 465 715 l 450 792 l 432 792 l 417 715 z "},"ẵ":{"ha":660,"x_min":39,"x_max":599,"o":"m 453 1118 q 415 1028 453 1028 q 383 1037 399 1028 q 363 1052 368 1046 q 340 1078 357 1058 q 315 1104 326 1094 q 283 1123 304 1114 q 235 1132 261 1132 q 139 1090 172 1132 q 106 967 106 1047 l 188 956 q 232 1051 188 1051 q 251 1049 242 1051 q 269 1039 260 1046 q 283 1026 278 1032 q 298 1009 288 1021 q 313 993 308 997 q 417 946 358 946 q 536 1108 536 946 l 453 1118 m 439 910 q 409 840 439 869 q 338 810 379 810 q 266 840 296 810 q 236 910 236 869 l 128 910 q 188 780 128 832 q 338 728 249 728 q 487 780 426 728 q 547 910 547 832 l 439 910 m 182 178 q 213 119 182 139 q 296 100 244 100 q 411 140 367 100 q 456 243 456 181 l 481 243 q 417 47 481 121 q 249 -26 353 -26 q 99 25 158 -26 q 39 157 39 76 q 83 272 39 229 q 218 340 126 314 l 456 403 l 456 306 l 267 257 q 182 178 182 235 m 599 0 l 456 0 l 497 163 l 456 181 l 456 422 q 419 507 456 475 q 324 539 383 539 q 224 502 263 539 q 179 407 186 465 l 39 428 q 131 599 54 532 q 326 665 207 665 q 523 599 447 665 q 599 438 599 533 l 599 0 z "},"Ặ":{"ha":883,"x_min":21,"x_max":863,"o":"m 543 1196 q 513 1126 543 1156 q 442 1096 483 1096 q 370 1126 400 1096 q 340 1196 340 1156 l 232 1196 q 292 1066 232 1118 q 442 1014 353 1014 q 591 1066 531 1014 q 651 1196 651 1118 l 543 1196 m 394 -242 q 382 -230 394 -242 q 369 -183 369 -217 q 394 -124 369 -149 q 454 -99 419 -99 q 513 -124 489 -99 q 538 -182 538 -149 q 513 -242 538 -217 q 454 -268 489 -268 q 394 -242 419 -268 m 228 375 l 660 375 l 660 242 l 228 242 l 228 375 m 417 715 l 175 0 l 21 0 l 331 908 l 550 908 l 863 0 l 711 0 l 465 715 l 450 792 l 432 792 l 417 715 z "},"ặ":{"ha":660,"x_min":39,"x_max":599,"o":"m 428 933 q 398 863 428 893 q 326 833 368 833 q 255 863 285 833 q 225 933 225 893 l 117 933 q 177 803 117 856 q 326 751 238 751 q 476 803 415 751 q 536 933 536 856 l 428 933 m 267 -242 q 254 -230 267 -242 q 242 -183 242 -217 q 267 -124 242 -149 q 326 -99 292 -99 q 385 -124 361 -99 q 410 -182 410 -149 q 385 -242 410 -217 q 326 -268 361 -268 q 267 -242 292 -268 m 182 178 q 213 119 182 139 q 296 100 244 100 q 411 140 367 100 q 456 243 456 181 l 481 243 q 417 47 481 121 q 249 -26 353 -26 q 99 25 158 -26 q 39 157 39 76 q 83 272 39 229 q 218 340 126 314 l 456 403 l 456 306 l 267 257 q 182 178 182 235 m 599 0 l 456 0 l 497 163 l 456 181 l 456 422 q 419 507 456 475 q 324 539 383 539 q 224 502 263 539 q 179 407 186 465 l 39 428 q 131 599 54 532 q 326 665 207 665 q 523 599 447 665 q 599 438 599 533 l 599 0 z "},"Ẹ":{"ha":742,"x_min":61,"x_max":707,"o":"m 343 -242 q 331 -230 343 -242 q 318 -183 318 -217 q 343 -124 318 -149 q 403 -99 368 -99 q 462 -124 438 -99 q 486 -182 486 -149 q 462 -242 486 -217 q 403 -268 438 -268 q 343 -242 368 -268 m 61 908 l 707 908 l 707 775 l 203 775 l 203 521 l 686 521 l 686 386 l 203 386 l 203 135 l 707 135 l 707 0 l 61 0 l 61 908 z "},"ẹ":{"ha":701,"x_min":39,"x_max":663,"o":"m 304 -242 q 292 -230 304 -242 q 279 -183 279 -217 q 304 -124 279 -149 q 364 -99 329 -99 q 423 -124 399 -99 q 447 -182 447 -149 q 423 -242 447 -217 q 364 -268 399 -268 q 304 -242 329 -268 m 183 282 q 238 146 190 193 q 365 99 285 99 q 472 131 429 99 q 525 219 514 163 l 663 197 q 559 33 639 93 q 365 -26 479 -26 q 126 67 213 -26 q 39 322 39 160 q 122 576 39 483 q 350 668 206 668 q 579 575 496 668 q 663 331 663 482 l 663 282 l 183 282 m 186 382 l 518 382 q 470 499 518 453 q 350 544 422 544 q 238 502 281 544 q 186 382 196 460 z "},"Ẻ":{"ha":742,"x_min":61,"x_max":707,"o":"m 419 1078 q 425 1087 419 1078 q 431 1110 431 1096 q 421 1135 431 1125 q 396 1144 411 1144 q 372 1135 383 1144 q 357 1104 361 1125 l 272 1129 q 319 1203 282 1178 q 397 1229 356 1229 q 483 1195 447 1229 q 518 1111 518 1161 q 507 1064 518 1088 q 485 1028 496 1040 q 453 993 475 1015 q 426 965 431 971 l 369 1022 q 399 1050 389 1040 q 419 1078 408 1060 m 61 908 l 707 908 l 707 775 l 203 775 l 203 521 l 686 521 l 686 386 l 203 386 l 203 135 l 707 135 l 707 0 l 61 0 l 61 908 z "},"ẻ":{"ha":701,"x_min":39,"x_max":663,"o":"m 369 824 q 375 833 369 824 q 381 856 381 842 q 371 881 381 871 q 346 890 361 890 q 322 881 333 890 q 307 850 311 871 l 222 875 q 269 949 232 924 q 347 975 306 975 q 433 941 397 975 q 468 857 468 907 q 457 810 468 833 q 435 774 446 786 q 403 739 425 761 q 376 711 381 717 l 319 768 q 349 796 339 786 q 369 824 358 806 m 183 282 q 238 146 190 193 q 365 99 285 99 q 472 131 429 99 q 525 219 514 163 l 663 197 q 559 33 639 93 q 365 -26 479 -26 q 126 67 213 -26 q 39 322 39 160 q 122 576 39 483 q 350 668 206 668 q 579 575 496 668 q 663 331 663 482 l 663 282 l 183 282 m 186 382 l 518 382 q 470 499 518 453 q 350 544 422 544 q 238 502 281 544 q 186 382 196 460 z "},"Ẽ":{"ha":742,"x_min":61,"x_max":707,"o":"m 535 1149 q 497 1058 535 1058 q 465 1067 481 1058 q 444 1083 450 1076 q 422 1108 439 1089 q 397 1135 408 1125 q 365 1153 386 1144 q 317 1163 343 1163 q 221 1120 254 1163 q 188 997 188 1078 l 269 986 q 314 1082 269 1082 q 333 1079 324 1082 q 351 1069 342 1076 q 365 1057 360 1063 q 380 1040 369 1051 q 394 1024 390 1028 q 499 976 440 976 q 618 1139 618 976 l 535 1149 m 61 908 l 707 908 l 707 775 l 203 775 l 203 521 l 686 521 l 686 386 l 203 386 l 203 135 l 707 135 l 707 0 l 61 0 l 61 908 z "},"ẽ":{"ha":701,"x_min":39,"x_max":663,"o":"m 485 894 q 447 804 485 804 q 415 813 431 804 q 394 828 400 822 q 372 854 389 835 q 347 881 358 871 q 315 899 336 890 q 267 908 293 908 q 171 866 204 908 q 138 743 138 824 l 219 732 q 264 828 219 828 q 283 825 274 828 q 301 815 292 822 q 315 803 310 808 q 330 785 319 797 q 344 769 340 774 q 449 722 390 722 q 568 885 568 722 l 485 894 m 183 282 q 238 146 190 193 q 365 99 285 99 q 472 131 429 99 q 525 219 514 163 l 663 197 q 559 33 639 93 q 365 -26 479 -26 q 126 67 213 -26 q 39 322 39 160 q 122 576 39 483 q 350 668 206 668 q 579 575 496 668 q 663 331 663 482 l 663 282 l 183 282 m 186 382 l 518 382 q 470 499 518 453 q 350 544 422 544 q 238 502 281 544 q 186 382 196 460 z "},"Ế":{"ha":742,"x_min":61,"x_max":838,"o":"m 836 1361 l 668 1129 l 575 1129 l 703 1361 l 836 1361 m 379 1097 l 285 983 l 163 983 l 321 1172 l 479 1172 l 638 983 l 515 983 l 421 1097 l 408 1126 l 392 1126 l 379 1097 m 61 908 l 707 908 l 707 775 l 203 775 l 203 521 l 686 521 l 686 386 l 203 386 l 203 135 l 707 135 l 707 0 l 61 0 l 61 908 z "},"ế":{"ha":701,"x_min":39,"x_max":786,"o":"m 786 1107 l 618 875 l 525 875 l 653 1107 l 786 1107 m 329 843 l 235 729 l 113 729 l 271 918 l 429 918 l 588 729 l 465 729 l 371 843 l 358 872 l 342 872 l 329 843 m 183 282 q 238 146 190 193 q 365 99 285 99 q 472 131 429 99 q 525 219 514 163 l 663 197 q 559 33 639 93 q 365 -26 479 -26 q 126 67 213 -26 q 39 322 39 160 q 122 576 39 483 q 350 668 206 668 q 579 575 496 668 q 663 331 663 482 l 663 282 l 183 282 m 186 382 l 518 382 q 470 499 518 453 q 350 544 422 544 q 238 502 281 544 q 186 382 196 460 z "},"Ề":{"ha":742,"x_min":61,"x_max":726,"o":"m 464 1361 l 597 1361 l 725 1129 l 632 1129 l 464 1361 m 379 1097 l 285 983 l 163 983 l 321 1172 l 479 1172 l 638 983 l 515 983 l 421 1097 l 408 1126 l 392 1126 l 379 1097 m 61 908 l 707 908 l 707 775 l 203 775 l 203 521 l 686 521 l 686 386 l 203 386 l 203 135 l 707 135 l 707 0 l 61 0 l 61 908 z "},"ề":{"ha":701,"x_min":39,"x_max":676,"o":"m 414 1107 l 547 1107 l 675 875 l 582 875 l 414 1107 m 329 843 l 235 729 l 113 729 l 271 918 l 429 918 l 588 729 l 465 729 l 371 843 l 358 872 l 342 872 l 329 843 m 183 282 q 238 146 190 193 q 365 99 285 99 q 472 131 429 99 q 525 219 514 163 l 663 197 q 559 33 639 93 q 365 -26 479 -26 q 126 67 213 -26 q 39 322 39 160 q 122 576 39 483 q 350 668 206 668 q 579 575 496 668 q 663 331 663 482 l 663 282 l 183 282 m 186 382 l 518 382 q 470 499 518 453 q 350 544 422 544 q 238 502 281 544 q 186 382 196 460 z "},"Ể":{"ha":742,"x_min":61,"x_max":740,"o":"m 640 1228 q 646 1237 640 1228 q 651 1260 651 1246 q 642 1285 651 1275 q 617 1294 632 1294 q 593 1285 604 1294 q 578 1254 582 1275 l 493 1279 q 540 1353 503 1328 q 618 1379 576 1379 q 703 1345 668 1379 q 739 1261 739 1311 q 728 1214 739 1238 q 706 1178 717 1190 q 674 1143 696 1165 q 647 1115 651 1121 l 590 1172 q 619 1200 610 1190 q 640 1228 629 1210 m 379 1097 l 285 983 l 163 983 l 321 1172 l 479 1172 l 638 983 l 515 983 l 421 1097 l 408 1126 l 392 1126 l 379 1097 m 61 908 l 707 908 l 707 775 l 203 775 l 203 521 l 686 521 l 686 386 l 203 386 l 203 135 l 707 135 l 707 0 l 61 0 l 61 908 z "},"ể":{"ha":701,"x_min":39,"x_max":689,"o":"m 590 974 q 596 983 590 974 q 601 1006 601 992 q 592 1031 601 1021 q 567 1040 582 1040 q 543 1031 554 1040 q 528 1000 532 1021 l 443 1025 q 490 1099 453 1074 q 568 1125 526 1125 q 653 1091 618 1125 q 689 1007 689 1057 q 678 960 689 983 q 656 924 667 936 q 624 889 646 911 q 597 861 601 867 l 540 918 q 569 946 560 936 q 590 974 579 956 m 329 843 l 235 729 l 113 729 l 271 918 l 429 918 l 588 729 l 465 729 l 371 843 l 358 872 l 342 872 l 329 843 m 183 282 q 238 146 190 193 q 365 99 285 99 q 472 131 429 99 q 525 219 514 163 l 663 197 q 559 33 639 93 q 365 -26 479 -26 q 126 67 213 -26 q 39 322 39 160 q 122 576 39 483 q 350 668 206 668 q 579 575 496 668 q 663 331 663 482 l 663 282 l 183 282 m 186 382 l 518 382 q 470 499 518 453 q 350 544 422 544 q 238 502 281 544 q 186 382 196 460 z "},"Ễ":{"ha":742,"x_min":61,"x_max":707,"o":"m 532 1401 q 494 1311 532 1311 q 463 1320 478 1311 q 442 1335 447 1329 q 419 1361 436 1342 q 394 1388 406 1378 q 362 1406 383 1397 q 314 1415 340 1415 q 218 1373 251 1415 q 185 1250 185 1331 l 267 1239 q 311 1335 267 1335 q 330 1332 321 1335 q 348 1322 339 1329 q 362 1310 357 1315 q 377 1292 367 1304 q 392 1276 388 1281 q 496 1229 438 1229 q 615 1392 615 1229 l 532 1401 m 379 1097 l 285 983 l 163 983 l 321 1172 l 479 1172 l 638 983 l 515 983 l 421 1097 l 408 1126 l 392 1126 l 379 1097 m 61 908 l 707 908 l 707 775 l 203 775 l 203 521 l 686 521 l 686 386 l 203 386 l 203 135 l 707 135 l 707 0 l 61 0 l 61 908 z "},"ễ":{"ha":701,"x_min":39,"x_max":663,"o":"m 479 1133 q 442 1043 479 1043 q 410 1052 425 1043 q 389 1067 394 1061 q 367 1093 383 1074 q 342 1119 353 1110 q 309 1138 331 1129 q 261 1147 288 1147 q 165 1105 199 1147 q 132 982 132 1063 l 214 971 q 258 1067 214 1067 q 277 1064 268 1067 q 295 1054 286 1061 q 309 1042 304 1047 q 324 1024 314 1036 q 339 1008 335 1013 q 443 961 385 961 q 563 1124 563 961 l 479 1133 m 329 843 l 235 729 l 113 729 l 271 918 l 429 918 l 588 729 l 465 729 l 371 843 l 358 872 l 342 872 l 329 843 m 183 282 q 238 146 190 193 q 365 99 285 99 q 472 131 429 99 q 525 219 514 163 l 663 197 q 559 33 639 93 q 365 -26 479 -26 q 126 67 213 -26 q 39 322 39 160 q 122 576 39 483 q 350 668 206 668 q 579 575 496 668 q 663 331 663 482 l 663 282 l 183 282 m 186 382 l 518 382 q 470 499 518 453 q 350 544 422 544 q 238 502 281 544 q 186 382 196 460 z "},"Ệ":{"ha":742,"x_min":61,"x_max":707,"o":"m 363 1128 l 268 1014 l 146 1014 l 304 1203 l 463 1203 l 621 1014 l 499 1014 l 404 1128 l 392 1157 l 375 1157 l 363 1128 m 343 -242 q 331 -230 343 -242 q 318 -183 318 -217 q 343 -124 318 -149 q 403 -99 368 -99 q 462 -124 438 -99 q 486 -182 486 -149 q 462 -242 486 -217 q 403 -268 438 -268 q 343 -242 368 -268 m 61 908 l 707 908 l 707 775 l 203 775 l 203 521 l 686 521 l 686 386 l 203 386 l 203 135 l 707 135 l 707 0 l 61 0 l 61 908 z "},"ệ":{"ha":701,"x_min":39,"x_max":663,"o":"m 329 865 l 235 751 l 113 751 l 271 940 l 429 940 l 588 751 l 465 751 l 371 865 l 358 894 l 342 894 l 329 865 m 304 -242 q 292 -230 304 -242 q 279 -183 279 -217 q 304 -124 279 -149 q 364 -99 329 -99 q 423 -124 399 -99 q 447 -182 447 -149 q 423 -242 447 -217 q 364 -268 399 -268 q 304 -242 329 -268 m 183 282 q 238 146 190 193 q 365 99 285 99 q 472 131 429 99 q 525 219 514 163 l 663 197 q 559 33 639 93 q 365 -26 479 -26 q 126 67 213 -26 q 39 322 39 160 q 122 576 39 483 q 350 668 206 668 q 579 575 496 668 q 663 331 663 482 l 663 282 l 183 282 m 186 382 l 518 382 q 470 499 518 453 q 350 544 422 544 q 238 502 281 544 q 186 382 196 460 z "},"Ỉ":{"ha":264,"x_min":6,"x_max":251,"o":"m 153 1078 q 158 1087 153 1078 q 164 1110 164 1096 q 154 1135 164 1125 q 129 1144 144 1144 q 106 1135 117 1144 q 90 1104 94 1125 l 6 1129 q 52 1203 15 1178 q 131 1229 89 1229 q 216 1195 181 1229 q 251 1111 251 1161 q 240 1064 251 1088 q 219 1028 229 1040 q 186 993 208 1015 q 160 965 164 971 l 103 1022 q 132 1050 122 1040 q 153 1078 142 1060 m 61 908 l 203 908 l 203 0 l 61 0 l 61 908 z "},"ỉ":{"ha":258,"x_min":4,"x_max":251,"o":"m 153 824 q 158 833 153 824 q 164 856 164 842 q 154 881 164 871 q 129 890 144 890 q 106 881 117 890 q 90 850 94 871 l 6 875 q 52 949 15 924 q 131 975 89 975 q 216 941 181 975 q 251 857 251 907 q 240 810 251 833 q 219 774 229 786 q 186 739 208 761 q 160 711 164 717 l 103 768 q 132 796 122 786 q 153 824 142 806 m 61 639 l 203 639 l 203 0 l 61 0 l 61 639 z "},"Ị":{"ha":264,"x_min":46,"x_max":215,"o":"m 71 -242 q 58 -230 71 -242 q 46 -183 46 -217 q 71 -124 46 -149 q 131 -99 96 -99 q 190 -124 165 -99 q 214 -182 214 -149 q 190 -242 214 -217 q 131 -268 165 -268 q 71 -242 96 -268 m 61 908 l 203 908 l 203 0 l 61 0 l 61 908 z "},"ị":{"ha":260,"x_min":46,"x_max":217,"o":"m 74 -242 q 61 -230 74 -242 q 49 -183 49 -217 q 74 -124 49 -149 q 133 -99 99 -99 q 192 -124 168 -99 q 217 -182 217 -149 q 192 -242 217 -217 q 133 -268 168 -268 q 74 -242 99 -268 m 71 750 q 58 763 71 750 q 46 810 46 775 q 71 869 46 844 q 130 894 96 894 q 189 869 164 894 q 214 810 214 844 q 189 750 214 775 q 130 725 164 725 q 71 750 96 725 m 61 639 l 203 639 l 203 0 l 61 0 l 61 639 z "},"Ọ":{"ha":849,"x_min":39,"x_max":810,"o":"m 365 -242 q 353 -230 365 -242 q 340 -183 340 -217 q 365 -124 340 -149 q 425 -99 390 -99 q 484 -124 460 -99 q 508 -182 508 -149 q 484 -242 508 -217 q 425 -268 460 -268 q 365 -242 390 -268 m 247 708 q 214 663 247 708 q 182 454 182 617 q 247 202 182 292 q 425 113 311 113 q 603 202 539 113 q 667 454 667 292 q 603 708 667 617 q 425 800 539 800 q 247 708 311 800 m 143 101 q 91 164 143 101 q 39 454 39 228 q 144 809 39 681 q 425 938 249 938 q 700 807 590 938 q 810 454 810 676 q 706 101 810 228 q 425 -26 603 -26 q 143 101 247 -26 z "},"ọ":{"ha":701,"x_min":39,"x_max":663,"o":"m 292 -242 q 279 -230 292 -242 q 267 -183 267 -217 q 292 -124 267 -149 q 351 -99 317 -99 q 410 -124 386 -99 q 435 -182 435 -149 q 410 -242 435 -217 q 351 -268 386 -268 q 292 -242 317 -268 m 182 322 q 226 156 182 214 q 350 99 271 99 q 475 157 431 99 q 519 322 519 215 q 474 487 519 429 q 350 544 429 544 q 226 487 271 544 q 182 322 182 429 m 39 322 q 123 577 39 486 q 350 668 207 668 q 574 576 485 668 q 663 322 663 483 q 578 65 663 157 q 350 -26 493 -26 q 123 65 207 -26 q 39 322 39 157 z "},"Ỏ":{"ha":849,"x_min":39,"x_max":810,"o":"m 443 1078 q 449 1087 443 1078 q 454 1110 454 1096 q 444 1135 454 1125 q 419 1144 435 1144 q 396 1135 407 1144 q 381 1104 385 1125 l 296 1129 q 342 1203 306 1178 q 421 1229 379 1229 q 506 1195 471 1229 q 542 1111 542 1161 q 531 1064 542 1088 q 509 1028 519 1040 q 476 993 499 1015 q 450 965 454 971 l 393 1022 q 422 1050 413 1040 q 443 1078 432 1060 m 247 708 q 214 663 247 708 q 182 454 182 617 q 247 202 182 292 q 425 113 311 113 q 603 202 539 113 q 667 454 667 292 q 603 708 667 617 q 425 800 539 800 q 247 708 311 800 m 143 101 q 91 164 143 101 q 39 454 39 228 q 144 809 39 681 q 425 938 249 938 q 700 807 590 938 q 810 454 810 676 q 706 101 810 228 q 425 -26 603 -26 q 143 101 247 -26 z "},"ỏ":{"ha":701,"x_min":39,"x_max":663,"o":"m 369 824 q 375 833 369 824 q 381 856 381 842 q 371 881 381 871 q 346 890 361 890 q 322 881 333 890 q 307 850 311 871 l 222 875 q 269 949 232 924 q 347 975 306 975 q 433 941 397 975 q 468 857 468 907 q 457 810 468 833 q 435 774 446 786 q 403 739 425 761 q 376 711 381 717 l 319 768 q 349 796 339 786 q 369 824 358 806 m 182 322 q 226 156 182 214 q 350 99 271 99 q 475 157 431 99 q 519 322 519 215 q 474 487 519 429 q 350 544 429 544 q 226 487 271 544 q 182 322 182 429 m 39 322 q 123 577 39 486 q 350 668 207 668 q 574 576 485 668 q 663 322 663 483 q 578 65 663 157 q 350 -26 493 -26 q 123 65 207 -26 q 39 322 39 157 z "},"Ố":{"ha":849,"x_min":39,"x_max":860,"o":"m 860 1361 l 692 1129 l 599 1129 l 726 1361 l 860 1361 m 403 1097 l 308 983 l 186 983 l 344 1172 l 503 1172 l 661 983 l 539 983 l 444 1097 l 432 1126 l 415 1126 l 403 1097 m 247 708 q 214 663 247 708 q 182 454 182 617 q 247 202 182 292 q 425 113 311 113 q 603 202 539 113 q 667 454 667 292 q 603 708 667 617 q 425 800 539 800 q 247 708 311 800 m 143 101 q 91 164 143 101 q 39 454 39 228 q 144 809 39 681 q 425 938 249 938 q 700 807 590 938 q 810 454 810 676 q 706 101 810 228 q 425 -26 603 -26 q 143 101 247 -26 z "},"ố":{"ha":701,"x_min":39,"x_max":786,"o":"m 786 1107 l 618 875 l 525 875 l 653 1107 l 786 1107 m 329 843 l 235 729 l 113 729 l 271 918 l 429 918 l 588 729 l 465 729 l 371 843 l 358 872 l 342 872 l 329 843 m 182 322 q 226 156 182 214 q 350 99 271 99 q 475 157 431 99 q 519 322 519 215 q 474 487 519 429 q 350 544 429 544 q 226 487 271 544 q 182 322 182 429 m 39 322 q 123 577 39 486 q 350 668 207 668 q 574 576 485 668 q 663 322 663 483 q 578 65 663 157 q 350 -26 493 -26 q 123 65 207 -26 q 39 322 39 157 z "},"Ồ":{"ha":849,"x_min":39,"x_max":810,"o":"m 488 1361 l 621 1361 l 749 1129 l 656 1129 l 488 1361 m 403 1097 l 308 983 l 186 983 l 344 1172 l 503 1172 l 661 983 l 539 983 l 444 1097 l 432 1126 l 415 1126 l 403 1097 m 247 708 q 214 663 247 708 q 182 454 182 617 q 247 202 182 292 q 425 113 311 113 q 603 202 539 113 q 667 454 667 292 q 603 708 667 617 q 425 800 539 800 q 247 708 311 800 m 143 101 q 91 164 143 101 q 39 454 39 228 q 144 809 39 681 q 425 938 249 938 q 700 807 590 938 q 810 454 810 676 q 706 101 810 228 q 425 -26 603 -26 q 143 101 247 -26 z "},"ồ":{"ha":701,"x_min":39,"x_max":676,"o":"m 414 1107 l 547 1107 l 675 875 l 582 875 l 414 1107 m 329 843 l 235 729 l 113 729 l 271 918 l 429 918 l 588 729 l 465 729 l 371 843 l 358 872 l 342 872 l 329 843 m 182 322 q 226 156 182 214 q 350 99 271 99 q 475 157 431 99 q 519 322 519 215 q 474 487 519 429 q 350 544 429 544 q 226 487 271 544 q 182 322 182 429 m 39 322 q 123 577 39 486 q 350 668 207 668 q 574 576 485 668 q 663 322 663 483 q 578 65 663 157 q 350 -26 493 -26 q 123 65 207 -26 q 39 322 39 157 z "},"Ổ":{"ha":849,"x_min":39,"x_max":810,"o":"m 664 1228 q 669 1237 664 1228 q 675 1260 675 1246 q 665 1285 675 1275 q 640 1294 656 1294 q 617 1285 628 1294 q 601 1254 606 1275 l 517 1279 q 563 1353 526 1328 q 642 1379 600 1379 q 727 1345 692 1379 q 763 1261 763 1311 q 751 1214 763 1238 q 730 1178 740 1190 q 697 1143 719 1165 q 671 1115 675 1121 l 614 1172 q 643 1200 633 1190 q 664 1228 653 1210 m 403 1097 l 308 983 l 186 983 l 344 1172 l 503 1172 l 661 983 l 539 983 l 444 1097 l 432 1126 l 415 1126 l 403 1097 m 247 708 q 214 663 247 708 q 182 454 182 617 q 247 202 182 292 q 425 113 311 113 q 603 202 539 113 q 667 454 667 292 q 603 708 667 617 q 425 800 539 800 q 247 708 311 800 m 143 101 q 91 164 143 101 q 39 454 39 228 q 144 809 39 681 q 425 938 249 938 q 700 807 590 938 q 810 454 810 676 q 706 101 810 228 q 425 -26 603 -26 q 143 101 247 -26 z "}}}
